<ttFont>
    <TTGlyph name=".notdef" xMin="46" yMin="0" xMax="553" yMax="759">
      <contour>
        <pt x="394" y="88" on="1"/>
        <pt x="411" y="88" on="0"/>
        <pt x="411" y="107" on="1"/>
        <pt x="411" y="113" on="0"/>
        <pt x="314" y="284" on="1"/>
        <pt x="309" y="293" on="0"/>
        <pt x="299" y="293" on="1"/>
        <pt x="291" y="293" on="0"/>
        <pt x="285" y="284" on="1"/>
        <pt x="188" y="113" on="0"/>
        <pt x="188" y="107" on="1"/>
        <pt x="188" y="88" on="0"/>
        <pt x="206" y="88" on="1"/>
      </contour>
      <contour>
        <pt x="144" y="224" on="1"/>
        <pt x="153" y="224" on="0"/>
        <pt x="159" y="231" on="1"/>
        <pt x="253" y="374" on="0"/>
        <pt x="253" y="380" on="1"/>
        <pt x="253" y="386" on="0"/>
        <pt x="159" y="528" on="1"/>
        <pt x="153" y="535" on="0"/>
        <pt x="144" y="535" on="1"/>
        <pt x="125" y="535" on="0"/>
        <pt x="125" y="518" on="1"/>
        <pt x="125" y="241" on="1"/>
        <pt x="125" y="224" on="0"/>
      </contour>
      <contour>
        <pt x="494" y="0" on="1"/>
        <pt x="104" y="0" on="1"/>
        <pt x="79" y="0" on="0"/>
        <pt x="46" y="38" on="0"/>
        <pt x="46" y="60" on="1"/>
        <pt x="46" y="698" on="1"/>
        <pt x="46" y="723" on="0"/>
        <pt x="79" y="759" on="0"/>
        <pt x="104" y="759" on="1"/>
        <pt x="494" y="759" on="1"/>
        <pt x="520" y="759" on="0"/>
        <pt x="553" y="722" on="0"/>
        <pt x="553" y="698" on="1"/>
        <pt x="553" y="60" on="1"/>
        <pt x="553" y="38" on="0"/>
        <pt x="520" y="0" on="0"/>
      </contour>
      <contour>
        <pt x="455" y="224" on="1"/>
        <pt x="474" y="224" on="0"/>
        <pt x="474" y="241" on="1"/>
        <pt x="474" y="518" on="1"/>
        <pt x="474" y="535" on="0"/>
        <pt x="455" y="535" on="1"/>
        <pt x="447" y="535" on="0"/>
        <pt x="440" y="528" on="1"/>
        <pt x="347" y="386" on="0"/>
        <pt x="347" y="380" on="1"/>
        <pt x="347" y="374" on="0"/>
        <pt x="440" y="231" on="1"/>
        <pt x="447" y="224" on="0"/>
      </contour>
      <contour>
        <pt x="299" y="468" on="1"/>
        <pt x="309" y="468" on="0"/>
        <pt x="314" y="476" on="1"/>
        <pt x="411" y="648" on="0"/>
        <pt x="411" y="653" on="1"/>
        <pt x="411" y="672" on="0"/>
        <pt x="394" y="672" on="1"/>
        <pt x="206" y="672" on="1"/>
        <pt x="188" y="672" on="0"/>
        <pt x="188" y="653" on="1"/>
        <pt x="188" y="648" on="0"/>
        <pt x="285" y="476" on="1"/>
        <pt x="291" y="468" on="0"/>
      </contour>
    </TTGlyph>
    <TTGlyph name="A" xMin="27" yMin="-5" xMax="574" yMax="755">
      <contour>
        <pt x="530" y="-5" on="1"/>
        <pt x="502" y="-5" on="0"/>
        <pt x="487" y="26" on="1"/>
        <pt x="443" y="167" on="1"/>
        <pt x="430" y="200" on="0"/>
        <pt x="398" y="200" on="1"/>
        <pt x="203" y="200" on="1"/>
        <pt x="172" y="200" on="0"/>
        <pt x="158" y="167" on="1"/>
        <pt x="114" y="26" on="1"/>
        <pt x="100" y="-5" on="0"/>
        <pt x="71" y="-5" on="1"/>
        <pt x="52" y="-5" on="0"/>
        <pt x="27" y="21" on="0"/>
        <pt x="27" y="39" on="1"/>
        <pt x="27" y="46" on="0"/>
        <pt x="29" y="53" on="1"/>
        <pt x="239" y="710" on="1"/>
        <pt x="254" y="751" on="0"/>
        <pt x="298" y="755" on="1"/>
        <pt x="345" y="755" on="0"/>
        <pt x="362" y="710" on="1"/>
        <pt x="572" y="53" on="1"/>
        <pt x="574" y="46" on="0"/>
        <pt x="574" y="39" on="1"/>
        <pt x="574" y="21" on="0"/>
        <pt x="549" y="-5" on="0"/>
      </contour>
      <contour>
        <pt x="371" y="290" on="1"/>
        <pt x="381" y="290" on="0"/>
        <pt x="394" y="303" on="0"/>
        <pt x="394" y="313" on="1"/>
        <pt x="393" y="320" on="0"/>
        <pt x="315" y="565" on="1"/>
        <pt x="312" y="576" on="0"/>
        <pt x="301" y="576" on="1"/>
        <pt x="289" y="576" on="0"/>
        <pt x="286" y="565" on="1"/>
        <pt x="208" y="320" on="0"/>
        <pt x="207" y="313" on="1"/>
        <pt x="207" y="303" on="0"/>
        <pt x="220" y="290" on="0"/>
        <pt x="230" y="290" on="1"/>
      </contour>
    </TTGlyph>
    <TTGlyph name="B" xMin="92" yMin="1" xMax="539" yMax="751">
      <contour>
        <pt x="316" y="1" on="1"/>
        <pt x="139" y="1" on="1"/>
        <pt x="120" y="1" on="0"/>
        <pt x="92" y="29" on="0"/>
        <pt x="92" y="48" on="1"/>
        <pt x="92" y="704" on="1"/>
        <pt x="92" y="724" on="0"/>
        <pt x="120" y="751" on="0"/>
        <pt x="139" y="751" on="1"/>
        <pt x="316" y="751" on="1"/>
        <pt x="400" y="751" on="0"/>
        <pt x="512" y="634" on="0"/>
        <pt x="512" y="553" on="1"/>
        <pt x="512" y="471" on="0"/>
        <pt x="459" y="417" on="1"/>
        <pt x="455" y="412" on="0"/>
        <pt x="455" y="404" on="1"/>
        <pt x="455" y="398" on="0"/>
        <pt x="459" y="394" on="1"/>
        <pt x="500" y="357" on="0"/>
        <pt x="539" y="279" on="0"/>
        <pt x="539" y="223" on="1"/>
        <pt x="539" y="129" on="0"/>
        <pt x="408" y="1" on="0"/>
      </contour>
      <contour>
        <pt x="316" y="446" on="1"/>
        <pt x="358" y="446" on="0"/>
        <pt x="422" y="507" on="0"/>
        <pt x="422" y="553" on="1"/>
        <pt x="422" y="600" on="0"/>
        <pt x="360" y="661" on="0"/>
        <pt x="316" y="661" on="1"/>
        <pt x="206" y="661" on="1"/>
        <pt x="196" y="661" on="0"/>
        <pt x="182" y="647" on="0"/>
        <pt x="182" y="638" on="1"/>
        <pt x="182" y="469" on="1"/>
        <pt x="182" y="460" on="0"/>
        <pt x="196" y="446" on="0"/>
        <pt x="206" y="446" on="1"/>
      </contour>
      <contour>
        <pt x="316" y="91" on="1"/>
        <pt x="372" y="91" on="0"/>
        <pt x="449" y="168" on="0"/>
        <pt x="449" y="223" on="1"/>
        <pt x="449" y="276" on="0"/>
        <pt x="378" y="353" on="0"/>
        <pt x="317" y="356" on="1"/>
        <pt x="206" y="356" on="1"/>
        <pt x="196" y="356" on="0"/>
        <pt x="182" y="342" on="0"/>
        <pt x="182" y="333" on="1"/>
        <pt x="182" y="114" on="1"/>
        <pt x="182" y="105" on="0"/>
        <pt x="196" y="91" on="0"/>
        <pt x="206" y="91" on="1"/>
      </contour>
    </TTGlyph>
    <TTGlyph name="C" xMin="84" yMin="-5" xMax="524" yMax="755">
      <contour>
        <pt x="369" y="-5" on="1"/>
        <pt x="240" y="-5" on="0"/>
        <pt x="161" y="97" on="1"/>
        <pt x="84" y="203" on="0"/>
        <pt x="84" y="375" on="1"/>
        <pt x="87" y="550" on="0"/>
        <pt x="161" y="653" on="1"/>
        <pt x="240" y="755" on="0"/>
        <pt x="369" y="755" on="1"/>
        <pt x="524" y="755" on="0"/>
        <pt x="524" y="693" on="1"/>
        <pt x="524" y="672" on="0"/>
        <pt x="509" y="659" on="1"/>
        <pt x="499" y="650" on="0"/>
        <pt x="486" y="650" on="1"/>
        <pt x="481" y="650" on="0"/>
        <pt x="473" y="654" on="1"/>
        <pt x="449" y="667" on="0"/>
        <pt x="373" y="667" on="1"/>
        <pt x="293" y="665" on="0"/>
        <pt x="174" y="518" on="0"/>
        <pt x="174" y="379" on="1"/>
        <pt x="174" y="233" on="0"/>
        <pt x="283" y="86" on="0"/>
        <pt x="373" y="84" on="1"/>
        <pt x="437" y="84" on="0"/>
        <pt x="472" y="102" on="1"/>
        <pt x="478" y="105" on="0"/>
        <pt x="484" y="105" on="1"/>
        <pt x="500" y="105" on="0"/>
        <pt x="509" y="97" on="1"/>
        <pt x="524" y="84" on="0"/>
        <pt x="524" y="58" on="1"/>
        <pt x="524" y="26" on="0"/>
        <pt x="490" y="15" on="1"/>
        <pt x="432" y="-5" on="0"/>
      </contour>
    </TTGlyph>
    <TTGlyph name="D" xMin="90" yMin="0" xMax="530" yMax="750">
      <contour>
        <pt x="220" y="90" on="1"/>
        <pt x="334" y="90" on="0"/>
        <pt x="440" y="206" on="0"/>
        <pt x="440" y="340" on="1"/>
        <pt x="440" y="443" on="0"/>
        <pt x="424" y="576" on="0"/>
        <pt x="391" y="609" on="1"/>
        <pt x="353" y="645" on="0"/>
        <pt x="256" y="660" on="0"/>
        <pt x="204" y="660" on="1"/>
        <pt x="194" y="660" on="0"/>
        <pt x="180" y="646" on="0"/>
        <pt x="180" y="637" on="1"/>
        <pt x="180" y="113" on="1"/>
        <pt x="180" y="104" on="0"/>
        <pt x="194" y="90" on="0"/>
        <pt x="204" y="90" on="1"/>
      </contour>
      <contour>
        <pt x="220" y="0" on="1"/>
        <pt x="137" y="0" on="1"/>
        <pt x="118" y="0" on="0"/>
        <pt x="90" y="27" on="0"/>
        <pt x="90" y="47" on="1"/>
        <pt x="90" y="703" on="1"/>
        <pt x="90" y="722" on="0"/>
        <pt x="118" y="750" on="0"/>
        <pt x="137" y="750" on="1"/>
        <pt x="230" y="750" on="1"/>
        <pt x="331" y="750" on="0"/>
        <pt x="464" y="683" on="0"/>
        <pt x="530" y="534" on="0"/>
        <pt x="530" y="410" on="1"/>
        <pt x="530" y="340" on="1"/>
        <pt x="530" y="154" on="0"/>
        <pt x="378" y="0" on="0"/>
      </contour>
    </TTGlyph>
    <TTGlyph name="E" xMin="100" yMin="0" xMax="529" yMax="750">
      <contour>
        <pt x="484" y="0" on="1"/>
        <pt x="147" y="0" on="1"/>
        <pt x="127" y="0" on="0"/>
        <pt x="100" y="28" on="0"/>
        <pt x="100" y="47" on="1"/>
        <pt x="100" y="703" on="1"/>
        <pt x="100" y="723" on="0"/>
        <pt x="127" y="750" on="0"/>
        <pt x="147" y="750" on="1"/>
        <pt x="484" y="750" on="1"/>
        <pt x="503" y="750" on="0"/>
        <pt x="529" y="724" on="0"/>
        <pt x="529" y="705" on="1"/>
        <pt x="529" y="687" on="0"/>
        <pt x="503" y="660" on="0"/>
        <pt x="484" y="660" on="1"/>
        <pt x="213" y="660" on="1"/>
        <pt x="204" y="660" on="0"/>
        <pt x="190" y="647" on="0"/>
        <pt x="190" y="637" on="1"/>
        <pt x="190" y="469" on="1"/>
        <pt x="190" y="459" on="0"/>
        <pt x="204" y="445" on="0"/>
        <pt x="213" y="445" on="1"/>
        <pt x="455" y="445" on="1"/>
        <pt x="474" y="445" on="0"/>
        <pt x="500" y="419" on="0"/>
        <pt x="500" y="400" on="1"/>
        <pt x="500" y="382" on="0"/>
        <pt x="474" y="355" on="0"/>
        <pt x="455" y="355" on="1"/>
        <pt x="213" y="355" on="1"/>
        <pt x="204" y="355" on="0"/>
        <pt x="190" y="342" on="0"/>
        <pt x="190" y="332" on="1"/>
        <pt x="190" y="114" on="1"/>
        <pt x="190" y="104" on="0"/>
        <pt x="204" y="90" on="0"/>
        <pt x="213" y="90" on="1"/>
        <pt x="484" y="90" on="1"/>
        <pt x="503" y="90" on="0"/>
        <pt x="529" y="64" on="0"/>
        <pt x="529" y="45" on="1"/>
        <pt x="529" y="27" on="0"/>
        <pt x="503" y="0" on="0"/>
      </contour>
    </TTGlyph>
    <TTGlyph name="F" xMin="99" yMin="-5" xMax="529" yMax="750">
      <contour>
        <pt x="144" y="-5" on="1"/>
        <pt x="125" y="-5" on="0"/>
        <pt x="99" y="22" on="0"/>
        <pt x="99" y="40" on="1"/>
        <pt x="99" y="703" on="1"/>
        <pt x="99" y="723" on="0"/>
        <pt x="126" y="750" on="0"/>
        <pt x="146" y="750" on="1"/>
        <pt x="484" y="750" on="1"/>
        <pt x="503" y="750" on="0"/>
        <pt x="529" y="724" on="0"/>
        <pt x="529" y="705" on="1"/>
        <pt x="529" y="687" on="0"/>
        <pt x="503" y="660" on="0"/>
        <pt x="484" y="660" on="1"/>
        <pt x="212" y="660" on="1"/>
        <pt x="203" y="660" on="0"/>
        <pt x="189" y="647" on="0"/>
        <pt x="189" y="637" on="1"/>
        <pt x="189" y="469" on="1"/>
        <pt x="189" y="459" on="0"/>
        <pt x="203" y="445" on="0"/>
        <pt x="212" y="445" on="1"/>
        <pt x="455" y="445" on="1"/>
        <pt x="474" y="445" on="0"/>
        <pt x="500" y="419" on="0"/>
        <pt x="500" y="400" on="1"/>
        <pt x="500" y="382" on="0"/>
        <pt x="474" y="355" on="0"/>
        <pt x="455" y="355" on="1"/>
        <pt x="212" y="355" on="1"/>
        <pt x="203" y="355" on="0"/>
        <pt x="189" y="342" on="0"/>
        <pt x="189" y="332" on="1"/>
        <pt x="189" y="40" on="1"/>
        <pt x="189" y="22" on="0"/>
        <pt x="163" y="-5" on="0"/>
      </contour>
    </TTGlyph>
    <TTGlyph name="G" xMin="74" yMin="-5" xMax="514" yMax="755">
      <contour>
        <pt x="313" y="-5" on="1"/>
        <pt x="235" y="-5" on="0"/>
        <pt x="129" y="90" on="0"/>
        <pt x="76" y="242" on="0"/>
        <pt x="74" y="333" on="1"/>
        <pt x="74" y="417" on="1"/>
        <pt x="77" y="612" on="0"/>
        <pt x="172" y="705" on="1"/>
        <pt x="223" y="755" on="0"/>
        <pt x="315" y="755" on="1"/>
        <pt x="468" y="755" on="0"/>
        <pt x="511" y="588" on="1"/>
        <pt x="514" y="578" on="0"/>
        <pt x="514" y="573" on="1"/>
        <pt x="514" y="553" on="0"/>
        <pt x="489" y="528" on="0"/>
        <pt x="472" y="528" on="1"/>
        <pt x="438" y="528" on="0"/>
        <pt x="429" y="560" on="1"/>
        <pt x="399" y="666" on="0"/>
        <pt x="315" y="666" on="1"/>
        <pt x="264" y="666" on="0"/>
        <pt x="194" y="601" on="0"/>
        <pt x="177" y="535" on="1"/>
        <pt x="164" y="483" on="0"/>
        <pt x="164" y="418" on="1"/>
        <pt x="164" y="333" on="1"/>
        <pt x="166" y="214" on="0"/>
        <pt x="244" y="84" on="0"/>
        <pt x="323" y="84" on="1"/>
        <pt x="373" y="84" on="0"/>
        <pt x="413" y="115" on="1"/>
        <pt x="426" y="125" on="0"/>
        <pt x="426" y="143" on="1"/>
        <pt x="426" y="277" on="1"/>
        <pt x="426" y="300" on="0"/>
        <pt x="404" y="300" on="1"/>
        <pt x="351" y="300" on="1"/>
        <pt x="336" y="300" on="0"/>
        <pt x="307" y="326" on="0"/>
        <pt x="307" y="349" on="1"/>
        <pt x="307" y="368" on="0"/>
        <pt x="333" y="390" on="0"/>
        <pt x="348" y="390" on="1"/>
        <pt x="493" y="390" on="1"/>
        <pt x="502" y="390" on="0"/>
        <pt x="514" y="377" on="0"/>
        <pt x="514" y="367" on="1"/>
        <pt x="514" y="129" on="1"/>
        <pt x="514" y="99" on="0"/>
        <pt x="496" y="78" on="1"/>
        <pt x="420" y="-5" on="0"/>
      </contour>
    </TTGlyph>
    <TTGlyph name="H" xMin="80" yMin="-5" xMax="520" yMax="755">
      <contour>
        <pt x="475" y="-5" on="1"/>
        <pt x="456" y="-5" on="0"/>
        <pt x="430" y="22" on="0"/>
        <pt x="430" y="40" on="1"/>
        <pt x="430" y="307" on="1"/>
        <pt x="430" y="317" on="0"/>
        <pt x="416" y="330" on="0"/>
        <pt x="407" y="330" on="1"/>
        <pt x="193" y="330" on="1"/>
        <pt x="184" y="330" on="0"/>
        <pt x="170" y="317" on="0"/>
        <pt x="170" y="307" on="1"/>
        <pt x="170" y="40" on="1"/>
        <pt x="170" y="22" on="0"/>
        <pt x="144" y="-5" on="0"/>
        <pt x="125" y="-5" on="1"/>
        <pt x="106" y="-5" on="0"/>
        <pt x="80" y="22" on="0"/>
        <pt x="80" y="40" on="1"/>
        <pt x="80" y="710" on="1"/>
        <pt x="80" y="729" on="0"/>
        <pt x="106" y="755" on="0"/>
        <pt x="125" y="755" on="1"/>
        <pt x="144" y="755" on="0"/>
        <pt x="170" y="729" on="0"/>
        <pt x="170" y="710" on="1"/>
        <pt x="170" y="444" on="1"/>
        <pt x="170" y="434" on="0"/>
        <pt x="184" y="420" on="0"/>
        <pt x="193" y="420" on="1"/>
        <pt x="407" y="420" on="1"/>
        <pt x="416" y="420" on="0"/>
        <pt x="430" y="434" on="0"/>
        <pt x="430" y="444" on="1"/>
        <pt x="430" y="710" on="1"/>
        <pt x="430" y="729" on="0"/>
        <pt x="456" y="755" on="0"/>
        <pt x="475" y="755" on="1"/>
        <pt x="494" y="755" on="0"/>
        <pt x="520" y="729" on="0"/>
        <pt x="520" y="710" on="1"/>
        <pt x="520" y="40" on="1"/>
        <pt x="520" y="22" on="0"/>
        <pt x="494" y="-5" on="0"/>
      </contour>
    </TTGlyph>
    <TTGlyph name="I" xMin="90" yMin="0" xMax="510" yMax="750">
      <contour>
        <pt x="465" y="0" on="1"/>
        <pt x="135" y="0" on="1"/>
        <pt x="116" y="0" on="0"/>
        <pt x="90" y="27" on="0"/>
        <pt x="90" y="45" on="1"/>
        <pt x="90" y="64" on="0"/>
        <pt x="116" y="90" on="0"/>
        <pt x="135" y="90" on="1"/>
        <pt x="232" y="90" on="1"/>
        <pt x="241" y="90" on="0"/>
        <pt x="255" y="104" on="0"/>
        <pt x="255" y="114" on="1"/>
        <pt x="255" y="637" on="1"/>
        <pt x="255" y="647" on="0"/>
        <pt x="241" y="660" on="0"/>
        <pt x="232" y="660" on="1"/>
        <pt x="135" y="660" on="1"/>
        <pt x="116" y="660" on="0"/>
        <pt x="90" y="687" on="0"/>
        <pt x="90" y="705" on="1"/>
        <pt x="90" y="724" on="0"/>
        <pt x="116" y="750" on="0"/>
        <pt x="135" y="750" on="1"/>
        <pt x="465" y="750" on="1"/>
        <pt x="484" y="750" on="0"/>
        <pt x="510" y="724" on="0"/>
        <pt x="510" y="705" on="1"/>
        <pt x="510" y="687" on="0"/>
        <pt x="484" y="660" on="0"/>
        <pt x="465" y="660" on="1"/>
        <pt x="368" y="660" on="1"/>
        <pt x="359" y="660" on="0"/>
        <pt x="345" y="647" on="0"/>
        <pt x="345" y="637" on="1"/>
        <pt x="345" y="114" on="1"/>
        <pt x="345" y="104" on="0"/>
        <pt x="359" y="90" on="0"/>
        <pt x="368" y="90" on="1"/>
        <pt x="465" y="90" on="1"/>
        <pt x="484" y="90" on="0"/>
        <pt x="510" y="64" on="0"/>
        <pt x="510" y="45" on="1"/>
        <pt x="510" y="27" on="0"/>
        <pt x="484" y="0" on="0"/>
      </contour>
    </TTGlyph>
    <TTGlyph name="J" xMin="70" yMin="-5" xMax="500" yMax="750">
      <contour>
        <pt x="300" y="-5" on="1"/>
        <pt x="244" y="-5" on="0"/>
        <pt x="160" y="18" on="0"/>
        <pt x="123" y="54" on="1"/>
        <pt x="77" y="98" on="0"/>
        <pt x="70" y="149" on="1"/>
        <pt x="70" y="167" on="0"/>
        <pt x="97" y="195" on="0"/>
        <pt x="116" y="195" on="1"/>
        <pt x="147" y="195" on="0"/>
        <pt x="160" y="163" on="1"/>
        <pt x="168" y="138" on="0"/>
        <pt x="187" y="117" on="1"/>
        <pt x="221" y="82" on="0"/>
        <pt x="281" y="82" on="1"/>
        <pt x="310" y="82" on="0"/>
        <pt x="356" y="95" on="0"/>
        <pt x="378" y="117" on="1"/>
        <pt x="410" y="150" on="0"/>
        <pt x="410" y="195" on="1"/>
        <pt x="410" y="637" on="1"/>
        <pt x="410" y="647" on="0"/>
        <pt x="397" y="660" on="0"/>
        <pt x="387" y="660" on="1"/>
        <pt x="245" y="660" on="1"/>
        <pt x="226" y="660" on="0"/>
        <pt x="200" y="687" on="0"/>
        <pt x="200" y="705" on="1"/>
        <pt x="200" y="724" on="0"/>
        <pt x="226" y="750" on="0"/>
        <pt x="245" y="750" on="1"/>
        <pt x="453" y="750" on="1"/>
        <pt x="473" y="750" on="0"/>
        <pt x="500" y="723" on="0"/>
        <pt x="500" y="704" on="1"/>
        <pt x="500" y="195" on="1"/>
        <pt x="500" y="113" on="0"/>
        <pt x="383" y="-5" on="0"/>
      </contour>
    </TTGlyph>
    <TTGlyph name="K" xMin="84" yMin="-5" xMax="541" yMax="755">
      <contour>
        <pt x="496" y="-5" on="1"/>
        <pt x="471" y="-5" on="0"/>
        <pt x="456" y="18" on="1"/>
        <pt x="270" y="330" on="1"/>
        <pt x="262" y="342" on="0"/>
        <pt x="250" y="342" on="1"/>
        <pt x="239" y="342" on="0"/>
        <pt x="231" y="333" on="1"/>
        <pt x="184" y="276" on="1"/>
        <pt x="174" y="263" on="0"/>
        <pt x="174" y="246" on="1"/>
        <pt x="174" y="39" on="1"/>
        <pt x="174" y="21" on="0"/>
        <pt x="148" y="-5" on="0"/>
        <pt x="129" y="-5" on="1"/>
        <pt x="110" y="-5" on="0"/>
        <pt x="84" y="21" on="0"/>
        <pt x="84" y="39" on="1"/>
        <pt x="84" y="710" on="1"/>
        <pt x="84" y="729" on="0"/>
        <pt x="110" y="755" on="0"/>
        <pt x="129" y="755" on="1"/>
        <pt x="148" y="755" on="0"/>
        <pt x="174" y="729" on="0"/>
        <pt x="174" y="710" on="1"/>
        <pt x="174" y="472" on="1"/>
        <pt x="174" y="461" on="0"/>
        <pt x="189" y="448" on="0"/>
        <pt x="198" y="448" on="1"/>
        <pt x="208" y="448" on="0"/>
        <pt x="216" y="457" on="1"/>
        <pt x="435" y="738" on="1"/>
        <pt x="449" y="755" on="0"/>
        <pt x="470" y="755" on="1"/>
        <pt x="490" y="755" on="0"/>
        <pt x="515" y="727" on="0"/>
        <pt x="515" y="709" on="1"/>
        <pt x="515" y="695" on="0"/>
        <pt x="505" y="682" on="1"/>
        <pt x="324" y="449" on="1"/>
        <pt x="319" y="442" on="0"/>
        <pt x="319" y="434" on="1"/>
        <pt x="319" y="428" on="0"/>
        <pt x="322" y="423" on="1"/>
        <pt x="535" y="61" on="1"/>
        <pt x="541" y="50" on="0"/>
        <pt x="541" y="39" on="1"/>
        <pt x="541" y="22" on="0"/>
        <pt x="515" y="-5" on="0"/>
      </contour>
    </TTGlyph>
    <TTGlyph name="L" xMin="114" yMin="0" xMax="534" yMax="755">
      <contour>
        <pt x="490" y="0" on="1"/>
        <pt x="184" y="0" on="1"/>
        <pt x="155" y="0" on="0"/>
        <pt x="114" y="41" on="0"/>
        <pt x="114" y="70" on="1"/>
        <pt x="114" y="710" on="1"/>
        <pt x="114" y="728" on="0"/>
        <pt x="139" y="755" on="0"/>
        <pt x="159" y="755" on="1"/>
        <pt x="180" y="754" on="0"/>
        <pt x="204" y="727" on="0"/>
        <pt x="204" y="709" on="1"/>
        <pt x="204" y="137" on="1"/>
        <pt x="204" y="118" on="0"/>
        <pt x="231" y="90" on="0"/>
        <pt x="250" y="90" on="1"/>
        <pt x="488" y="90" on="1"/>
        <pt x="507" y="90" on="0"/>
        <pt x="534" y="65" on="0"/>
        <pt x="534" y="45" on="1"/>
        <pt x="534" y="26" on="0"/>
        <pt x="508" y="0" on="0"/>
      </contour>
    </TTGlyph>
    <TTGlyph name="M" xMin="70" yMin="-5" xMax="530" yMax="755">
      <contour>
        <pt x="485" y="-5" on="1"/>
        <pt x="466" y="-5" on="0"/>
        <pt x="440" y="21" on="0"/>
        <pt x="440" y="40" on="1"/>
        <pt x="440" y="480" on="1"/>
        <pt x="440" y="486" on="0"/>
        <pt x="432" y="492" on="0"/>
        <pt x="428" y="492" on="1"/>
        <pt x="421" y="492" on="0"/>
        <pt x="417" y="485" on="1"/>
        <pt x="354" y="331" on="1"/>
        <pt x="335" y="296" on="0"/>
        <pt x="299" y="296" on="1"/>
        <pt x="265" y="296" on="0"/>
        <pt x="245" y="331" on="1"/>
        <pt x="182" y="485" on="1"/>
        <pt x="178" y="492" on="0"/>
        <pt x="172" y="492" on="1"/>
        <pt x="167" y="492" on="0"/>
        <pt x="160" y="486" on="0"/>
        <pt x="160" y="480" on="1"/>
        <pt x="160" y="40" on="1"/>
        <pt x="160" y="21" on="0"/>
        <pt x="133" y="-5" on="0"/>
        <pt x="115" y="-5" on="1"/>
        <pt x="96" y="-5" on="0"/>
        <pt x="70" y="21" on="0"/>
        <pt x="70" y="40" on="1"/>
        <pt x="70" y="700" on="1"/>
        <pt x="70" y="723" on="0"/>
        <pt x="102" y="755" on="0"/>
        <pt x="124" y="755" on="1"/>
        <pt x="157" y="755" on="0"/>
        <pt x="174" y="722" on="1"/>
        <pt x="278" y="484" on="1"/>
        <pt x="286" y="470" on="0"/>
        <pt x="300" y="470" on="1"/>
        <pt x="313" y="470" on="0"/>
        <pt x="321" y="484" on="1"/>
        <pt x="425" y="722" on="1"/>
        <pt x="442" y="755" on="0"/>
        <pt x="475" y="755" on="1"/>
        <pt x="498" y="755" on="0"/>
        <pt x="530" y="723" on="0"/>
        <pt x="530" y="700" on="1"/>
        <pt x="530" y="40" on="1"/>
        <pt x="530" y="21" on="0"/>
        <pt x="503" y="-5" on="0"/>
      </contour>
    </TTGlyph>
    <TTGlyph name="N" xMin="80" yMin="-5" xMax="520" yMax="755">
      <contour>
        <pt x="465" y="-5" on="1"/>
        <pt x="434" y="-5" on="0"/>
        <pt x="415" y="27" on="1"/>
        <pt x="192" y="514" on="1"/>
        <pt x="188" y="521" on="0"/>
        <pt x="182" y="521" on="1"/>
        <pt x="177" y="521" on="0"/>
        <pt x="170" y="515" on="0"/>
        <pt x="170" y="509" on="1"/>
        <pt x="170" y="40" on="1"/>
        <pt x="170" y="21" on="0"/>
        <pt x="144" y="-5" on="0"/>
        <pt x="125" y="-5" on="1"/>
        <pt x="106" y="-5" on="0"/>
        <pt x="80" y="21" on="0"/>
        <pt x="80" y="40" on="1"/>
        <pt x="80" y="700" on="1"/>
        <pt x="80" y="723" on="0"/>
        <pt x="113" y="755" on="0"/>
        <pt x="135" y="755" on="1"/>
        <pt x="167" y="755" on="0"/>
        <pt x="185" y="723" on="1"/>
        <pt x="408" y="236" on="1"/>
        <pt x="412" y="229" on="0"/>
        <pt x="418" y="229" on="1"/>
        <pt x="423" y="229" on="0"/>
        <pt x="430" y="235" on="0"/>
        <pt x="430" y="241" on="1"/>
        <pt x="430" y="710" on="1"/>
        <pt x="430" y="729" on="0"/>
        <pt x="456" y="755" on="0"/>
        <pt x="475" y="755" on="1"/>
        <pt x="494" y="755" on="0"/>
        <pt x="520" y="729" on="0"/>
        <pt x="520" y="710" on="1"/>
        <pt x="520" y="50" on="1"/>
        <pt x="520" y="27" on="0"/>
        <pt x="488" y="-5" on="0"/>
      </contour>
    </TTGlyph>
    <TTGlyph name="O" xMin="70" yMin="-5" xMax="530" yMax="755">
      <contour>
        <pt x="300" y="-5" on="1"/>
        <pt x="427" y="-5" on="0"/>
        <pt x="484" y="118" on="1"/>
        <pt x="530" y="217" on="0"/>
        <pt x="530" y="375" on="1"/>
        <pt x="530" y="533" on="0"/>
        <pt x="485" y="632" on="1"/>
        <pt x="428" y="755" on="0"/>
        <pt x="300" y="755" on="1"/>
        <pt x="172" y="755" on="0"/>
        <pt x="116" y="632" on="1"/>
        <pt x="70" y="533" on="0"/>
        <pt x="70" y="375" on="1"/>
        <pt x="70" y="216" on="0"/>
        <pt x="115" y="118" on="1"/>
        <pt x="171" y="-5" on="0"/>
      </contour>
      <contour>
        <pt x="300" y="104" on="1"/>
        <pt x="243" y="104" on="0"/>
        <pt x="183" y="183" on="0"/>
        <pt x="160" y="308" on="0"/>
        <pt x="160" y="375" on="1"/>
        <pt x="160" y="442" on="0"/>
        <pt x="182" y="566" on="0"/>
        <pt x="242" y="645" on="0"/>
        <pt x="300" y="645" on="1"/>
        <pt x="357" y="645" on="0"/>
        <pt x="417" y="563" on="0"/>
        <pt x="439" y="438" on="0"/>
        <pt x="439" y="375" on="1"/>
        <pt x="439" y="312" on="0"/>
        <pt x="417" y="187" on="0"/>
        <pt x="357" y="104" on="0"/>
      </contour>
    </TTGlyph>
    <TTGlyph name="P" xMin="120" yMin="-5" xMax="540" yMax="750">
      <contour>
        <pt x="165" y="-5" on="1"/>
        <pt x="147" y="-5" on="0"/>
        <pt x="120" y="21" on="0"/>
        <pt x="120" y="40" on="1"/>
        <pt x="120" y="703" on="1"/>
        <pt x="120" y="722" on="0"/>
        <pt x="148" y="750" on="0"/>
        <pt x="167" y="750" on="1"/>
        <pt x="344" y="750" on="1"/>
        <pt x="425" y="750" on="0"/>
        <pt x="540" y="634" on="0"/>
        <pt x="540" y="552" on="1"/>
        <pt x="540" y="453" on="0"/>
        <pt x="424" y="335" on="0"/>
        <pt x="344" y="335" on="1"/>
        <pt x="234" y="335" on="1"/>
        <pt x="224" y="335" on="0"/>
        <pt x="210" y="321" on="0"/>
        <pt x="210" y="311" on="1"/>
        <pt x="210" y="40" on="1"/>
        <pt x="210" y="21" on="0"/>
        <pt x="184" y="-5" on="0"/>
      </contour>
      <contour>
        <pt x="344" y="425" on="1"/>
        <pt x="387" y="425" on="0"/>
        <pt x="419" y="457" on="1"/>
        <pt x="435" y="472" on="0"/>
        <pt x="450" y="515" on="0"/>
        <pt x="450" y="552" on="1"/>
        <pt x="450" y="599" on="0"/>
        <pt x="387" y="660" on="0"/>
        <pt x="344" y="660" on="1"/>
        <pt x="234" y="660" on="1"/>
        <pt x="224" y="660" on="0"/>
        <pt x="210" y="646" on="0"/>
        <pt x="210" y="636" on="1"/>
        <pt x="210" y="448" on="1"/>
        <pt x="210" y="439" on="0"/>
        <pt x="224" y="425" on="0"/>
        <pt x="234" y="425" on="1"/>
      </contour>
    </TTGlyph>
    <TTGlyph name="Q" xMin="70" yMin="-200" xMax="563" yMax="755">
      <contour>
        <pt x="300" y="-5" on="1"/>
        <pt x="427" y="-5" on="0"/>
        <pt x="484" y="118" on="1"/>
        <pt x="530" y="217" on="0"/>
        <pt x="530" y="375" on="1"/>
        <pt x="530" y="533" on="0"/>
        <pt x="485" y="632" on="1"/>
        <pt x="428" y="755" on="0"/>
        <pt x="300" y="755" on="1"/>
        <pt x="172" y="755" on="0"/>
        <pt x="116" y="632" on="1"/>
        <pt x="70" y="533" on="0"/>
        <pt x="70" y="375" on="1"/>
        <pt x="70" y="216" on="0"/>
        <pt x="115" y="118" on="1"/>
        <pt x="171" y="-5" on="0"/>
      </contour>
      <contour>
        <pt x="300" y="104" on="1"/>
        <pt x="243" y="104" on="0"/>
        <pt x="183" y="183" on="0"/>
        <pt x="160" y="308" on="0"/>
        <pt x="160" y="375" on="1"/>
        <pt x="160" y="442" on="0"/>
        <pt x="182" y="566" on="0"/>
        <pt x="242" y="645" on="0"/>
        <pt x="300" y="645" on="1"/>
        <pt x="357" y="645" on="0"/>
        <pt x="417" y="563" on="0"/>
        <pt x="439" y="438" on="0"/>
        <pt x="439" y="375" on="1"/>
        <pt x="439" y="312" on="0"/>
        <pt x="417" y="187" on="0"/>
        <pt x="357" y="104" on="0"/>
      </contour>
      <contour>
        <pt x="518" y="-200" on="1"/>
        <pt x="510" y="-200" on="0"/>
        <pt x="503" y="-198" on="1"/>
        <pt x="296" y="-123" on="1"/>
        <pt x="266" y="-109" on="0"/>
        <pt x="266" y="-81" on="1"/>
        <pt x="266" y="-74" on="0"/>
        <pt x="269" y="-66" on="1"/>
        <pt x="283" y="-36" on="0"/>
        <pt x="310" y="-36" on="1"/>
        <pt x="318" y="-36" on="0"/>
        <pt x="326" y="-39" on="1"/>
        <pt x="533" y="-113" on="1"/>
        <pt x="563" y="-127" on="0"/>
        <pt x="563" y="-155" on="1"/>
        <pt x="563" y="-163" on="0"/>
        <pt x="560" y="-171" on="1"/>
        <pt x="545" y="-200" on="0"/>
      </contour>
    </TTGlyph>
    <TTGlyph name="R" xMin="93" yMin="-5" xMax="552" yMax="750">
      <contour>
        <pt x="507" y="-5" on="1"/>
        <pt x="483" y="-5" on="0"/>
        <pt x="468" y="18" on="1"/>
        <pt x="283" y="323" on="1"/>
        <pt x="275" y="335" on="0"/>
        <pt x="263" y="335" on="1"/>
        <pt x="207" y="335" on="1"/>
        <pt x="197" y="335" on="0"/>
        <pt x="183" y="321" on="0"/>
        <pt x="183" y="311" on="1"/>
        <pt x="183" y="40" on="1"/>
        <pt x="183" y="21" on="0"/>
        <pt x="157" y="-5" on="0"/>
        <pt x="139" y="-5" on="1"/>
        <pt x="120" y="-5" on="0"/>
        <pt x="93" y="20" on="0"/>
        <pt x="93" y="40" on="1"/>
        <pt x="93" y="703" on="1"/>
        <pt x="93" y="723" on="0"/>
        <pt x="121" y="750" on="0"/>
        <pt x="140" y="750" on="1"/>
        <pt x="317" y="750" on="1"/>
        <pt x="398" y="750" on="0"/>
        <pt x="456" y="692" on="1"/>
        <pt x="485" y="664" on="0"/>
        <pt x="513" y="601" on="0"/>
        <pt x="513" y="552" on="1"/>
        <pt x="513" y="476" on="0"/>
        <pt x="449" y="374" on="0"/>
        <pt x="398" y="352" on="1"/>
        <pt x="384" y="343" on="0"/>
        <pt x="384" y="330" on="1"/>
        <pt x="384" y="324" on="0"/>
        <pt x="387" y="319" on="1"/>
        <pt x="547" y="61" on="1"/>
        <pt x="552" y="50" on="0"/>
        <pt x="552" y="40" on="1"/>
        <pt x="552" y="22" on="0"/>
        <pt x="527" y="-5" on="0"/>
      </contour>
      <contour>
        <pt x="317" y="425" on="1"/>
        <pt x="359" y="425" on="0"/>
        <pt x="423" y="498" on="0"/>
        <pt x="423" y="552" on="1"/>
        <pt x="423" y="605" on="0"/>
        <pt x="361" y="660" on="0"/>
        <pt x="317" y="660" on="1"/>
        <pt x="207" y="660" on="1"/>
        <pt x="197" y="660" on="0"/>
        <pt x="183" y="646" on="0"/>
        <pt x="183" y="636" on="1"/>
        <pt x="183" y="448" on="1"/>
        <pt x="183" y="439" on="0"/>
        <pt x="197" y="425" on="0"/>
        <pt x="207" y="425" on="1"/>
      </contour>
    </TTGlyph>
    <TTGlyph name="S" xMin="76" yMin="-5" xMax="524" yMax="755">
      <contour>
        <pt x="305" y="-5" on="1"/>
        <pt x="229" y="-5" on="0"/>
        <pt x="100" y="77" on="0"/>
        <pt x="79" y="122" on="1"/>
        <pt x="76" y="129" on="0"/>
        <pt x="76" y="138" on="1"/>
        <pt x="76" y="158" on="0"/>
        <pt x="99" y="187" on="0"/>
        <pt x="118" y="187" on="1"/>
        <pt x="139" y="187" on="0"/>
        <pt x="158" y="163" on="1"/>
        <pt x="222" y="86" on="0"/>
        <pt x="305" y="84" on="1"/>
        <pt x="344" y="84" on="0"/>
        <pt x="379" y="102" on="1"/>
        <pt x="435" y="132" on="0"/>
        <pt x="435" y="204" on="1"/>
        <pt x="435" y="271" on="0"/>
        <pt x="356" y="307" on="1"/>
        <pt x="323" y="323" on="0"/>
        <pt x="291" y="334" on="1"/>
        <pt x="88" y="402" on="0"/>
        <pt x="88" y="551" on="1"/>
        <pt x="88" y="621" on="0"/>
        <pt x="153" y="710" on="0"/>
        <pt x="244" y="755" on="0"/>
        <pt x="301" y="755" on="1"/>
        <pt x="389" y="755" on="0"/>
        <pt x="498" y="682" on="0"/>
        <pt x="511" y="627" on="1"/>
        <pt x="513" y="620" on="0"/>
        <pt x="513" y="612" on="1"/>
        <pt x="513" y="594" on="0"/>
        <pt x="494" y="570" on="0"/>
        <pt x="475" y="570" on="1"/>
        <pt x="445" y="570" on="0"/>
        <pt x="432" y="605" on="1"/>
        <pt x="421" y="633" on="0"/>
        <pt x="347" y="671" on="0"/>
        <pt x="301" y="671" on="1"/>
        <pt x="252" y="671" on="0"/>
        <pt x="175" y="607" on="0"/>
        <pt x="175" y="552" on="1"/>
        <pt x="176" y="492" on="0"/>
        <pt x="261" y="438" on="0"/>
        <pt x="307" y="422" on="1"/>
        <pt x="376" y="399" on="0"/>
        <pt x="416" y="375" on="1"/>
        <pt x="524" y="311" on="0"/>
        <pt x="524" y="196" on="1"/>
        <pt x="524" y="123" on="0"/>
        <pt x="455" y="37" on="0"/>
        <pt x="368" y="-5" on="0"/>
      </contour>
    </TTGlyph>
    <TTGlyph name="SF010000" xMin="250" yMin="-400" xMax="620" yMax="420">
      <contour>
        <pt x="250" y="-400" on="1"/>
        <pt x="250" y="420" on="1"/>
        <pt x="620" y="420" on="1"/>
        <pt x="620" y="320" on="1"/>
        <pt x="350" y="320" on="1"/>
        <pt x="350" y="-400" on="1"/>
      </contour>
    </TTGlyph>
    <TTGlyph name="SF020000" xMin="250" yMin="320" xMax="620" yMax="1120">
      <contour>
        <pt x="250" y="320" on="1"/>
        <pt x="250" y="1120" on="1"/>
        <pt x="350" y="1120" on="1"/>
        <pt x="350" y="420" on="1"/>
        <pt x="620" y="420" on="1"/>
        <pt x="620" y="320" on="1"/>
      </contour>
    </TTGlyph>
    <TTGlyph name="SF030000" xMin="-20" yMin="-400" xMax="350" yMax="420">
      <contour>
        <pt x="250" y="-400" on="1"/>
        <pt x="250" y="320" on="1"/>
        <pt x="-20" y="320" on="1"/>
        <pt x="-20" y="420" on="1"/>
        <pt x="350" y="420" on="1"/>
        <pt x="350" y="-400" on="1"/>
      </contour>
    </TTGlyph>
    <TTGlyph name="SF040000" xMin="-20" yMin="320" xMax="350" yMax="1120">
      <contour>
        <pt x="-20" y="320" on="1"/>
        <pt x="-20" y="420" on="1"/>
        <pt x="250" y="420" on="1"/>
        <pt x="250" y="1120" on="1"/>
        <pt x="350" y="1120" on="1"/>
        <pt x="350" y="320" on="1"/>
      </contour>
    </TTGlyph>
    <TTGlyph name="SF050000" xMin="-20" yMin="-400" xMax="620" yMax="1120">
      <contour>
        <pt x="250" y="-400" on="1"/>
        <pt x="250" y="320" on="1"/>
        <pt x="-20" y="320" on="1"/>
        <pt x="-20" y="420" on="1"/>
        <pt x="250" y="420" on="1"/>
        <pt x="250" y="1120" on="1"/>
        <pt x="350" y="1120" on="1"/>
        <pt x="350" y="420" on="1"/>
        <pt x="620" y="420" on="1"/>
        <pt x="620" y="320" on="1"/>
        <pt x="350" y="320" on="1"/>
        <pt x="350" y="-400" on="1"/>
      </contour>
    </TTGlyph>
    <TTGlyph name="SF060000" xMin="-20" yMin="-400" xMax="620" yMax="420">
      <contour>
        <pt x="250" y="-400" on="1"/>
        <pt x="250" y="320" on="1"/>
        <pt x="-20" y="320" on="1"/>
        <pt x="-20" y="420" on="1"/>
        <pt x="620" y="420" on="1"/>
        <pt x="620" y="320" on="1"/>
        <pt x="350" y="320" on="1"/>
        <pt x="350" y="-400" on="1"/>
      </contour>
    </TTGlyph>
    <TTGlyph name="SF070000" xMin="-20" yMin="320" xMax="620" yMax="1120">
      <contour>
        <pt x="-20" y="320" on="1"/>
        <pt x="-20" y="420" on="1"/>
        <pt x="250" y="420" on="1"/>
        <pt x="250" y="1120" on="1"/>
        <pt x="350" y="1120" on="1"/>
        <pt x="350" y="420" on="1"/>
        <pt x="620" y="420" on="1"/>
        <pt x="620" y="320" on="1"/>
      </contour>
    </TTGlyph>
    <TTGlyph name="SF080000" xMin="250" yMin="-400" xMax="620" yMax="1120">
      <contour>
        <pt x="250" y="-400" on="1"/>
        <pt x="250" y="1120" on="1"/>
        <pt x="350" y="1120" on="1"/>
        <pt x="350" y="420" on="1"/>
        <pt x="620" y="420" on="1"/>
        <pt x="620" y="320" on="1"/>
        <pt x="350" y="320" on="1"/>
        <pt x="350" y="-400" on="1"/>
      </contour>
    </TTGlyph>
    <TTGlyph name="SF090000" xMin="-20" yMin="-400" xMax="350" yMax="1120">
      <contour>
        <pt x="250" y="-400" on="1"/>
        <pt x="250" y="320" on="1"/>
        <pt x="-20" y="320" on="1"/>
        <pt x="-20" y="420" on="1"/>
        <pt x="250" y="420" on="1"/>
        <pt x="250" y="1120" on="1"/>
        <pt x="350" y="1120" on="1"/>
        <pt x="350" y="-400" on="1"/>
      </contour>
    </TTGlyph>
    <TTGlyph name="SF100000" xMin="-20" yMin="320" xMax="620" yMax="420">
      <contour>
        <pt x="-20" y="320" on="1"/>
        <pt x="-20" y="420" on="1"/>
        <pt x="620" y="420" on="1"/>
        <pt x="620" y="320" on="1"/>
      </contour>
    </TTGlyph>
    <TTGlyph name="SF110000" xMin="250" yMin="-400" xMax="350" yMax="1120">
      <contour>
        <pt x="250" y="-400" on="1"/>
        <pt x="250" y="1120" on="1"/>
        <pt x="350" y="1120" on="1"/>
        <pt x="350" y="-400" on="1"/>
      </contour>
    </TTGlyph>
    <TTGlyph name="SF190000" xMin="-20" yMin="-400" xMax="350" yMax="1120">
      <contour>
        <pt x="250" y="-400" on="1"/>
        <pt x="250" y="220" on="1"/>
        <pt x="-20" y="220" on="1"/>
        <pt x="-20" y="320" on="1"/>
        <pt x="250" y="320" on="1"/>
        <pt x="250" y="420" on="1"/>
        <pt x="-20" y="420" on="1"/>
        <pt x="-20" y="520" on="1"/>
        <pt x="250" y="520" on="1"/>
        <pt x="250" y="1120" on="1"/>
        <pt x="350" y="1120" on="1"/>
        <pt x="350" y="-400" on="1"/>
      </contour>
    </TTGlyph>
    <TTGlyph name="SF200000" xMin="-20" yMin="-400" xMax="450" yMax="1120">
      <contour>
        <pt x="150" y="-400" on="1"/>
        <pt x="150" y="320" on="1"/>
        <pt x="-20" y="320" on="1"/>
        <pt x="-20" y="420" on="1"/>
        <pt x="150" y="420" on="1"/>
        <pt x="150" y="1120" on="1"/>
        <pt x="250" y="1120" on="1"/>
        <pt x="250" y="-400" on="1"/>
      </contour>
      <contour>
        <pt x="350" y="-400" on="1"/>
        <pt x="350" y="1120" on="1"/>
        <pt x="450" y="1120" on="1"/>
        <pt x="450" y="-400" on="1"/>
      </contour>
    </TTGlyph>
    <TTGlyph name="SF210000" xMin="-20" yMin="-400" xMax="450" yMax="420">
      <contour>
        <pt x="150" y="-400" on="1"/>
        <pt x="150" y="320" on="1"/>
        <pt x="-20" y="320" on="1"/>
        <pt x="-20" y="420" on="1"/>
        <pt x="450" y="420" on="1"/>
        <pt x="450" y="-400" on="1"/>
        <pt x="350" y="-400" on="1"/>
        <pt x="350" y="320" on="1"/>
        <pt x="250" y="320" on="1"/>
        <pt x="250" y="-400" on="1"/>
      </contour>
    </TTGlyph>
    <TTGlyph name="SF220000" xMin="-20" yMin="-400" xMax="350" yMax="520">
      <contour>
        <pt x="250" y="-400" on="1"/>
        <pt x="250" y="220" on="1"/>
        <pt x="-20" y="220" on="1"/>
        <pt x="-20" y="320" on="1"/>
        <pt x="250" y="320" on="1"/>
        <pt x="250" y="420" on="1"/>
        <pt x="-20" y="420" on="1"/>
        <pt x="-20" y="520" on="1"/>
        <pt x="350" y="520" on="1"/>
        <pt x="350" y="-400" on="1"/>
      </contour>
    </TTGlyph>
    <TTGlyph name="SF230000" xMin="-20" yMin="-400" xMax="450" yMax="1120">
      <contour>
        <pt x="350" y="-400" on="1"/>
        <pt x="350" y="1120" on="1"/>
        <pt x="450" y="1120" on="1"/>
        <pt x="450" y="-400" on="1"/>
      </contour>
      <contour>
        <pt x="-20" y="420" on="1"/>
        <pt x="-20" y="520" on="1"/>
        <pt x="150" y="520" on="1"/>
        <pt x="150" y="1120" on="1"/>
        <pt x="250" y="1120" on="1"/>
        <pt x="250" y="420" on="1"/>
      </contour>
      <contour>
        <pt x="150" y="-400" on="1"/>
        <pt x="150" y="220" on="1"/>
        <pt x="-20" y="220" on="1"/>
        <pt x="-20" y="320" on="1"/>
        <pt x="250" y="320" on="1"/>
        <pt x="250" y="-400" on="1"/>
      </contour>
    </TTGlyph>
    <TTGlyph name="SF240000" xMin="150" yMin="-400" xMax="450" yMax="1120">
      <contour>
        <pt x="350" y="-400" on="1"/>
        <pt x="350" y="1120" on="1"/>
        <pt x="450" y="1120" on="1"/>
        <pt x="450" y="-400" on="1"/>
      </contour>
      <contour>
        <pt x="150" y="-400" on="1"/>
        <pt x="150" y="1120" on="1"/>
        <pt x="250" y="1120" on="1"/>
        <pt x="250" y="-400" on="1"/>
      </contour>
    </TTGlyph>
    <TTGlyph name="SF250000" xMin="-20" yMin="-400" xMax="450" yMax="520">
      <contour>
        <pt x="350" y="-400" on="1"/>
        <pt x="350" y="420" on="1"/>
        <pt x="-20" y="420" on="1"/>
        <pt x="-20" y="520" on="1"/>
        <pt x="450" y="520" on="1"/>
        <pt x="450" y="-400" on="1"/>
      </contour>
      <contour>
        <pt x="150" y="-400" on="1"/>
        <pt x="150" y="220" on="1"/>
        <pt x="-20" y="220" on="1"/>
        <pt x="-20" y="320" on="1"/>
        <pt x="250" y="320" on="1"/>
        <pt x="250" y="-400" on="1"/>
      </contour>
    </TTGlyph>
    <TTGlyph name="SF260000" xMin="-20" yMin="220" xMax="450" yMax="1120">
      <contour>
        <pt x="-20" y="220" on="1"/>
        <pt x="-20" y="320" on="1"/>
        <pt x="350" y="320" on="1"/>
        <pt x="350" y="1120" on="1"/>
        <pt x="450" y="1120" on="1"/>
        <pt x="450" y="220" on="1"/>
      </contour>
      <contour>
        <pt x="-20" y="420" on="1"/>
        <pt x="-20" y="520" on="1"/>
        <pt x="150" y="520" on="1"/>
        <pt x="150" y="1120" on="1"/>
        <pt x="250" y="1120" on="1"/>
        <pt x="250" y="420" on="1"/>
      </contour>
    </TTGlyph>
    <TTGlyph name="SF270000" xMin="-20" yMin="320" xMax="450" yMax="1120">
      <contour>
        <pt x="-20" y="320" on="1"/>
        <pt x="-20" y="420" on="1"/>
        <pt x="150" y="420" on="1"/>
        <pt x="150" y="1120" on="1"/>
        <pt x="250" y="1120" on="1"/>
        <pt x="250" y="420" on="1"/>
        <pt x="350" y="420" on="1"/>
        <pt x="350" y="1120" on="1"/>
        <pt x="450" y="1120" on="1"/>
        <pt x="450" y="320" on="1"/>
      </contour>
    </TTGlyph>
    <TTGlyph name="SF280000" xMin="-20" yMin="220" xMax="350" yMax="1120">
      <contour>
        <pt x="-20" y="220" on="1"/>
        <pt x="-20" y="320" on="1"/>
        <pt x="250" y="320" on="1"/>
        <pt x="250" y="420" on="1"/>
        <pt x="-20" y="420" on="1"/>
        <pt x="-20" y="520" on="1"/>
        <pt x="250" y="520" on="1"/>
        <pt x="250" y="1120" on="1"/>
        <pt x="350" y="1120" on="1"/>
        <pt x="350" y="220" on="1"/>
      </contour>
    </TTGlyph>
    <TTGlyph name="SF360000" xMin="250" yMin="-400" xMax="620" yMax="1120">
      <contour>
        <pt x="250" y="-400" on="1"/>
        <pt x="250" y="1120" on="1"/>
        <pt x="350" y="1120" on="1"/>
        <pt x="350" y="520" on="1"/>
        <pt x="620" y="520" on="1"/>
        <pt x="620" y="420" on="1"/>
        <pt x="350" y="420" on="1"/>
        <pt x="350" y="320" on="1"/>
        <pt x="620" y="320" on="1"/>
        <pt x="620" y="220" on="1"/>
        <pt x="350" y="220" on="1"/>
        <pt x="350" y="-400" on="1"/>
      </contour>
    </TTGlyph>
    <TTGlyph name="SF370000" xMin="150" yMin="-400" xMax="620" yMax="1120">
      <contour>
        <pt x="350" y="-400" on="1"/>
        <pt x="350" y="1120" on="1"/>
        <pt x="450" y="1120" on="1"/>
        <pt x="450" y="420" on="1"/>
        <pt x="620" y="420" on="1"/>
        <pt x="620" y="320" on="1"/>
        <pt x="450" y="320" on="1"/>
        <pt x="450" y="-400" on="1"/>
      </contour>
      <contour>
        <pt x="150" y="-400" on="1"/>
        <pt x="150" y="1120" on="1"/>
        <pt x="250" y="1120" on="1"/>
        <pt x="250" y="-400" on="1"/>
      </contour>
    </TTGlyph>
    <TTGlyph name="SF380000" xMin="150" yMin="220" xMax="620" yMax="1120">
      <contour>
        <pt x="150" y="220" on="1"/>
        <pt x="150" y="1120" on="1"/>
        <pt x="250" y="1120" on="1"/>
        <pt x="250" y="320" on="1"/>
        <pt x="620" y="320" on="1"/>
        <pt x="620" y="220" on="1"/>
      </contour>
      <contour>
        <pt x="350" y="420" on="1"/>
        <pt x="350" y="1120" on="1"/>
        <pt x="450" y="1120" on="1"/>
        <pt x="450" y="520" on="1"/>
        <pt x="620" y="520" on="1"/>
        <pt x="620" y="420" on="1"/>
      </contour>
    </TTGlyph>
    <TTGlyph name="SF390000" xMin="150" yMin="-400" xMax="620" yMax="520">
      <contour>
        <pt x="150" y="-400" on="1"/>
        <pt x="150" y="520" on="1"/>
        <pt x="620" y="520" on="1"/>
        <pt x="620" y="420" on="1"/>
        <pt x="250" y="420" on="1"/>
        <pt x="250" y="-400" on="1"/>
      </contour>
      <contour>
        <pt x="350" y="-400" on="1"/>
        <pt x="350" y="320" on="1"/>
        <pt x="620" y="320" on="1"/>
        <pt x="620" y="220" on="1"/>
        <pt x="450" y="220" on="1"/>
        <pt x="450" y="-400" on="1"/>
      </contour>
    </TTGlyph>
    <TTGlyph name="SF400000" xMin="-20" yMin="220" xMax="620" yMax="1120">
      <contour>
        <pt x="350" y="420" on="1"/>
        <pt x="350" y="1120" on="1"/>
        <pt x="450" y="1120" on="1"/>
        <pt x="450" y="520" on="1"/>
        <pt x="620" y="520" on="1"/>
        <pt x="620" y="420" on="1"/>
      </contour>
      <contour>
        <pt x="-20" y="420" on="1"/>
        <pt x="-20" y="520" on="1"/>
        <pt x="150" y="520" on="1"/>
        <pt x="150" y="1120" on="1"/>
        <pt x="250" y="1120" on="1"/>
        <pt x="250" y="420" on="1"/>
      </contour>
      <contour>
        <pt x="-20" y="220" on="1"/>
        <pt x="-20" y="320" on="1"/>
        <pt x="620" y="320" on="1"/>
        <pt x="620" y="220" on="1"/>
      </contour>
    </TTGlyph>
    <TTGlyph name="SF410000" xMin="-20" yMin="-400" xMax="620" yMax="520">
      <contour>
        <pt x="-20" y="420" on="1"/>
        <pt x="-20" y="520" on="1"/>
        <pt x="620" y="520" on="1"/>
        <pt x="620" y="420" on="1"/>
      </contour>
      <contour>
        <pt x="350" y="-400" on="1"/>
        <pt x="350" y="320" on="1"/>
        <pt x="620" y="320" on="1"/>
        <pt x="620" y="220" on="1"/>
        <pt x="450" y="220" on="1"/>
        <pt x="450" y="-400" on="1"/>
      </contour>
      <contour>
        <pt x="150" y="-400" on="1"/>
        <pt x="150" y="220" on="1"/>
        <pt x="-20" y="220" on="1"/>
        <pt x="-20" y="320" on="1"/>
        <pt x="250" y="320" on="1"/>
        <pt x="250" y="-400" on="1"/>
      </contour>
    </TTGlyph>
    <TTGlyph name="SF420000" xMin="150" yMin="-400" xMax="620" yMax="1120">
      <contour>
        <pt x="150" y="-400" on="1"/>
        <pt x="150" y="1120" on="1"/>
        <pt x="250" y="1120" on="1"/>
        <pt x="250" y="-400" on="1"/>
      </contour>
      <contour>
        <pt x="350" y="420" on="1"/>
        <pt x="350" y="1120" on="1"/>
        <pt x="450" y="1120" on="1"/>
        <pt x="450" y="520" on="1"/>
        <pt x="620" y="520" on="1"/>
        <pt x="620" y="420" on="1"/>
      </contour>
      <contour>
        <pt x="350" y="-400" on="1"/>
        <pt x="350" y="320" on="1"/>
        <pt x="620" y="320" on="1"/>
        <pt x="620" y="220" on="1"/>
        <pt x="450" y="220" on="1"/>
        <pt x="450" y="-400" on="1"/>
      </contour>
    </TTGlyph>
    <TTGlyph name="SF430000" xMin="-20" yMin="220" xMax="620" yMax="520">
      <contour>
        <pt x="-20" y="420" on="1"/>
        <pt x="-20" y="520" on="1"/>
        <pt x="620" y="520" on="1"/>
        <pt x="620" y="420" on="1"/>
      </contour>
      <contour>
        <pt x="-20" y="220" on="1"/>
        <pt x="-20" y="320" on="1"/>
        <pt x="620" y="320" on="1"/>
        <pt x="620" y="220" on="1"/>
      </contour>
    </TTGlyph>
    <TTGlyph name="SF440000" xMin="-20" yMin="-400" xMax="620" yMax="1120">
      <contour>
        <pt x="-20" y="420" on="1"/>
        <pt x="-20" y="520" on="1"/>
        <pt x="150" y="520" on="1"/>
        <pt x="150" y="1120" on="1"/>
        <pt x="250" y="1120" on="1"/>
        <pt x="250" y="420" on="1"/>
      </contour>
      <contour>
        <pt x="350" y="420" on="1"/>
        <pt x="350" y="1120" on="1"/>
        <pt x="450" y="1120" on="1"/>
        <pt x="450" y="520" on="1"/>
        <pt x="620" y="520" on="1"/>
        <pt x="620" y="420" on="1"/>
      </contour>
      <contour>
        <pt x="350" y="-400" on="1"/>
        <pt x="350" y="320" on="1"/>
        <pt x="620" y="320" on="1"/>
        <pt x="620" y="220" on="1"/>
        <pt x="450" y="220" on="1"/>
        <pt x="450" y="-400" on="1"/>
      </contour>
      <contour>
        <pt x="150" y="-400" on="1"/>
        <pt x="150" y="220" on="1"/>
        <pt x="-20" y="220" on="1"/>
        <pt x="-20" y="320" on="1"/>
        <pt x="250" y="320" on="1"/>
        <pt x="250" y="-400" on="1"/>
      </contour>
    </TTGlyph>
    <TTGlyph name="SF450000" xMin="-20" yMin="220" xMax="620" yMax="1120">
      <contour>
        <pt x="-20" y="420" on="1"/>
        <pt x="-20" y="520" on="1"/>
        <pt x="250" y="520" on="1"/>
        <pt x="250" y="1120" on="1"/>
        <pt x="350" y="1120" on="1"/>
        <pt x="350" y="520" on="1"/>
        <pt x="620" y="520" on="1"/>
        <pt x="620" y="420" on="1"/>
      </contour>
      <contour>
        <pt x="-20" y="220" on="1"/>
        <pt x="-20" y="320" on="1"/>
        <pt x="620" y="320" on="1"/>
        <pt x="620" y="220" on="1"/>
      </contour>
    </TTGlyph>
    <TTGlyph name="SF460000" xMin="-20" yMin="320" xMax="620" yMax="1120">
      <contour>
        <pt x="-20" y="320" on="1"/>
        <pt x="-20" y="420" on="1"/>
        <pt x="150" y="420" on="1"/>
        <pt x="150" y="1120" on="1"/>
        <pt x="250" y="1120" on="1"/>
        <pt x="250" y="420" on="1"/>
        <pt x="350" y="420" on="1"/>
        <pt x="350" y="1120" on="1"/>
        <pt x="450" y="1120" on="1"/>
        <pt x="450" y="420" on="1"/>
        <pt x="620" y="420" on="1"/>
        <pt x="620" y="320" on="1"/>
      </contour>
    </TTGlyph>
    <TTGlyph name="SF470000" xMin="-20" yMin="-400" xMax="620" yMax="520">
      <contour>
        <pt x="-20" y="420" on="1"/>
        <pt x="-20" y="520" on="1"/>
        <pt x="620" y="520" on="1"/>
        <pt x="620" y="420" on="1"/>
      </contour>
      <contour>
        <pt x="250" y="-400" on="1"/>
        <pt x="250" y="220" on="1"/>
        <pt x="-20" y="220" on="1"/>
        <pt x="-20" y="320" on="1"/>
        <pt x="620" y="320" on="1"/>
        <pt x="620" y="220" on="1"/>
        <pt x="350" y="220" on="1"/>
        <pt x="350" y="-400" on="1"/>
      </contour>
    </TTGlyph>
    <TTGlyph name="SF480000" xMin="-20" yMin="-400" xMax="620" yMax="420">
      <contour>
        <pt x="150" y="-400" on="1"/>
        <pt x="150" y="320" on="1"/>
        <pt x="-20" y="320" on="1"/>
        <pt x="-20" y="420" on="1"/>
        <pt x="620" y="420" on="1"/>
        <pt x="620" y="320" on="1"/>
        <pt x="450" y="320" on="1"/>
        <pt x="450" y="-400" on="1"/>
        <pt x="350" y="-400" on="1"/>
        <pt x="350" y="320" on="1"/>
        <pt x="250" y="320" on="1"/>
        <pt x="250" y="-400" on="1"/>
      </contour>
    </TTGlyph>
    <TTGlyph name="SF490000" xMin="150" yMin="320" xMax="620" yMax="1120">
      <contour>
        <pt x="150" y="320" on="1"/>
        <pt x="150" y="1120" on="1"/>
        <pt x="250" y="1120" on="1"/>
        <pt x="250" y="420" on="1"/>
        <pt x="350" y="420" on="1"/>
        <pt x="350" y="1120" on="1"/>
        <pt x="450" y="1120" on="1"/>
        <pt x="450" y="420" on="1"/>
        <pt x="620" y="420" on="1"/>
        <pt x="620" y="320" on="1"/>
      </contour>
    </TTGlyph>
    <TTGlyph name="SF500000" xMin="250" yMin="220" xMax="620" yMax="1120">
      <contour>
        <pt x="250" y="220" on="1"/>
        <pt x="250" y="1120" on="1"/>
        <pt x="350" y="1120" on="1"/>
        <pt x="350" y="520" on="1"/>
        <pt x="620" y="520" on="1"/>
        <pt x="620" y="420" on="1"/>
        <pt x="350" y="420" on="1"/>
        <pt x="350" y="320" on="1"/>
        <pt x="620" y="320" on="1"/>
        <pt x="620" y="220" on="1"/>
      </contour>
    </TTGlyph>
    <TTGlyph name="SF510000" xMin="250" yMin="-400" xMax="620" yMax="520">
      <contour>
        <pt x="250" y="-400" on="1"/>
        <pt x="250" y="520" on="1"/>
        <pt x="620" y="520" on="1"/>
        <pt x="620" y="420" on="1"/>
        <pt x="350" y="420" on="1"/>
        <pt x="350" y="320" on="1"/>
        <pt x="620" y="320" on="1"/>
        <pt x="620" y="220" on="1"/>
        <pt x="350" y="220" on="1"/>
        <pt x="350" y="-400" on="1"/>
      </contour>
    </TTGlyph>
    <TTGlyph name="SF520000" xMin="150" yMin="-400" xMax="620" yMax="420">
      <contour>
        <pt x="150" y="-400" on="1"/>
        <pt x="150" y="420" on="1"/>
        <pt x="620" y="420" on="1"/>
        <pt x="620" y="320" on="1"/>
        <pt x="450" y="320" on="1"/>
        <pt x="450" y="-400" on="1"/>
        <pt x="350" y="-400" on="1"/>
        <pt x="350" y="320" on="1"/>
        <pt x="250" y="320" on="1"/>
        <pt x="250" y="-400" on="1"/>
      </contour>
    </TTGlyph>
    <TTGlyph name="SF530000" xMin="-20" yMin="-400" xMax="620" yMax="1120">
      <contour>
        <pt x="150" y="-400" on="1"/>
        <pt x="150" y="320" on="1"/>
        <pt x="-20" y="320" on="1"/>
        <pt x="-20" y="420" on="1"/>
        <pt x="150" y="420" on="1"/>
        <pt x="150" y="1120" on="1"/>
        <pt x="250" y="1120" on="1"/>
        <pt x="250" y="420" on="1"/>
        <pt x="350" y="420" on="1"/>
        <pt x="350" y="1120" on="1"/>
        <pt x="450" y="1120" on="1"/>
        <pt x="450" y="420" on="1"/>
        <pt x="620" y="420" on="1"/>
        <pt x="620" y="320" on="1"/>
        <pt x="450" y="320" on="1"/>
        <pt x="450" y="-400" on="1"/>
        <pt x="350" y="-400" on="1"/>
        <pt x="350" y="320" on="1"/>
        <pt x="250" y="320" on="1"/>
        <pt x="250" y="-400" on="1"/>
      </contour>
    </TTGlyph>
    <TTGlyph name="SF540000" xMin="-20" yMin="-400" xMax="620" yMax="1120">
      <contour>
        <pt x="250" y="-400" on="1"/>
        <pt x="250" y="220" on="1"/>
        <pt x="-20" y="220" on="1"/>
        <pt x="-20" y="320" on="1"/>
        <pt x="250" y="320" on="1"/>
        <pt x="250" y="420" on="1"/>
        <pt x="-20" y="420" on="1"/>
        <pt x="-20" y="520" on="1"/>
        <pt x="250" y="520" on="1"/>
        <pt x="250" y="1120" on="1"/>
        <pt x="350" y="1120" on="1"/>
        <pt x="350" y="520" on="1"/>
        <pt x="620" y="520" on="1"/>
        <pt x="620" y="420" on="1"/>
        <pt x="350" y="420" on="1"/>
        <pt x="350" y="320" on="1"/>
        <pt x="620" y="320" on="1"/>
        <pt x="620" y="220" on="1"/>
        <pt x="350" y="220" on="1"/>
        <pt x="350" y="-400" on="1"/>
      </contour>
    </TTGlyph>
    <TTGlyph name="T" xMin="60" yMin="-5" xMax="540" yMax="750">
      <contour>
        <pt x="300" y="-5" on="1"/>
        <pt x="282" y="-5" on="0"/>
        <pt x="255" y="21" on="0"/>
        <pt x="255" y="40" on="1"/>
        <pt x="255" y="636" on="1"/>
        <pt x="255" y="646" on="0"/>
        <pt x="241" y="660" on="0"/>
        <pt x="232" y="660" on="1"/>
        <pt x="105" y="660" on="1"/>
        <pt x="87" y="660" on="0"/>
        <pt x="60" y="686" on="0"/>
        <pt x="60" y="705" on="1"/>
        <pt x="60" y="724" on="0"/>
        <pt x="87" y="750" on="0"/>
        <pt x="105" y="750" on="1"/>
        <pt x="495" y="750" on="1"/>
        <pt x="514" y="750" on="0"/>
        <pt x="540" y="724" on="0"/>
        <pt x="540" y="705" on="1"/>
        <pt x="540" y="686" on="0"/>
        <pt x="514" y="660" on="0"/>
        <pt x="495" y="660" on="1"/>
        <pt x="369" y="660" on="1"/>
        <pt x="359" y="660" on="0"/>
        <pt x="345" y="646" on="0"/>
        <pt x="345" y="636" on="1"/>
        <pt x="345" y="40" on="1"/>
        <pt x="345" y="21" on="0"/>
        <pt x="319" y="-5" on="0"/>
      </contour>
    </TTGlyph>
    <TTGlyph name="U" xMin="78" yMin="-5" xMax="518" yMax="755">
      <contour>
        <pt x="298" y="-5" on="1"/>
        <pt x="208" y="-5" on="0"/>
        <pt x="78" y="121" on="0"/>
        <pt x="78" y="215" on="1"/>
        <pt x="78" y="710" on="1"/>
        <pt x="78" y="729" on="0"/>
        <pt x="105" y="755" on="0"/>
        <pt x="123" y="755" on="1"/>
        <pt x="142" y="755" on="0"/>
        <pt x="168" y="729" on="0"/>
        <pt x="168" y="710" on="1"/>
        <pt x="168" y="215" on="1"/>
        <pt x="168" y="161" on="0"/>
        <pt x="244" y="85" on="0"/>
        <pt x="298" y="85" on="1"/>
        <pt x="353" y="85" on="0"/>
        <pt x="428" y="161" on="0"/>
        <pt x="428" y="215" on="1"/>
        <pt x="428" y="710" on="1"/>
        <pt x="428" y="729" on="0"/>
        <pt x="455" y="755" on="0"/>
        <pt x="473" y="755" on="1"/>
        <pt x="492" y="755" on="0"/>
        <pt x="518" y="729" on="0"/>
        <pt x="518" y="710" on="1"/>
        <pt x="518" y="215" on="1"/>
        <pt x="518" y="121" on="0"/>
        <pt x="389" y="-5" on="0"/>
      </contour>
    </TTGlyph>
    <TTGlyph name="V" xMin="63" yMin="-5" xMax="537" yMax="755">
      <contour>
        <pt x="303" y="-5" on="1"/>
        <pt x="254" y="-5" on="0"/>
        <pt x="241" y="40" on="1"/>
        <pt x="65" y="698" on="1"/>
        <pt x="63" y="706" on="0"/>
        <pt x="63" y="713" on="1"/>
        <pt x="63" y="730" on="0"/>
        <pt x="91" y="755" on="0"/>
        <pt x="109" y="755" on="1"/>
        <pt x="124" y="755" on="0"/>
        <pt x="148" y="736" on="0"/>
        <pt x="152" y="721" on="1"/>
        <pt x="289" y="209" on="1"/>
        <pt x="293" y="201" on="0"/>
        <pt x="300" y="201" on="1"/>
        <pt x="308" y="201" on="0"/>
        <pt x="312" y="209" on="1"/>
        <pt x="448" y="721" on="1"/>
        <pt x="461" y="755" on="0"/>
        <pt x="492" y="755" on="1"/>
        <pt x="512" y="755" on="0"/>
        <pt x="537" y="727" on="0"/>
        <pt x="537" y="709" on="1"/>
        <pt x="537" y="706" on="0"/>
        <pt x="537" y="701" on="0"/>
        <pt x="360" y="40" on="1"/>
        <pt x="354" y="20" on="0"/>
        <pt x="323" y="-5" on="0"/>
      </contour>
    </TTGlyph>
    <TTGlyph name="W" xMin="53" yMin="-5" xMax="547" yMax="755">
      <contour>
        <pt x="458" y="-5" on="1"/>
        <pt x="441" y="-5" on="0"/>
        <pt x="413" y="15" on="0"/>
        <pt x="407" y="32" on="1"/>
        <pt x="312" y="339" on="1"/>
        <pt x="309" y="347" on="0"/>
        <pt x="301" y="347" on="1"/>
        <pt x="294" y="347" on="0"/>
        <pt x="290" y="339" on="1"/>
        <pt x="193" y="31" on="1"/>
        <pt x="177" y="-5" on="0"/>
        <pt x="142" y="-5" on="1"/>
        <pt x="120" y="-5" on="0"/>
        <pt x="89" y="24" on="0"/>
        <pt x="88" y="46" on="1"/>
        <pt x="53" y="713" on="1"/>
        <pt x="53" y="730" on="0"/>
        <pt x="80" y="755" on="0"/>
        <pt x="98" y="755" on="1"/>
        <pt x="116" y="755" on="0"/>
        <pt x="141" y="730" on="0"/>
        <pt x="142" y="712" on="1"/>
        <pt x="164" y="253" on="1"/>
        <pt x="164" y="242" on="0"/>
        <pt x="175" y="242" on="1"/>
        <pt x="183" y="242" on="0"/>
        <pt x="186" y="250" on="1"/>
        <pt x="252" y="476" on="1"/>
        <pt x="257" y="491" on="0"/>
        <pt x="285" y="510" on="0"/>
        <pt x="301" y="510" on="1"/>
        <pt x="318" y="510" on="0"/>
        <pt x="344" y="491" on="0"/>
        <pt x="349" y="475" on="1"/>
        <pt x="413" y="252" on="1"/>
        <pt x="416" y="244" on="0"/>
        <pt x="424" y="244" on="1"/>
        <pt x="429" y="244" on="0"/>
        <pt x="436" y="250" on="0"/>
        <pt x="436" y="255" on="1"/>
        <pt x="457" y="712" on="1"/>
        <pt x="458" y="730" on="0"/>
        <pt x="484" y="755" on="0"/>
        <pt x="502" y="755" on="1"/>
        <pt x="520" y="755" on="0"/>
        <pt x="547" y="729" on="0"/>
        <pt x="547" y="712" on="1"/>
        <pt x="512" y="46" on="1"/>
        <pt x="511" y="24" on="0"/>
        <pt x="480" y="-5" on="0"/>
      </contour>
    </TTGlyph>
    <TTGlyph name="X" xMin="70" yMin="-5" xMax="530" yMax="756">
      <contour>
        <pt x="486" y="-5" on="1"/>
        <pt x="461" y="-5" on="0"/>
        <pt x="446" y="18" on="1"/>
        <pt x="311" y="273" on="1"/>
        <pt x="307" y="279" on="0"/>
        <pt x="301" y="279" on="1"/>
        <pt x="295" y="279" on="0"/>
        <pt x="291" y="273" on="1"/>
        <pt x="155" y="18" on="1"/>
        <pt x="140" y="-5" on="0"/>
        <pt x="116" y="-5" on="1"/>
        <pt x="96" y="-5" on="0"/>
        <pt x="70" y="21" on="0"/>
        <pt x="70" y="39" on="1"/>
        <pt x="70" y="50" on="0"/>
        <pt x="76" y="61" on="1"/>
        <pt x="243" y="375" on="1"/>
        <pt x="246" y="381" on="0"/>
        <pt x="246" y="387" on="1"/>
        <pt x="246" y="393" on="0"/>
        <pt x="243" y="398" on="1"/>
        <pt x="88" y="689" on="1"/>
        <pt x="83" y="700" on="0"/>
        <pt x="83" y="711" on="1"/>
        <pt x="83" y="728" on="0"/>
        <pt x="107" y="756" on="0"/>
        <pt x="127" y="756" on="1"/>
        <pt x="154" y="756" on="0"/>
        <pt x="168" y="732" on="1"/>
        <pt x="291" y="500" on="1"/>
        <pt x="295" y="493" on="0"/>
        <pt x="301" y="493" on="1"/>
        <pt x="307" y="493" on="0"/>
        <pt x="311" y="500" on="1"/>
        <pt x="434" y="732" on="1"/>
        <pt x="449" y="756" on="0"/>
        <pt x="474" y="756" on="1"/>
        <pt x="494" y="756" on="0"/>
        <pt x="518" y="728" on="0"/>
        <pt x="518" y="711" on="1"/>
        <pt x="518" y="700" on="0"/>
        <pt x="513" y="689" on="1"/>
        <pt x="358" y="398" on="1"/>
        <pt x="355" y="393" on="0"/>
        <pt x="355" y="387" on="1"/>
        <pt x="355" y="381" on="0"/>
        <pt x="358" y="375" on="1"/>
        <pt x="525" y="61" on="1"/>
        <pt x="530" y="50" on="0"/>
        <pt x="530" y="39" on="1"/>
        <pt x="530" y="22" on="0"/>
        <pt x="506" y="-5" on="0"/>
      </contour>
    </TTGlyph>
    <TTGlyph name="Y" xMin="80" yMin="-5" xMax="520" yMax="755">
      <contour>
        <pt x="301" y="-5" on="1"/>
        <pt x="282" y="-5" on="0"/>
        <pt x="256" y="21" on="0"/>
        <pt x="256" y="40" on="1"/>
        <pt x="256" y="373" on="1"/>
        <pt x="256" y="387" on="0"/>
        <pt x="250" y="397" on="1"/>
        <pt x="86" y="688" on="1"/>
        <pt x="80" y="699" on="0"/>
        <pt x="80" y="711" on="1"/>
        <pt x="80" y="728" on="0"/>
        <pt x="105" y="755" on="0"/>
        <pt x="124" y="755" on="1"/>
        <pt x="149" y="755" on="0"/>
        <pt x="164" y="733" on="1"/>
        <pt x="281" y="523" on="1"/>
        <pt x="289" y="512" on="0"/>
        <pt x="301" y="512" on="1"/>
        <pt x="313" y="512" on="0"/>
        <pt x="321" y="523" on="1"/>
        <pt x="437" y="733" on="1"/>
        <pt x="452" y="755" on="0"/>
        <pt x="476" y="755" on="1"/>
        <pt x="495" y="755" on="0"/>
        <pt x="520" y="728" on="0"/>
        <pt x="520" y="710" on="1"/>
        <pt x="520" y="699" on="0"/>
        <pt x="514" y="688" on="1"/>
        <pt x="352" y="398" on="1"/>
        <pt x="346" y="387" on="0"/>
        <pt x="346" y="376" on="1"/>
        <pt x="346" y="40" on="1"/>
        <pt x="346" y="21" on="0"/>
        <pt x="320" y="-5" on="0"/>
      </contour>
    </TTGlyph>
    <TTGlyph name="Z" xMin="80" yMin="0" xMax="520" yMax="750">
      <contour>
        <pt x="475" y="0" on="1"/>
        <pt x="151" y="0" on="1"/>
        <pt x="122" y="0" on="0"/>
        <pt x="80" y="42" on="0"/>
        <pt x="80" y="71" on="1"/>
        <pt x="80" y="91" on="0"/>
        <pt x="90" y="107" on="1"/>
        <pt x="395" y="625" on="1"/>
        <pt x="398" y="631" on="0"/>
        <pt x="398" y="637" on="1"/>
        <pt x="398" y="646" on="0"/>
        <pt x="385" y="660" on="0"/>
        <pt x="374" y="660" on="1"/>
        <pt x="125" y="660" on="1"/>
        <pt x="107" y="660" on="0"/>
        <pt x="80" y="686" on="0"/>
        <pt x="80" y="705" on="1"/>
        <pt x="80" y="724" on="0"/>
        <pt x="107" y="750" on="0"/>
        <pt x="125" y="750" on="1"/>
        <pt x="450" y="750" on="1"/>
        <pt x="479" y="750" on="0"/>
        <pt x="520" y="709" on="0"/>
        <pt x="520" y="680" on="1"/>
        <pt x="520" y="661" on="0"/>
        <pt x="511" y="644" on="1"/>
        <pt x="206" y="126" on="1"/>
        <pt x="203" y="120" on="0"/>
        <pt x="203" y="114" on="1"/>
        <pt x="203" y="105" on="0"/>
        <pt x="216" y="90" on="0"/>
        <pt x="226" y="90" on="1"/>
        <pt x="475" y="90" on="1"/>
        <pt x="494" y="90" on="0"/>
        <pt x="520" y="64" on="0"/>
        <pt x="520" y="45" on="1"/>
        <pt x="520" y="26" on="0"/>
        <pt x="494" y="0" on="0"/>
      </contour>
    </TTGlyph>
    <TTGlyph name="a" xMin="66" yMin="-5" xMax="530" yMax="555">
      <contour>
        <pt x="237" y="90" on="1"/>
        <pt x="312" y="91" on="0"/>
        <pt x="362" y="160" on="1"/>
        <pt x="406" y="224" on="0"/>
        <pt x="406" y="335" on="1"/>
        <pt x="406" y="372" on="0"/>
        <pt x="388" y="405" on="1"/>
        <pt x="361" y="454" on="0"/>
        <pt x="317" y="454" on="1"/>
        <pt x="281" y="454" on="0"/>
        <pt x="210" y="395" on="0"/>
        <pt x="158" y="288" on="0"/>
        <pt x="156" y="217" on="1"/>
        <pt x="156" y="90" on="0"/>
      </contour>
      <contour>
        <pt x="489" y="-5" on="1"/>
        <pt x="451" y="-5" on="0"/>
        <pt x="430" y="74" on="1"/>
        <pt x="424" y="96" on="0"/>
        <pt x="416" y="96" on="1"/>
        <pt x="408" y="96" on="0"/>
        <pt x="404" y="88" on="1"/>
        <pt x="388" y="57" on="0"/>
        <pt x="287" y="-5" on="0"/>
        <pt x="232" y="-5" on="1"/>
        <pt x="159" y="-5" on="0"/>
        <pt x="66" y="105" on="0"/>
        <pt x="66" y="212" on="1"/>
        <pt x="66" y="304" on="0"/>
        <pt x="139" y="457" on="0"/>
        <pt x="250" y="555" on="0"/>
        <pt x="316" y="555" on="1"/>
        <pt x="362" y="554" on="0"/>
        <pt x="396" y="514" on="1"/>
        <pt x="401" y="508" on="0"/>
        <pt x="408" y="508" on="1"/>
        <pt x="417" y="508" on="0"/>
        <pt x="419" y="520" on="1"/>
        <pt x="425" y="555" on="0"/>
        <pt x="462" y="555" on="1"/>
        <pt x="479" y="555" on="0"/>
        <pt x="495" y="541" on="1"/>
        <pt x="506" y="531" on="0"/>
        <pt x="506" y="517" on="1"/>
        <pt x="506" y="513" on="1"/>
        <pt x="492" y="400" on="0"/>
        <pt x="492" y="231" on="1"/>
        <pt x="493" y="100" on="0"/>
        <pt x="526" y="53" on="1"/>
        <pt x="530" y="47" on="0"/>
        <pt x="530" y="37" on="1"/>
        <pt x="530" y="15" on="0"/>
        <pt x="514" y="2" on="1"/>
        <pt x="505" y="-5" on="0"/>
      </contour>
    </TTGlyph>
    <TTGlyph name="ampersand" xMin="63" yMin="-5" xMax="562" yMax="755">
      <contour>
        <pt x="345" y="232" on="1"/>
        <pt x="183" y="410" on="1"/>
        <pt x="96" y="498" on="0"/>
        <pt x="96" y="582" on="1"/>
        <pt x="96" y="658" on="0"/>
        <pt x="201" y="755" on="0"/>
        <pt x="271" y="755" on="1"/>
        <pt x="323" y="755" on="0"/>
        <pt x="413" y="700" on="0"/>
        <pt x="434" y="645" on="1"/>
        <pt x="439" y="632" on="0"/>
        <pt x="439" y="626" on="1"/>
        <pt x="439" y="608" on="0"/>
        <pt x="414" y="581" on="0"/>
        <pt x="396" y="581" on="1"/>
        <pt x="363" y="581" on="0"/>
        <pt x="338" y="636" on="0"/>
        <pt x="295" y="661" on="0"/>
        <pt x="269" y="661" on="1"/>
        <pt x="233" y="661" on="0"/>
        <pt x="191" y="615" on="0"/>
        <pt x="191" y="583" on="1"/>
        <pt x="191" y="531" on="0"/>
        <pt x="254" y="464" on="1"/>
        <pt x="397" y="311" on="1"/>
        <pt x="378" y="261" on="0"/>
      </contour>
      <contour>
        <pt x="255" y="-5" on="1"/>
        <pt x="163" y="-5" on="0"/>
        <pt x="63" y="113" on="0"/>
        <pt x="63" y="200" on="1"/>
        <pt x="63" y="307" on="0"/>
        <pt x="111" y="378" on="1"/>
        <pt x="140" y="345" on="0"/>
        <pt x="176" y="313" on="1"/>
        <pt x="155" y="263" on="0"/>
        <pt x="155" y="200" on="1"/>
        <pt x="155" y="93" on="0"/>
        <pt x="255" y="93" on="1"/>
        <pt x="325" y="93" on="0"/>
        <pt x="388" y="166" on="1"/>
        <pt x="439" y="229" on="0"/>
        <pt x="457" y="313" on="1"/>
        <pt x="466" y="358" on="0"/>
        <pt x="503" y="358" on="1"/>
        <pt x="523" y="358" on="0"/>
        <pt x="546" y="333" on="0"/>
        <pt x="546" y="318" on="1"/>
        <pt x="546" y="261" on="0"/>
        <pt x="461" y="94" on="0"/>
        <pt x="325" y="-5" on="0"/>
      </contour>
      <contour>
        <pt x="518" y="-5" on="1"/>
        <pt x="484" y="-5" on="0"/>
        <pt x="482" y="36" on="1"/>
        <pt x="512" y="65" on="0"/>
        <pt x="537" y="113" on="1"/>
        <pt x="562" y="67" on="0"/>
        <pt x="562" y="42" on="1"/>
        <pt x="562" y="22" on="0"/>
        <pt x="537" y="-5" on="0"/>
      </contour>
    </TTGlyph>
    <TTGlyph name="arrow" xMin="131" yMin="4" xMax="482" yMax="609">
      <contour>
        <pt x="178" y="4" on="1"/>
        <pt x="157" y="4" on="0"/>
        <pt x="131" y="31" on="0"/>
        <pt x="131" y="51" on="1"/>
        <pt x="131" y="67" on="0"/>
        <pt x="142" y="79" on="1"/>
        <pt x="356" y="293" on="1"/>
        <pt x="363" y="301" on="0"/>
        <pt x="363" y="310" on="1"/>
        <pt x="363" y="319" on="0"/>
        <pt x="356" y="326" on="1"/>
        <pt x="148" y="534" on="1"/>
        <pt x="137" y="546" on="0"/>
        <pt x="137" y="562" on="1"/>
        <pt x="137" y="580" on="0"/>
        <pt x="166" y="609" on="0"/>
        <pt x="185" y="609" on="1"/>
        <pt x="200" y="609" on="0"/>
        <pt x="211" y="598" on="1"/>
        <pt x="471" y="338" on="1"/>
        <pt x="482" y="325" on="0"/>
        <pt x="482" y="310" on="1"/>
        <pt x="482" y="293" on="0"/>
        <pt x="471" y="281" on="1"/>
        <pt x="205" y="16" on="1"/>
        <pt x="193" y="4" on="0"/>
      </contour>
    </TTGlyph>
    <TTGlyph name="asciicircum" xMin="60" yMin="310" xMax="540" yMax="668">
      <contour>
        <pt x="496" y="310" on="1"/>
        <pt x="472" y="310" on="0"/>
        <pt x="456" y="333" on="1"/>
        <pt x="313" y="528" on="1"/>
        <pt x="307" y="536" on="0"/>
        <pt x="300" y="536" on="1"/>
        <pt x="292" y="536" on="0"/>
        <pt x="286" y="528" on="1"/>
        <pt x="144" y="332" on="1"/>
        <pt x="128" y="310" on="0"/>
        <pt x="105" y="310" on="1"/>
        <pt x="93" y="310" on="0"/>
        <pt x="81" y="317" on="1"/>
        <pt x="60" y="333" on="0"/>
        <pt x="60" y="355" on="1"/>
        <pt x="60" y="367" on="0"/>
        <pt x="66" y="378" on="1"/>
        <pt x="260" y="645" on="1"/>
        <pt x="277" y="668" on="0"/>
        <pt x="301" y="668" on="1"/>
        <pt x="324" y="668" on="0"/>
        <pt x="340" y="645" on="1"/>
        <pt x="534" y="377" on="1"/>
        <pt x="540" y="366" on="0"/>
        <pt x="540" y="354" on="1"/>
        <pt x="540" y="331" on="0"/>
        <pt x="516" y="315" on="1"/>
        <pt x="506" y="310" on="0"/>
      </contour>
    </TTGlyph>
    <TTGlyph name="asciitilde" xMin="60" yMin="200" xMax="540" yMax="422">
      <contour>
        <pt x="407" y="200" on="1"/>
        <pt x="348" y="200" on="0"/>
        <pt x="283" y="267" on="1"/>
        <pt x="224" y="329" on="0"/>
        <pt x="193" y="329" on="1"/>
        <pt x="147" y="329" on="0"/>
        <pt x="143" y="272" on="1"/>
        <pt x="142" y="253" on="0"/>
        <pt x="119" y="231" on="0"/>
        <pt x="100" y="231" on="1"/>
        <pt x="82" y="231" on="0"/>
        <pt x="60" y="256" on="0"/>
        <pt x="60" y="277" on="1"/>
        <pt x="60" y="327" on="0"/>
        <pt x="92" y="371" on="1"/>
        <pt x="130" y="422" on="0"/>
        <pt x="196" y="422" on="1"/>
        <pt x="258" y="422" on="0"/>
        <pt x="320" y="355" on="1"/>
        <pt x="354" y="319" on="0"/>
        <pt x="378" y="302" on="1"/>
        <pt x="389" y="294" on="0"/>
        <pt x="409" y="294" on="1"/>
        <pt x="448" y="294" on="0"/>
        <pt x="456" y="351" on="1"/>
        <pt x="459" y="371" on="0"/>
        <pt x="481" y="391" on="0"/>
        <pt x="498" y="391" on="1"/>
        <pt x="519" y="391" on="0"/>
        <pt x="540" y="363" on="0"/>
        <pt x="540" y="345" on="1"/>
        <pt x="540" y="296" on="0"/>
        <pt x="507" y="250" on="1"/>
        <pt x="470" y="200" on="0"/>
      </contour>
    </TTGlyph>
    <TTGlyph name="asterisk" xMin="85" yMin="61" xMax="513" yMax="560">
      <contour>
        <pt x="299" y="61" on="1"/>
        <pt x="280" y="61" on="0"/>
        <pt x="254" y="87" on="0"/>
        <pt x="254" y="106" on="1"/>
        <pt x="254" y="232" on="1"/>
        <pt x="153" y="174" on="1"/>
        <pt x="142" y="168" on="0"/>
        <pt x="130" y="168" on="1"/>
        <pt x="107" y="168" on="0"/>
        <pt x="91" y="190" on="1"/>
        <pt x="85" y="201" on="0"/>
        <pt x="85" y="213" on="1"/>
        <pt x="85" y="237" on="0"/>
        <pt x="108" y="252" on="1"/>
        <pt x="209" y="310" on="1"/>
        <pt x="108" y="369" on="1"/>
        <pt x="85" y="385" on="0"/>
        <pt x="85" y="408" on="1"/>
        <pt x="85" y="419" on="0"/>
        <pt x="91" y="430" on="1"/>
        <pt x="107" y="453" on="0"/>
        <pt x="130" y="453" on="1"/>
        <pt x="142" y="453" on="0"/>
        <pt x="153" y="447" on="1"/>
        <pt x="254" y="388" on="1"/>
        <pt x="254" y="515" on="1"/>
        <pt x="254" y="534" on="0"/>
        <pt x="280" y="560" on="0"/>
        <pt x="299" y="560" on="1"/>
        <pt x="318" y="560" on="0"/>
        <pt x="344" y="534" on="0"/>
        <pt x="344" y="515" on="1"/>
        <pt x="344" y="388" on="1"/>
        <pt x="445" y="447" on="1"/>
        <pt x="456" y="453" on="0"/>
        <pt x="468" y="453" on="1"/>
        <pt x="491" y="453" on="0"/>
        <pt x="507" y="430" on="1"/>
        <pt x="513" y="419" on="0"/>
        <pt x="513" y="408" on="1"/>
        <pt x="513" y="385" on="0"/>
        <pt x="490" y="369" on="1"/>
        <pt x="389" y="310" on="1"/>
        <pt x="490" y="252" on="1"/>
        <pt x="513" y="237" on="0"/>
        <pt x="513" y="213" on="1"/>
        <pt x="513" y="201" on="0"/>
        <pt x="507" y="190" on="1"/>
        <pt x="491" y="168" on="0"/>
        <pt x="468" y="168" on="1"/>
        <pt x="456" y="168" on="0"/>
        <pt x="445" y="174" on="1"/>
        <pt x="344" y="232" on="1"/>
        <pt x="344" y="106" on="1"/>
        <pt x="344" y="87" on="0"/>
        <pt x="318" y="61" on="0"/>
      </contour>
    </TTGlyph>
    <TTGlyph name="at" xMin="20" yMin="-5" xMax="582" yMax="755">
      <contour>
        <pt x="431" y="-5" on="1"/>
        <pt x="344" y="-5" on="0"/>
        <pt x="331" y="93" on="1"/>
        <pt x="324" y="148" on="0"/>
        <pt x="323" y="202" on="1"/>
        <pt x="322" y="341" on="1"/>
        <pt x="322" y="372" on="0"/>
        <pt x="294" y="420" on="0"/>
        <pt x="266" y="420" on="1"/>
        <pt x="229" y="420" on="0"/>
        <pt x="179" y="368" on="0"/>
        <pt x="146" y="285" on="0"/>
        <pt x="145" y="220" on="1"/>
        <pt x="145" y="78" on="0"/>
        <pt x="203" y="78" on="1"/>
        <pt x="219" y="78" on="0"/>
        <pt x="229" y="88" on="1"/>
        <pt x="240" y="99" on="0"/>
        <pt x="259" y="99" on="1"/>
        <pt x="273" y="99" on="0"/>
        <pt x="291" y="78" on="0"/>
        <pt x="291" y="66" on="1"/>
        <pt x="291" y="53" on="0"/>
        <pt x="281" y="38" on="1"/>
        <pt x="252" y="-5" on="0"/>
        <pt x="184" y="-5" on="1"/>
        <pt x="63" y="-5" on="0"/>
        <pt x="63" y="215" on="1"/>
        <pt x="63" y="285" on="0"/>
        <pt x="88" y="355" on="1"/>
        <pt x="144" y="513" on="0"/>
        <pt x="262" y="514" on="1"/>
        <pt x="335" y="513" on="0"/>
        <pt x="401" y="423" on="0"/>
        <pt x="401" y="360" on="1"/>
        <pt x="404" y="215" on="1"/>
        <pt x="404" y="85" on="0"/>
        <pt x="442" y="85" on="1"/>
        <pt x="470" y="85" on="0"/>
        <pt x="502" y="126" on="1"/>
        <pt x="511" y="138" on="0"/>
        <pt x="530" y="138" on="1"/>
        <pt x="536" y="138" on="0"/>
        <pt x="542" y="136" on="1"/>
        <pt x="568" y="124" on="0"/>
        <pt x="568" y="100" on="1"/>
        <pt x="568" y="52" on="0"/>
        <pt x="489" y="6" on="1"/>
        <pt x="469" y="-5" on="0"/>
      </contour>
      <contour>
        <pt x="544" y="248" on="1"/>
        <pt x="497" y="248" on="0"/>
        <pt x="494" y="307" on="1"/>
        <pt x="490" y="377" on="1"/>
        <pt x="476" y="655" on="0"/>
        <pt x="264" y="655" on="1"/>
        <pt x="224" y="655" on="0"/>
        <pt x="145" y="615" on="0"/>
        <pt x="93" y="554" on="1"/>
        <pt x="82" y="541" on="0"/>
        <pt x="63" y="541" on="1"/>
        <pt x="47" y="541" on="0"/>
        <pt x="20" y="568" on="0"/>
        <pt x="20" y="595" on="1"/>
        <pt x="20" y="613" on="0"/>
        <pt x="28" y="625" on="1"/>
        <pt x="118" y="754" on="0"/>
        <pt x="276" y="755" on="1"/>
        <pt x="402" y="755" on="0"/>
        <pt x="493" y="651" on="1"/>
        <pt x="564" y="572" on="0"/>
        <pt x="576" y="433" on="1"/>
        <pt x="582" y="366" on="0"/>
        <pt x="582" y="297" on="1"/>
        <pt x="581" y="248" on="0"/>
      </contour>
    </TTGlyph>
    <TTGlyph name="b" xMin="90" yMin="-5" xMax="524" yMax="800">
      <contour>
        <pt x="310" y="85" on="1"/>
        <pt x="430" y="88" on="0"/>
        <pt x="434" y="266" on="1"/>
        <pt x="434" y="357" on="0"/>
        <pt x="365" y="449" on="0"/>
        <pt x="312" y="449" on="1"/>
        <pt x="257" y="449" on="0"/>
        <pt x="220" y="410" on="1"/>
        <pt x="180" y="366" on="0"/>
        <pt x="180" y="318" on="1"/>
        <pt x="180" y="218" on="1"/>
        <pt x="180" y="157" on="0"/>
        <pt x="261" y="85" on="0"/>
        <pt x="304" y="85" on="1"/>
      </contour>
      <contour>
        <pt x="327" y="-5" on="1"/>
        <pt x="250" y="-5" on="0"/>
        <pt x="202" y="44" on="1"/>
        <pt x="197" y="50" on="0"/>
        <pt x="190" y="50" on="1"/>
        <pt x="180" y="50" on="0"/>
        <pt x="177" y="31" on="1"/>
        <pt x="171" y="-5" on="0"/>
        <pt x="134" y="-5" on="1"/>
        <pt x="115" y="-5" on="0"/>
        <pt x="90" y="20" on="0"/>
        <pt x="90" y="41" on="1"/>
        <pt x="90" y="753" on="1"/>
        <pt x="90" y="773" on="0"/>
        <pt x="118" y="800" on="0"/>
        <pt x="136" y="800" on="1"/>
        <pt x="153" y="800" on="0"/>
        <pt x="180" y="773" on="0"/>
        <pt x="180" y="753" on="1"/>
        <pt x="180" y="532" on="1"/>
        <pt x="180" y="522" on="0"/>
        <pt x="188" y="511" on="0"/>
        <pt x="197" y="511" on="1"/>
        <pt x="207" y="511" on="0"/>
        <pt x="217" y="520" on="1"/>
        <pt x="261" y="555" on="0"/>
        <pt x="326" y="555" on="1"/>
        <pt x="412" y="555" on="0"/>
        <pt x="524" y="405" on="0"/>
        <pt x="524" y="282" on="1"/>
        <pt x="523" y="142" on="0"/>
        <pt x="426" y="-5" on="0"/>
      </contour>
    </TTGlyph>
    <TTGlyph name="backslash" xMin="57" yMin="-150" xMax="542" yMax="850">
      <contour>
        <pt x="496" y="-150" on="1"/>
        <pt x="470" y="-150" on="0"/>
        <pt x="455" y="-123" on="1"/>
        <pt x="61" y="787" on="1"/>
        <pt x="57" y="796" on="0"/>
        <pt x="57" y="805" on="1"/>
        <pt x="57" y="831" on="0"/>
        <pt x="84" y="846" on="1"/>
        <pt x="93" y="850" on="0"/>
        <pt x="103" y="850" on="1"/>
        <pt x="129" y="850" on="0"/>
        <pt x="144" y="823" on="1"/>
        <pt x="538" y="-87" on="1"/>
        <pt x="542" y="-96" on="0"/>
        <pt x="542" y="-105" on="1"/>
        <pt x="542" y="-131" on="0"/>
        <pt x="514" y="-146" on="1"/>
        <pt x="505" y="-150" on="0"/>
      </contour>
    </TTGlyph>
    <TTGlyph name="bar" xMin="255" yMin="-120" xMax="345" yMax="800">
      <contour>
        <pt x="300" y="-120" on="1"/>
        <pt x="281" y="-120" on="0"/>
        <pt x="255" y="-94" on="0"/>
        <pt x="255" y="-75" on="1"/>
        <pt x="255" y="755" on="1"/>
        <pt x="255" y="773" on="0"/>
        <pt x="281" y="800" on="0"/>
        <pt x="300" y="800" on="1"/>
        <pt x="318" y="800" on="0"/>
        <pt x="345" y="773" on="0"/>
        <pt x="345" y="755" on="1"/>
        <pt x="345" y="-75" on="1"/>
        <pt x="345" y="-94" on="0"/>
        <pt x="318" y="-120" on="0"/>
      </contour>
    </TTGlyph>
    <TTGlyph name="bar_bar" xMin="-195" yMin="-120" xMax="195" yMax="800">
      <contour>
        <pt x="150" y="-120" on="1"/>
        <pt x="131" y="-120" on="0"/>
        <pt x="105" y="-94" on="0"/>
        <pt x="105" y="-75" on="1"/>
        <pt x="105" y="755" on="1"/>
        <pt x="105" y="773" on="0"/>
        <pt x="131" y="800" on="0"/>
        <pt x="150" y="800" on="1"/>
        <pt x="168" y="800" on="0"/>
        <pt x="195" y="773" on="0"/>
        <pt x="195" y="755" on="1"/>
        <pt x="195" y="-75" on="1"/>
        <pt x="195" y="-94" on="0"/>
        <pt x="168" y="-120" on="0"/>
      </contour>
      <contour>
        <pt x="-150" y="-120" on="1"/>
        <pt x="-169" y="-120" on="0"/>
        <pt x="-195" y="-94" on="0"/>
        <pt x="-195" y="-75" on="1"/>
        <pt x="-195" y="755" on="1"/>
        <pt x="-195" y="773" on="0"/>
        <pt x="-169" y="800" on="0"/>
        <pt x="-150" y="800" on="1"/>
        <pt x="-132" y="800" on="0"/>
        <pt x="-105" y="773" on="0"/>
        <pt x="-105" y="755" on="1"/>
        <pt x="-105" y="-75" on="1"/>
        <pt x="-105" y="-94" on="0"/>
        <pt x="-132" y="-120" on="0"/>
      </contour>
    </TTGlyph>
    <TTGlyph name="braceleft" xMin="96" yMin="-165" xMax="505" yMax="849">
      <contour>
        <pt x="462" y="-165" on="1"/>
        <pt x="419" y="-165" on="1"/>
        <pt x="386" y="-165" on="0"/>
        <pt x="346" y="-162" on="0"/>
        <pt x="296" y="-147" on="0"/>
        <pt x="277" y="-131" on="1"/>
        <pt x="212" y="-82" on="0"/>
        <pt x="212" y="14" on="1"/>
        <pt x="212" y="35" on="0"/>
        <pt x="217" y="216" on="0"/>
        <pt x="217" y="231" on="1"/>
        <pt x="217" y="294" on="0"/>
        <pt x="189" y="321" on="1"/>
        <pt x="170" y="340" on="0"/>
        <pt x="143" y="340" on="1"/>
        <pt x="96" y="340" on="0"/>
        <pt x="96" y="381" on="1"/>
        <pt x="96" y="402" on="0"/>
        <pt x="119" y="425" on="0"/>
        <pt x="153" y="425" on="0"/>
        <pt x="180" y="434" on="0"/>
        <pt x="193" y="447" on="1"/>
        <pt x="220" y="475" on="0"/>
        <pt x="220" y="540" on="1"/>
        <pt x="220" y="552" on="0"/>
        <pt x="217" y="625" on="0"/>
        <pt x="217" y="639" on="1"/>
        <pt x="217" y="751" on="0"/>
        <pt x="273" y="803" on="1"/>
        <pt x="322" y="849" on="0"/>
        <pt x="436" y="849" on="1"/>
        <pt x="463" y="849" on="1"/>
        <pt x="479" y="849" on="0"/>
        <pt x="505" y="824" on="0"/>
        <pt x="505" y="805" on="1"/>
        <pt x="505" y="785" on="0"/>
        <pt x="480" y="760" on="0"/>
        <pt x="463" y="760" on="1"/>
        <pt x="412" y="761" on="1"/>
        <pt x="372" y="761" on="0"/>
        <pt x="349" y="747" on="1"/>
        <pt x="309" y="722" on="0"/>
        <pt x="309" y="651" on="1"/>
        <pt x="309" y="638" on="0"/>
        <pt x="312" y="564" on="0"/>
        <pt x="312" y="549" on="1"/>
        <pt x="312" y="491" on="0"/>
        <pt x="293" y="453" on="1"/>
        <pt x="278" y="421" on="0"/>
        <pt x="260" y="403" on="1"/>
        <pt x="254" y="394" on="0"/>
        <pt x="254" y="385" on="1"/>
        <pt x="254" y="374" on="0"/>
        <pt x="262" y="365" on="1"/>
        <pt x="310" y="325" on="0"/>
        <pt x="310" y="217" on="1"/>
        <pt x="308" y="58" on="1"/>
        <pt x="306" y="27" on="0"/>
        <pt x="306" y="15" on="1"/>
        <pt x="306" y="-33" on="0"/>
        <pt x="348" y="-61" on="1"/>
        <pt x="374" y="-79" on="0"/>
        <pt x="431" y="-79" on="1"/>
        <pt x="462" y="-79" on="1"/>
        <pt x="478" y="-79" on="0"/>
        <pt x="502" y="-103" on="0"/>
        <pt x="502" y="-121" on="1"/>
        <pt x="502" y="-143" on="0"/>
        <pt x="478" y="-165" on="0"/>
      </contour>
    </TTGlyph>
    <TTGlyph name="braceright" xMin="96" yMin="-165" xMax="505" yMax="849">
      <contour>
        <pt x="139" y="-165" on="1"/>
        <pt x="123" y="-165" on="0"/>
        <pt x="99" y="-143" on="0"/>
        <pt x="99" y="-121" on="1"/>
        <pt x="99" y="-103" on="0"/>
        <pt x="123" y="-79" on="0"/>
        <pt x="139" y="-79" on="1"/>
        <pt x="170" y="-79" on="1"/>
        <pt x="227" y="-79" on="0"/>
        <pt x="253" y="-61" on="1"/>
        <pt x="295" y="-33" on="0"/>
        <pt x="295" y="15" on="1"/>
        <pt x="295" y="27" on="0"/>
        <pt x="293" y="58" on="1"/>
        <pt x="291" y="217" on="1"/>
        <pt x="291" y="325" on="0"/>
        <pt x="339" y="365" on="1"/>
        <pt x="347" y="374" on="0"/>
        <pt x="347" y="385" on="1"/>
        <pt x="347" y="394" on="0"/>
        <pt x="341" y="403" on="1"/>
        <pt x="323" y="421" on="0"/>
        <pt x="308" y="453" on="1"/>
        <pt x="289" y="491" on="0"/>
        <pt x="289" y="549" on="1"/>
        <pt x="289" y="564" on="0"/>
        <pt x="292" y="638" on="0"/>
        <pt x="292" y="651" on="1"/>
        <pt x="292" y="722" on="0"/>
        <pt x="252" y="747" on="1"/>
        <pt x="229" y="761" on="0"/>
        <pt x="189" y="761" on="1"/>
        <pt x="138" y="760" on="1"/>
        <pt x="121" y="760" on="0"/>
        <pt x="96" y="785" on="0"/>
        <pt x="96" y="805" on="1"/>
        <pt x="96" y="824" on="0"/>
        <pt x="122" y="849" on="0"/>
        <pt x="138" y="849" on="1"/>
        <pt x="165" y="849" on="1"/>
        <pt x="279" y="849" on="0"/>
        <pt x="328" y="803" on="1"/>
        <pt x="384" y="751" on="0"/>
        <pt x="384" y="639" on="1"/>
        <pt x="384" y="625" on="0"/>
        <pt x="381" y="552" on="0"/>
        <pt x="381" y="540" on="1"/>
        <pt x="381" y="475" on="0"/>
        <pt x="408" y="447" on="1"/>
        <pt x="421" y="434" on="0"/>
        <pt x="448" y="425" on="0"/>
        <pt x="482" y="425" on="0"/>
        <pt x="505" y="402" on="0"/>
        <pt x="505" y="381" on="1"/>
        <pt x="505" y="340" on="0"/>
        <pt x="458" y="340" on="1"/>
        <pt x="431" y="340" on="0"/>
        <pt x="412" y="321" on="1"/>
        <pt x="384" y="294" on="0"/>
        <pt x="384" y="231" on="1"/>
        <pt x="384" y="216" on="0"/>
        <pt x="389" y="35" on="0"/>
        <pt x="389" y="14" on="1"/>
        <pt x="389" y="-82" on="0"/>
        <pt x="324" y="-131" on="1"/>
        <pt x="305" y="-147" on="0"/>
        <pt x="255" y="-162" on="0"/>
        <pt x="215" y="-165" on="0"/>
        <pt x="182" y="-165" on="1"/>
      </contour>
    </TTGlyph>
    <TTGlyph name="bracketleft" xMin="154" yMin="-166" xMax="462" yMax="848">
      <contour>
        <pt x="417" y="-166" on="1"/>
        <pt x="201" y="-166" on="1"/>
        <pt x="182" y="-166" on="0"/>
        <pt x="154" y="-138" on="0"/>
        <pt x="154" y="-119" on="1"/>
        <pt x="154" y="801" on="1"/>
        <pt x="154" y="821" on="0"/>
        <pt x="182" y="848" on="0"/>
        <pt x="201" y="848" on="1"/>
        <pt x="417" y="848" on="1"/>
        <pt x="436" y="848" on="0"/>
        <pt x="462" y="822" on="0"/>
        <pt x="462" y="803" on="1"/>
        <pt x="462" y="785" on="0"/>
        <pt x="436" y="758" on="0"/>
        <pt x="417" y="758" on="1"/>
        <pt x="268" y="758" on="1"/>
        <pt x="258" y="758" on="0"/>
        <pt x="244" y="745" on="0"/>
        <pt x="244" y="735" on="1"/>
        <pt x="244" y="-52" on="1"/>
        <pt x="244" y="-62" on="0"/>
        <pt x="258" y="-76" on="0"/>
        <pt x="268" y="-76" on="1"/>
        <pt x="417" y="-76" on="1"/>
        <pt x="436" y="-76" on="0"/>
        <pt x="462" y="-102" on="0"/>
        <pt x="462" y="-121" on="1"/>
        <pt x="462" y="-139" on="0"/>
        <pt x="436" y="-166" on="0"/>
      </contour>
    </TTGlyph>
    <TTGlyph name="bracketright" xMin="154" yMin="-166" xMax="462" yMax="848">
      <contour>
        <pt x="415" y="-166" on="1"/>
        <pt x="199" y="-166" on="1"/>
        <pt x="181" y="-166" on="0"/>
        <pt x="154" y="-139" on="0"/>
        <pt x="154" y="-121" on="1"/>
        <pt x="154" y="-102" on="0"/>
        <pt x="181" y="-76" on="0"/>
        <pt x="199" y="-76" on="1"/>
        <pt x="349" y="-76" on="1"/>
        <pt x="358" y="-76" on="0"/>
        <pt x="372" y="-62" on="0"/>
        <pt x="372" y="-52" on="1"/>
        <pt x="372" y="735" on="1"/>
        <pt x="372" y="745" on="0"/>
        <pt x="358" y="758" on="0"/>
        <pt x="349" y="758" on="1"/>
        <pt x="199" y="758" on="1"/>
        <pt x="181" y="758" on="0"/>
        <pt x="154" y="785" on="0"/>
        <pt x="154" y="803" on="1"/>
        <pt x="154" y="822" on="0"/>
        <pt x="181" y="848" on="0"/>
        <pt x="199" y="848" on="1"/>
        <pt x="415" y="848" on="1"/>
        <pt x="435" y="848" on="0"/>
        <pt x="462" y="821" on="0"/>
        <pt x="462" y="801" on="1"/>
        <pt x="462" y="-119" on="1"/>
        <pt x="462" y="-138" on="0"/>
        <pt x="435" y="-166" on="0"/>
      </contour>
    </TTGlyph>
    <TTGlyph name="c" xMin="83" yMin="-5" xMax="519" yMax="555">
      <contour>
        <pt x="340" y="-5" on="1"/>
        <pt x="267" y="-5" on="0"/>
        <pt x="147" y="62" on="0"/>
        <pt x="83" y="187" on="0"/>
        <pt x="83" y="275" on="1"/>
        <pt x="83" y="368" on="0"/>
        <pt x="155" y="490" on="0"/>
        <pt x="274" y="555" on="0"/>
        <pt x="345" y="555" on="1"/>
        <pt x="432" y="555" on="0"/>
        <pt x="493" y="500" on="1"/>
        <pt x="508" y="486" on="0"/>
        <pt x="508" y="466" on="1"/>
        <pt x="508" y="450" on="0"/>
        <pt x="488" y="421" on="0"/>
        <pt x="469" y="421" on="1"/>
        <pt x="456" y="421" on="0"/>
        <pt x="445" y="428" on="1"/>
        <pt x="395" y="459" on="0"/>
        <pt x="347" y="459" on="1"/>
        <pt x="271" y="459" on="0"/>
        <pt x="183" y="361" on="0"/>
        <pt x="183" y="275" on="1"/>
        <pt x="183" y="187" on="0"/>
        <pt x="267" y="85" on="0"/>
        <pt x="346" y="85" on="1"/>
        <pt x="402" y="85" on="0"/>
        <pt x="460" y="127" on="1"/>
        <pt x="468" y="133" on="0"/>
        <pt x="482" y="133" on="1"/>
        <pt x="498" y="133" on="0"/>
        <pt x="519" y="109" on="0"/>
        <pt x="519" y="88" on="1"/>
        <pt x="519" y="68" on="0"/>
        <pt x="503" y="56" on="1"/>
        <pt x="425" y="-5" on="0"/>
      </contour>
    </TTGlyph>
    <TTGlyph name="colon" xMin="219" yMin="0" xMax="382" yMax="550">
      <contour>
        <pt x="302" y="0" on="1"/>
        <pt x="267" y="0" on="0"/>
        <pt x="219" y="49" on="0"/>
        <pt x="219" y="83" on="1"/>
        <pt x="219" y="118" on="0"/>
        <pt x="267" y="167" on="0"/>
        <pt x="302" y="167" on="1"/>
        <pt x="335" y="167" on="0"/>
        <pt x="382" y="118" on="0"/>
        <pt x="382" y="83" on="1"/>
        <pt x="382" y="49" on="0"/>
        <pt x="335" y="0" on="0"/>
      </contour>
      <contour>
        <pt x="302" y="383" on="1"/>
        <pt x="267" y="383" on="0"/>
        <pt x="219" y="432" on="0"/>
        <pt x="219" y="466" on="1"/>
        <pt x="219" y="501" on="0"/>
        <pt x="267" y="550" on="0"/>
        <pt x="302" y="550" on="1"/>
        <pt x="335" y="550" on="0"/>
        <pt x="382" y="501" on="0"/>
        <pt x="382" y="466" on="1"/>
        <pt x="382" y="432" on="0"/>
        <pt x="335" y="383" on="0"/>
      </contour>
    </TTGlyph>
    <TTGlyph name="colon_center" xMin="219" yMin="90" xMax="382" yMax="550">
      <contour>
        <pt x="302" y="90" on="1"/>
        <pt x="267" y="90" on="0"/>
        <pt x="219" y="139" on="0"/>
        <pt x="219" y="173" on="1"/>
        <pt x="219" y="208" on="0"/>
        <pt x="267" y="257" on="0"/>
        <pt x="302" y="257" on="1"/>
        <pt x="335" y="257" on="0"/>
        <pt x="382" y="208" on="0"/>
        <pt x="382" y="173" on="1"/>
        <pt x="382" y="139" on="0"/>
        <pt x="335" y="90" on="0"/>
      </contour>
      <contour>
        <pt x="302" y="383" on="1"/>
        <pt x="267" y="383" on="0"/>
        <pt x="219" y="432" on="0"/>
        <pt x="219" y="466" on="1"/>
        <pt x="219" y="501" on="0"/>
        <pt x="267" y="550" on="0"/>
        <pt x="302" y="550" on="1"/>
        <pt x="335" y="550" on="0"/>
        <pt x="382" y="501" on="0"/>
        <pt x="382" y="466" on="1"/>
        <pt x="382" y="432" on="0"/>
        <pt x="335" y="383" on="0"/>
      </contour>
    </TTGlyph>
    <TTGlyph name="colon_center_left" xMin="100" yMin="90" xMax="263" yMax="550">
      <contour>
        <pt x="183" y="90" on="1"/>
        <pt x="148" y="90" on="0"/>
        <pt x="100" y="139" on="0"/>
        <pt x="100" y="173" on="1"/>
        <pt x="100" y="208" on="0"/>
        <pt x="148" y="257" on="0"/>
        <pt x="183" y="257" on="1"/>
        <pt x="216" y="257" on="0"/>
        <pt x="263" y="208" on="0"/>
        <pt x="263" y="173" on="1"/>
        <pt x="263" y="139" on="0"/>
        <pt x="216" y="90" on="0"/>
      </contour>
      <contour>
        <pt x="183" y="383" on="1"/>
        <pt x="148" y="383" on="0"/>
        <pt x="100" y="432" on="0"/>
        <pt x="100" y="466" on="1"/>
        <pt x="100" y="501" on="0"/>
        <pt x="148" y="550" on="0"/>
        <pt x="183" y="550" on="1"/>
        <pt x="216" y="550" on="0"/>
        <pt x="263" y="501" on="0"/>
        <pt x="263" y="466" on="1"/>
        <pt x="263" y="432" on="0"/>
        <pt x="216" y="383" on="0"/>
      </contour>
    </TTGlyph>
    <TTGlyph name="colon_center_right" xMin="337" yMin="90" xMax="500" yMax="550">
      <contour>
        <pt x="420" y="90" on="1"/>
        <pt x="385" y="90" on="0"/>
        <pt x="337" y="139" on="0"/>
        <pt x="337" y="173" on="1"/>
        <pt x="337" y="208" on="0"/>
        <pt x="385" y="257" on="0"/>
        <pt x="420" y="257" on="1"/>
        <pt x="453" y="257" on="0"/>
        <pt x="500" y="208" on="0"/>
        <pt x="500" y="173" on="1"/>
        <pt x="500" y="139" on="0"/>
        <pt x="453" y="90" on="0"/>
      </contour>
      <contour>
        <pt x="420" y="383" on="1"/>
        <pt x="385" y="383" on="0"/>
        <pt x="337" y="432" on="0"/>
        <pt x="337" y="466" on="1"/>
        <pt x="337" y="501" on="0"/>
        <pt x="385" y="550" on="0"/>
        <pt x="420" y="550" on="1"/>
        <pt x="453" y="550" on="0"/>
        <pt x="500" y="501" on="0"/>
        <pt x="500" y="466" on="1"/>
        <pt x="500" y="432" on="0"/>
        <pt x="453" y="383" on="0"/>
      </contour>
    </TTGlyph>
    <TTGlyph name="comma" xMin="126" yMin="-192" xMax="390" yMax="173">
      <contour>
        <pt x="172" y="-192" on="1"/>
        <pt x="130" y="-192" on="0"/>
        <pt x="126" y="-153" on="1"/>
        <pt x="126" y="-110" on="0"/>
        <pt x="168" y="-105" on="1"/>
        <pt x="216" y="-99" on="0"/>
        <pt x="272" y="-54" on="0"/>
        <pt x="272" y="-26" on="1"/>
        <pt x="272" y="5" on="0"/>
        <pt x="213" y="63" on="0"/>
        <pt x="213" y="99" on="1"/>
        <pt x="213" y="122" on="0"/>
        <pt x="226" y="140" on="1"/>
        <pt x="246" y="173" on="0"/>
        <pt x="291" y="173" on="1"/>
        <pt x="324" y="173" on="0"/>
        <pt x="349" y="148" on="1"/>
        <pt x="390" y="107" on="0"/>
        <pt x="390" y="26" on="1"/>
        <pt x="390" y="-46" on="0"/>
        <pt x="346" y="-103" on="1"/>
        <pt x="285" y="-180" on="0"/>
      </contour>
    </TTGlyph>
    <TTGlyph name="d" xMin="76" yMin="-5" xMax="510" yMax="800">
      <contour>
        <pt x="291" y="85" on="1"/>
        <pt x="296" y="85" on="1"/>
        <pt x="340" y="85" on="0"/>
        <pt x="420" y="157" on="0"/>
        <pt x="420" y="218" on="1"/>
        <pt x="420" y="318" on="1"/>
        <pt x="420" y="365" on="0"/>
        <pt x="380" y="409" on="1"/>
        <pt x="343" y="448" on="0"/>
        <pt x="289" y="448" on="1"/>
        <pt x="235" y="448" on="0"/>
        <pt x="166" y="353" on="0"/>
        <pt x="166" y="266" on="1"/>
        <pt x="170" y="88" on="0"/>
      </contour>
      <contour>
        <pt x="273" y="-5" on="1"/>
        <pt x="175" y="-5" on="0"/>
        <pt x="77" y="142" on="0"/>
        <pt x="76" y="282" on="1"/>
        <pt x="76" y="405" on="0"/>
        <pt x="188" y="555" on="0"/>
        <pt x="274" y="555" on="1"/>
        <pt x="340" y="555" on="0"/>
        <pt x="383" y="520" on="1"/>
        <pt x="394" y="511" on="0"/>
        <pt x="403" y="511" on="1"/>
        <pt x="413" y="511" on="0"/>
        <pt x="420" y="522" on="0"/>
        <pt x="420" y="532" on="1"/>
        <pt x="420" y="753" on="1"/>
        <pt x="420" y="773" on="0"/>
        <pt x="448" y="800" on="0"/>
        <pt x="465" y="800" on="1"/>
        <pt x="482" y="800" on="0"/>
        <pt x="510" y="773" on="0"/>
        <pt x="510" y="753" on="1"/>
        <pt x="510" y="41" on="1"/>
        <pt x="510" y="20" on="0"/>
        <pt x="486" y="-5" on="0"/>
        <pt x="467" y="-5" on="1"/>
        <pt x="429" y="-5" on="0"/>
        <pt x="423" y="31" on="1"/>
        <pt x="421" y="50" on="0"/>
        <pt x="410" y="50" on="1"/>
        <pt x="404" y="50" on="0"/>
        <pt x="398" y="44" on="1"/>
        <pt x="351" y="-5" on="0"/>
      </contour>
    </TTGlyph>
    <TTGlyph name="dagger" xMin="55" yMin="-5" xMax="557" yMax="755">
      <contour>
        <pt x="304" y="-5" on="1"/>
        <pt x="283" y="-5" on="0"/>
        <pt x="257" y="21" on="0"/>
        <pt x="257" y="43" on="1"/>
        <pt x="257" y="400" on="1"/>
        <pt x="352" y="400" on="1"/>
        <pt x="352" y="43" on="1"/>
        <pt x="352" y="21" on="0"/>
        <pt x="326" y="-5" on="0"/>
      </contour>
      <contour>
        <pt x="515" y="550" on="1"/>
        <pt x="535" y="550" on="0"/>
        <pt x="557" y="528" on="0"/>
        <pt x="557" y="508" on="1"/>
        <pt x="557" y="488" on="0"/>
        <pt x="535" y="465" on="0"/>
        <pt x="515" y="465" on="1"/>
        <pt x="97" y="465" on="1"/>
        <pt x="77" y="465" on="0"/>
        <pt x="55" y="488" on="0"/>
        <pt x="55" y="508" on="1"/>
        <pt x="55" y="528" on="0"/>
        <pt x="77" y="550" on="0"/>
        <pt x="97" y="550" on="1"/>
      </contour>
      <contour>
        <pt x="257" y="610" on="1"/>
        <pt x="257" y="707" on="1"/>
        <pt x="257" y="730" on="0"/>
        <pt x="283" y="755" on="0"/>
        <pt x="304" y="755" on="1"/>
        <pt x="326" y="755" on="0"/>
        <pt x="352" y="730" on="0"/>
        <pt x="352" y="707" on="1"/>
        <pt x="352" y="610" on="1"/>
      </contour>
    </TTGlyph>
    <TTGlyph name="dollar" xMin="64" yMin="-157" xMax="540" yMax="900">
      <contour>
        <pt x="345" y="505" on="1"/>
        <pt x="314" y="508" on="0"/>
        <pt x="255" y="533" on="1"/>
        <pt x="255" y="852" on="1"/>
        <pt x="255" y="870" on="0"/>
        <pt x="276" y="900" on="0"/>
        <pt x="299" y="900" on="1"/>
        <pt x="324" y="900" on="0"/>
        <pt x="346" y="869" on="0"/>
        <pt x="346" y="852" on="1"/>
      </contour>
      <contour>
        <pt x="209" y="7" on="1"/>
        <pt x="143" y="20" on="0"/>
        <pt x="79" y="65" on="1"/>
        <pt x="64" y="76" on="0"/>
        <pt x="64" y="103" on="1"/>
        <pt x="64" y="117" on="0"/>
        <pt x="72" y="129" on="1"/>
        <pt x="83" y="146" on="0"/>
        <pt x="105" y="146" on="1"/>
        <pt x="117" y="146" on="0"/>
        <pt x="130" y="138" on="1"/>
        <pt x="190" y="99" on="0"/>
        <pt x="209" y="95" on="1"/>
      </contour>
      <contour>
        <pt x="390" y="7" on="1"/>
        <pt x="390" y="95" on="1"/>
        <pt x="455" y="113" on="0"/>
        <pt x="455" y="208" on="1"/>
        <pt x="455" y="315" on="0"/>
        <pt x="345" y="340" on="1"/>
        <pt x="304" y="348" on="0"/>
        <pt x="255" y="365" on="1"/>
        <pt x="69" y="422" on="0"/>
        <pt x="69" y="565" on="1"/>
        <pt x="69" y="634" on="0"/>
        <pt x="119" y="687" on="1"/>
        <pt x="156" y="727" on="0"/>
        <pt x="209" y="744" on="1"/>
        <pt x="209" y="646" on="1"/>
        <pt x="164" y="625" on="0"/>
        <pt x="164" y="564" on="1"/>
        <pt x="164" y="498" on="0"/>
        <pt x="255" y="459" on="1"/>
        <pt x="307" y="438" on="0"/>
        <pt x="345" y="431" on="1"/>
        <pt x="403" y="419" on="0"/>
        <pt x="496" y="367" on="0"/>
        <pt x="540" y="275" on="0"/>
        <pt x="540" y="214" on="1"/>
        <pt x="540" y="84" on="0"/>
        <pt x="453" y="31" on="1"/>
        <pt x="412" y="7" on="0"/>
      </contour>
      <contour>
        <pt x="301" y="-157" on="1"/>
        <pt x="277" y="-157" on="0"/>
        <pt x="254" y="-127" on="0"/>
        <pt x="254" y="-109" on="1"/>
        <pt x="255" y="286" on="1"/>
        <pt x="304" y="270" on="0"/>
        <pt x="345" y="265" on="1"/>
        <pt x="346" y="-109" on="1"/>
        <pt x="346" y="-127" on="0"/>
        <pt x="324" y="-157" on="0"/>
      </contour>
      <contour>
        <pt x="470" y="612" on="1"/>
        <pt x="455" y="612" on="0"/>
        <pt x="444" y="621" on="1"/>
        <pt x="415" y="645" on="0"/>
        <pt x="391" y="652" on="1"/>
        <pt x="391" y="744" on="1"/>
        <pt x="431" y="736" on="0"/>
        <pt x="479" y="704" on="1"/>
        <pt x="504" y="688" on="0"/>
        <pt x="504" y="663" on="1"/>
        <pt x="504" y="642" on="0"/>
        <pt x="483" y="612" on="0"/>
      </contour>
    </TTGlyph>
    <TTGlyph name="e" xMin="70" yMin="-5" xMax="530" yMax="555">
      <contour>
        <pt x="320" y="-5" on="1"/>
        <pt x="239" y="-5" on="0"/>
        <pt x="178" y="36" on="1"/>
        <pt x="70" y="109" on="0"/>
        <pt x="70" y="281" on="1"/>
        <pt x="70" y="366" on="0"/>
        <pt x="140" y="488" on="0"/>
        <pt x="243" y="555" on="0"/>
        <pt x="308" y="555" on="1"/>
        <pt x="377" y="555" on="0"/>
        <pt x="477" y="489" on="0"/>
        <pt x="529" y="375" on="0"/>
        <pt x="530" y="290" on="1"/>
        <pt x="530" y="272" on="0"/>
        <pt x="507" y="244" on="0"/>
        <pt x="488" y="244" on="1"/>
        <pt x="187" y="245" on="1"/>
        <pt x="162" y="245" on="0"/>
        <pt x="162" y="225" on="1"/>
        <pt x="163" y="213" on="1"/>
        <pt x="175" y="151" on="0"/>
        <pt x="266" y="85" on="0"/>
        <pt x="324" y="85" on="1"/>
        <pt x="401" y="85" on="0"/>
        <pt x="461" y="133" on="1"/>
        <pt x="470" y="140" on="0"/>
        <pt x="480" y="140" on="1"/>
        <pt x="499" y="140" on="0"/>
        <pt x="521" y="111" on="0"/>
        <pt x="521" y="97" on="1"/>
        <pt x="521" y="81" on="0"/>
        <pt x="508" y="69" on="1"/>
        <pt x="427" y="-5" on="0"/>
      </contour>
      <contour>
        <pt x="413" y="333" on="1"/>
        <pt x="439" y="333" on="0"/>
        <pt x="439" y="352" on="1"/>
        <pt x="439" y="390" on="0"/>
        <pt x="371" y="465" on="0"/>
        <pt x="308" y="465" on="1"/>
        <pt x="257" y="465" on="0"/>
        <pt x="177" y="401" on="0"/>
        <pt x="171" y="356" on="1"/>
        <pt x="170" y="350" on="1"/>
        <pt x="170" y="333" on="0"/>
        <pt x="193" y="333" on="1"/>
      </contour>
    </TTGlyph>
    <TTGlyph name="eight" xMin="75" yMin="-5" xMax="524" yMax="755">
      <contour>
        <pt x="300" y="-5" on="1"/>
        <pt x="193" y="-5" on="0"/>
        <pt x="75" y="106" on="0"/>
        <pt x="75" y="195" on="1"/>
        <pt x="75" y="251" on="0"/>
        <pt x="133" y="348" on="0"/>
        <pt x="186" y="379" on="1"/>
        <pt x="192" y="384" on="0"/>
        <pt x="192" y="390" on="1"/>
        <pt x="192" y="395" on="0"/>
        <pt x="187" y="399" on="1"/>
        <pt x="90" y="460" on="0"/>
        <pt x="90" y="560" on="1"/>
        <pt x="90" y="646" on="0"/>
        <pt x="203" y="755" on="0"/>
        <pt x="300" y="755" on="1"/>
        <pt x="397" y="755" on="0"/>
        <pt x="510" y="646" on="0"/>
        <pt x="510" y="560" on="1"/>
        <pt x="510" y="460" on="0"/>
        <pt x="412" y="399" on="1"/>
        <pt x="407" y="395" on="0"/>
        <pt x="407" y="390" on="1"/>
        <pt x="407" y="384" on="0"/>
        <pt x="413" y="379" on="1"/>
        <pt x="465" y="348" on="0"/>
        <pt x="524" y="253" on="0"/>
        <pt x="524" y="195" on="1"/>
        <pt x="524" y="100" on="0"/>
        <pt x="401" y="-5" on="0"/>
      </contour>
      <contour>
        <pt x="300" y="443" on="1"/>
        <pt x="317" y="443" on="0"/>
        <pt x="326" y="447" on="1"/>
        <pt x="419" y="476" on="0"/>
        <pt x="419" y="555" on="1"/>
        <pt x="419" y="605" on="0"/>
        <pt x="361" y="665" on="0"/>
        <pt x="300" y="665" on="1"/>
        <pt x="239" y="665" on="0"/>
        <pt x="180" y="604" on="0"/>
        <pt x="180" y="555" on="1"/>
        <pt x="180" y="474" on="0"/>
        <pt x="270" y="448" on="1"/>
        <pt x="284" y="443" on="0"/>
      </contour>
      <contour>
        <pt x="300" y="84" on="1"/>
        <pt x="373" y="84" on="0"/>
        <pt x="435" y="149" on="0"/>
        <pt x="435" y="207" on="1"/>
        <pt x="435" y="289" on="0"/>
        <pt x="349" y="323" on="1"/>
        <pt x="329" y="332" on="0"/>
        <pt x="300" y="333" on="1"/>
        <pt x="276" y="331" on="1"/>
        <pt x="247" y="326" on="0"/>
        <pt x="216" y="306" on="1"/>
        <pt x="164" y="272" on="0"/>
        <pt x="164" y="207" on="1"/>
        <pt x="164" y="149" on="0"/>
        <pt x="227" y="84" on="0"/>
      </contour>
    </TTGlyph>
    <TTGlyph name="equal" xMin="60" yMin="160" xMax="540" yMax="460">
      <contour>
        <pt x="495" y="370" on="1"/>
        <pt x="105" y="370" on="1"/>
        <pt x="86" y="370" on="0"/>
        <pt x="60" y="396" on="0"/>
        <pt x="60" y="415" on="1"/>
        <pt x="60" y="434" on="0"/>
        <pt x="86" y="460" on="0"/>
        <pt x="105" y="460" on="1"/>
        <pt x="495" y="460" on="1"/>
        <pt x="513" y="460" on="0"/>
        <pt x="540" y="434" on="0"/>
        <pt x="540" y="415" on="1"/>
        <pt x="540" y="396" on="0"/>
        <pt x="513" y="370" on="0"/>
      </contour>
      <contour>
        <pt x="495" y="160" on="1"/>
        <pt x="105" y="160" on="1"/>
        <pt x="86" y="160" on="0"/>
        <pt x="60" y="186" on="0"/>
        <pt x="60" y="205" on="1"/>
        <pt x="60" y="224" on="0"/>
        <pt x="86" y="250" on="0"/>
        <pt x="105" y="250" on="1"/>
        <pt x="495" y="250" on="1"/>
        <pt x="513" y="250" on="0"/>
        <pt x="540" y="224" on="0"/>
        <pt x="540" y="205" on="1"/>
        <pt x="540" y="186" on="0"/>
        <pt x="513" y="160" on="0"/>
      </contour>
    </TTGlyph>
    <TTGlyph name="exclam" xMin="219" yMin="-5" xMax="382" yMax="755">
      <contour>
        <pt x="302" y="-5" on="1"/>
        <pt x="267" y="-5" on="0"/>
        <pt x="219" y="44" on="0"/>
        <pt x="219" y="78" on="1"/>
        <pt x="219" y="113" on="0"/>
        <pt x="267" y="162" on="0"/>
        <pt x="302" y="162" on="1"/>
        <pt x="335" y="162" on="0"/>
        <pt x="382" y="113" on="0"/>
        <pt x="382" y="78" on="1"/>
        <pt x="382" y="44" on="0"/>
        <pt x="335" y="-5" on="0"/>
      </contour>
      <contour>
        <pt x="300" y="260" on="1"/>
        <pt x="261" y="260" on="0"/>
        <pt x="259" y="305" on="1"/>
        <pt x="241" y="686" on="1"/>
        <pt x="241" y="713" on="0"/>
        <pt x="269" y="755" on="0"/>
        <pt x="299" y="755" on="1"/>
        <pt x="330" y="755" on="0"/>
        <pt x="358" y="713" on="0"/>
        <pt x="358" y="686" on="1"/>
        <pt x="341" y="305" on="1"/>
        <pt x="339" y="260" on="0"/>
      </contour>
    </TTGlyph>
    <TTGlyph name="f" xMin="67" yMin="-5" xMax="548" yMax="795">
      <contour>
        <pt x="265" y="-5" on="1"/>
        <pt x="246" y="-5" on="0"/>
        <pt x="220" y="21" on="0"/>
        <pt x="220" y="40" on="1"/>
        <pt x="220" y="436" on="1"/>
        <pt x="220" y="446" on="0"/>
        <pt x="206" y="460" on="0"/>
        <pt x="196" y="460" on="1"/>
        <pt x="112" y="460" on="1"/>
        <pt x="93" y="460" on="0"/>
        <pt x="67" y="486" on="0"/>
        <pt x="67" y="505" on="1"/>
        <pt x="67" y="523" on="0"/>
        <pt x="93" y="550" on="0"/>
        <pt x="112" y="550" on="1"/>
        <pt x="196" y="550" on="1"/>
        <pt x="206" y="550" on="0"/>
        <pt x="220" y="563" on="0"/>
        <pt x="220" y="573" on="1"/>
        <pt x="220" y="654" on="1"/>
        <pt x="220" y="712" on="0"/>
        <pt x="302" y="795" on="0"/>
        <pt x="360" y="795" on="1"/>
        <pt x="503" y="795" on="1"/>
        <pt x="521" y="795" on="0"/>
        <pt x="548" y="768" on="0"/>
        <pt x="548" y="750" on="1"/>
        <pt x="548" y="731" on="0"/>
        <pt x="521" y="705" on="0"/>
        <pt x="503" y="705" on="1"/>
        <pt x="380" y="705" on="1"/>
        <pt x="351" y="705" on="0"/>
        <pt x="310" y="664" on="0"/>
        <pt x="310" y="634" on="1"/>
        <pt x="310" y="573" on="1"/>
        <pt x="310" y="563" on="0"/>
        <pt x="323" y="550" on="0"/>
        <pt x="333" y="550" on="1"/>
        <pt x="502" y="550" on="1"/>
        <pt x="520" y="550" on="0"/>
        <pt x="547" y="523" on="0"/>
        <pt x="547" y="505" on="1"/>
        <pt x="547" y="486" on="0"/>
        <pt x="520" y="460" on="0"/>
        <pt x="502" y="460" on="1"/>
        <pt x="333" y="460" on="1"/>
        <pt x="323" y="460" on="0"/>
        <pt x="310" y="446" on="0"/>
        <pt x="310" y="436" on="1"/>
        <pt x="310" y="40" on="1"/>
        <pt x="310" y="21" on="0"/>
        <pt x="283" y="-5" on="0"/>
      </contour>
    </TTGlyph>
    <TTGlyph name="five" xMin="90" yMin="-5" xMax="508" yMax="750">
      <contour>
        <pt x="232" y="-5" on="1"/>
        <pt x="214" y="-5" on="1"/>
        <pt x="162" y="-5" on="0"/>
        <pt x="131" y="0" on="1"/>
        <pt x="113" y="3" on="0"/>
        <pt x="90" y="27" on="0"/>
        <pt x="90" y="45" on="1"/>
        <pt x="90" y="63" on="0"/>
        <pt x="113" y="89" on="0"/>
        <pt x="134" y="89" on="1"/>
        <pt x="152" y="87" on="0"/>
        <pt x="173" y="86" on="1"/>
        <pt x="225" y="84" on="1"/>
        <pt x="277" y="84" on="0"/>
        <pt x="362" y="118" on="0"/>
        <pt x="414" y="187" on="0"/>
        <pt x="414" y="240" on="1"/>
        <pt x="414" y="309" on="0"/>
        <pt x="320" y="369" on="0"/>
        <pt x="224" y="369" on="1"/>
        <pt x="140" y="369" on="1"/>
        <pt x="121" y="369" on="0"/>
        <pt x="93" y="397" on="0"/>
        <pt x="93" y="416" on="1"/>
        <pt x="93" y="703" on="1"/>
        <pt x="93" y="723" on="0"/>
        <pt x="121" y="750" on="0"/>
        <pt x="140" y="750" on="1"/>
        <pt x="449" y="750" on="1"/>
        <pt x="467" y="750" on="0"/>
        <pt x="492" y="725" on="0"/>
        <pt x="492" y="707" on="1"/>
        <pt x="492" y="689" on="0"/>
        <pt x="467" y="664" on="0"/>
        <pt x="449" y="664" on="1"/>
        <pt x="210" y="664" on="1"/>
        <pt x="200" y="664" on="0"/>
        <pt x="186" y="650" on="0"/>
        <pt x="186" y="640" on="1"/>
        <pt x="186" y="479" on="1"/>
        <pt x="186" y="469" on="0"/>
        <pt x="200" y="456" on="0"/>
        <pt x="210" y="456" on="1"/>
        <pt x="241" y="456" on="1"/>
        <pt x="508" y="456" on="0"/>
        <pt x="508" y="247" on="1"/>
        <pt x="508" y="123" on="0"/>
        <pt x="428" y="63" on="1"/>
        <pt x="340" y="-5" on="0"/>
      </contour>
    </TTGlyph>
    <TTGlyph name="four" xMin="40" yMin="-5" xMax="550" yMax="755">
      <contour>
        <pt x="349" y="290" on="1"/>
        <pt x="356" y="290" on="0"/>
        <pt x="365" y="299" on="0"/>
        <pt x="365" y="306" on="1"/>
        <pt x="365" y="537" on="1"/>
        <pt x="365" y="544" on="0"/>
        <pt x="355" y="553" on="0"/>
        <pt x="349" y="553" on="1"/>
        <pt x="341" y="553" on="0"/>
        <pt x="336" y="546" on="1"/>
        <pt x="176" y="314" on="1"/>
        <pt x="173" y="310" on="0"/>
        <pt x="173" y="305" on="1"/>
        <pt x="173" y="299" on="0"/>
        <pt x="182" y="290" on="0"/>
        <pt x="189" y="290" on="1"/>
      </contour>
      <contour>
        <pt x="410" y="-5" on="1"/>
        <pt x="391" y="-5" on="0"/>
        <pt x="365" y="21" on="0"/>
        <pt x="365" y="40" on="1"/>
        <pt x="365" y="184" on="1"/>
        <pt x="365" y="191" on="0"/>
        <pt x="356" y="200" on="0"/>
        <pt x="349" y="200" on="1"/>
        <pt x="110" y="200" on="1"/>
        <pt x="81" y="200" on="0"/>
        <pt x="40" y="241" on="0"/>
        <pt x="40" y="270" on="1"/>
        <pt x="40" y="289" on="0"/>
        <pt x="51" y="307" on="1"/>
        <pt x="346" y="728" on="1"/>
        <pt x="364" y="755" on="0"/>
        <pt x="397" y="755" on="1"/>
        <pt x="421" y="755" on="0"/>
        <pt x="455" y="721" on="0"/>
        <pt x="455" y="697" on="1"/>
        <pt x="455" y="306" on="1"/>
        <pt x="455" y="299" on="0"/>
        <pt x="464" y="290" on="0"/>
        <pt x="471" y="290" on="1"/>
        <pt x="505" y="290" on="1"/>
        <pt x="524" y="290" on="0"/>
        <pt x="550" y="264" on="0"/>
        <pt x="550" y="245" on="1"/>
        <pt x="550" y="226" on="0"/>
        <pt x="524" y="200" on="0"/>
        <pt x="505" y="200" on="1"/>
        <pt x="471" y="200" on="1"/>
        <pt x="464" y="200" on="0"/>
        <pt x="455" y="191" on="0"/>
        <pt x="455" y="184" on="1"/>
        <pt x="455" y="40" on="1"/>
        <pt x="455" y="21" on="0"/>
        <pt x="429" y="-5" on="0"/>
      </contour>
    </TTGlyph>
    <TTGlyph name="g" xMin="70" yMin="-236" xMax="504" yMax="555">
      <contour>
        <pt x="285" y="465" on="1"/>
        <pt x="164" y="462" on="0"/>
        <pt x="160" y="284" on="1"/>
        <pt x="160" y="193" on="0"/>
        <pt x="229" y="101" on="0"/>
        <pt x="283" y="101" on="1"/>
        <pt x="337" y="101" on="0"/>
        <pt x="374" y="140" on="1"/>
        <pt x="414" y="184" on="0"/>
        <pt x="414" y="232" on="1"/>
        <pt x="414" y="332" on="1"/>
        <pt x="414" y="393" on="0"/>
        <pt x="334" y="465" on="0"/>
        <pt x="290" y="465" on="1"/>
      </contour>
      <contour>
        <pt x="504" y="-19" on="1"/>
        <pt x="504" y="-120" on="0"/>
        <pt x="381" y="-236" on="0"/>
        <pt x="281" y="-236" on="1"/>
        <pt x="162" y="-236" on="0"/>
        <pt x="86" y="-152" on="1"/>
        <pt x="75" y="-139" on="0"/>
        <pt x="75" y="-124" on="1"/>
        <pt x="75" y="-110" on="0"/>
        <pt x="84" y="-99" on="1"/>
        <pt x="97" y="-84" on="0"/>
        <pt x="114" y="-84" on="1"/>
        <pt x="130" y="-84" on="0"/>
        <pt x="142" y="-95" on="1"/>
        <pt x="174" y="-126" on="0"/>
        <pt x="226" y="-155" on="0"/>
        <pt x="281" y="-155" on="1"/>
        <pt x="342" y="-154" on="0"/>
        <pt x="380" y="-118" on="1"/>
        <pt x="413" y="-87" on="0"/>
        <pt x="413" y="-49" on="1"/>
        <pt x="414" y="0" on="1"/>
        <pt x="414" y="18" on="1"/>
        <pt x="414" y="28" on="0"/>
        <pt x="407" y="39" on="0"/>
        <pt x="397" y="39" on="1"/>
        <pt x="388" y="39" on="0"/>
        <pt x="377" y="30" on="1"/>
        <pt x="334" y="-5" on="0"/>
        <pt x="268" y="-5" on="1"/>
        <pt x="182" y="-5" on="0"/>
        <pt x="70" y="145" on="0"/>
        <pt x="70" y="268" on="1"/>
        <pt x="71" y="408" on="0"/>
        <pt x="169" y="555" on="0"/>
        <pt x="267" y="555" on="1"/>
        <pt x="345" y="555" on="0"/>
        <pt x="392" y="506" on="1"/>
        <pt x="398" y="500" on="0"/>
        <pt x="404" y="500" on="1"/>
        <pt x="414" y="500" on="0"/>
        <pt x="417" y="519" on="1"/>
        <pt x="423" y="555" on="0"/>
        <pt x="461" y="555" on="1"/>
        <pt x="480" y="555" on="0"/>
        <pt x="504" y="530" on="0"/>
        <pt x="504" y="509" on="1"/>
      </contour>
    </TTGlyph>
    <TTGlyph name="grave" xMin="175" yMin="550" xMax="425" yMax="800">
      <contour>
        <pt x="380" y="550" on="1"/>
        <pt x="362" y="550" on="0"/>
        <pt x="347" y="564" on="1"/>
        <pt x="189" y="722" on="1"/>
        <pt x="175" y="737" on="0"/>
        <pt x="175" y="755" on="1"/>
        <pt x="175" y="772" on="0"/>
        <pt x="203" y="800" on="0"/>
        <pt x="220" y="800" on="1"/>
        <pt x="237" y="800" on="0"/>
        <pt x="252" y="786" on="1"/>
        <pt x="411" y="627" on="1"/>
        <pt x="425" y="612" on="0"/>
        <pt x="425" y="595" on="1"/>
        <pt x="425" y="578" on="0"/>
        <pt x="397" y="550" on="0"/>
      </contour>
    </TTGlyph>
    <TTGlyph name="greater" xMin="78" yMin="79" xMax="525" yMax="539">
      <contour>
        <pt x="123" y="79" on="1"/>
        <pt x="97" y="79" on="0"/>
        <pt x="82" y="106" on="1"/>
        <pt x="78" y="115" on="0"/>
        <pt x="78" y="123" on="1"/>
        <pt x="78" y="149" on="0"/>
        <pt x="104" y="165" on="1"/>
        <pt x="349" y="296" on="1"/>
        <pt x="358" y="302" on="0"/>
        <pt x="358" y="310" on="1"/>
        <pt x="358" y="319" on="0"/>
        <pt x="349" y="324" on="1"/>
        <pt x="105" y="453" on="1"/>
        <pt x="79" y="469" on="0"/>
        <pt x="79" y="495" on="1"/>
        <pt x="79" y="503" on="0"/>
        <pt x="83" y="512" on="1"/>
        <pt x="98" y="539" on="0"/>
        <pt x="123" y="539" on="1"/>
        <pt x="134" y="539" on="0"/>
        <pt x="144" y="534" on="1"/>
        <pt x="500" y="351" on="1"/>
        <pt x="525" y="335" on="0"/>
        <pt x="525" y="311" on="1"/>
        <pt x="525" y="285" on="0"/>
        <pt x="500" y="270" on="1"/>
        <pt x="143" y="83" on="1"/>
        <pt x="133" y="79" on="0"/>
      </contour>
    </TTGlyph>
    <TTGlyph name="h" xMin="83" yMin="-5" xMax="518" yMax="800">
      <contour>
        <pt x="83" y="753" on="1"/>
        <pt x="83" y="773" on="0"/>
        <pt x="110" y="800" on="0"/>
        <pt x="128" y="800" on="1"/>
        <pt x="146" y="800" on="0"/>
        <pt x="173" y="773" on="0"/>
        <pt x="173" y="753" on="1"/>
        <pt x="173" y="492" on="1"/>
        <pt x="173" y="477" on="0"/>
        <pt x="183" y="477" on="1"/>
        <pt x="188" y="477" on="0"/>
        <pt x="195" y="484" on="1"/>
        <pt x="262" y="554" on="0"/>
        <pt x="336" y="555" on="1"/>
        <pt x="424" y="555" on="0"/>
        <pt x="469" y="505" on="1"/>
        <pt x="518" y="453" on="0"/>
        <pt x="518" y="342" on="1"/>
        <pt x="518" y="41" on="1"/>
        <pt x="518" y="20" on="0"/>
        <pt x="496" y="-5" on="0"/>
        <pt x="475" y="-5" on="1"/>
        <pt x="455" y="-5" on="0"/>
        <pt x="430" y="20" on="0"/>
        <pt x="430" y="41" on="1"/>
        <pt x="430" y="336" on="1"/>
        <pt x="428" y="458" on="0"/>
        <pt x="323" y="458" on="1"/>
        <pt x="275" y="457" on="0"/>
        <pt x="228" y="416" on="1"/>
        <pt x="171" y="366" on="0"/>
        <pt x="171" y="315" on="1"/>
        <pt x="171" y="41" on="1"/>
        <pt x="171" y="20" on="0"/>
        <pt x="149" y="-5" on="0"/>
        <pt x="128" y="-5" on="1"/>
        <pt x="108" y="-5" on="0"/>
        <pt x="83" y="20" on="0"/>
        <pt x="83" y="41" on="1"/>
      </contour>
    </TTGlyph>
    <TTGlyph name="hyphen" xMin="60" yMin="265" xMax="540" yMax="355">
      <contour>
        <pt x="495" y="265" on="1"/>
        <pt x="105" y="265" on="1"/>
        <pt x="86" y="265" on="0"/>
        <pt x="60" y="291" on="0"/>
        <pt x="60" y="310" on="1"/>
        <pt x="60" y="329" on="0"/>
        <pt x="86" y="355" on="0"/>
        <pt x="105" y="355" on="1"/>
        <pt x="495" y="355" on="1"/>
        <pt x="513" y="355" on="0"/>
        <pt x="540" y="329" on="0"/>
        <pt x="540" y="310" on="1"/>
        <pt x="540" y="291" on="0"/>
        <pt x="513" y="265" on="0"/>
      </contour>
    </TTGlyph>
    <TTGlyph name="i" xMin="83" yMin="0" xMax="559" yMax="801">
      <contour>
        <pt x="322" y="652" on="1"/>
        <pt x="290" y="652" on="0"/>
        <pt x="248" y="695" on="0"/>
        <pt x="248" y="726" on="1"/>
        <pt x="248" y="757" on="0"/>
        <pt x="290" y="801" on="0"/>
        <pt x="322" y="801" on="1"/>
        <pt x="351" y="801" on="0"/>
        <pt x="394" y="757" on="0"/>
        <pt x="394" y="726" on="1"/>
        <pt x="394" y="695" on="0"/>
        <pt x="351" y="652" on="0"/>
      </contour>
      <contour>
        <pt x="513" y="0" on="1"/>
        <pt x="128" y="0" on="1"/>
        <pt x="112" y="0" on="0"/>
        <pt x="84" y="25" on="0"/>
        <pt x="84" y="46" on="1"/>
        <pt x="84" y="68" on="0"/>
        <pt x="112" y="92" on="0"/>
        <pt x="128" y="92" on="1"/>
        <pt x="252" y="92" on="1"/>
        <pt x="276" y="92" on="0"/>
        <pt x="276" y="117" on="1"/>
        <pt x="276" y="409" on="1"/>
        <pt x="276" y="430" on="0"/>
        <pt x="248" y="457" on="0"/>
        <pt x="229" y="457" on="1"/>
        <pt x="127" y="457" on="1"/>
        <pt x="110" y="457" on="0"/>
        <pt x="83" y="483" on="0"/>
        <pt x="83" y="503" on="1"/>
        <pt x="83" y="524" on="0"/>
        <pt x="109" y="550" on="0"/>
        <pt x="127" y="550" on="1"/>
        <pt x="272" y="550" on="1"/>
        <pt x="311" y="550" on="0"/>
        <pt x="366" y="494" on="0"/>
        <pt x="366" y="454" on="1"/>
        <pt x="366" y="117" on="1"/>
        <pt x="366" y="92" on="0"/>
        <pt x="389" y="92" on="1"/>
        <pt x="513" y="92" on="1"/>
        <pt x="531" y="92" on="0"/>
        <pt x="559" y="68" on="0"/>
        <pt x="559" y="46" on="1"/>
        <pt x="559" y="25" on="0"/>
        <pt x="530" y="0" on="0"/>
      </contour>
    </TTGlyph>
    <TTGlyph name="j" xMin="57" yMin="-244" xMax="421" yMax="800">
      <contour>
        <pt x="350" y="653" on="1"/>
        <pt x="320" y="653" on="0"/>
        <pt x="279" y="696" on="0"/>
        <pt x="279" y="727" on="1"/>
        <pt x="279" y="757" on="0"/>
        <pt x="320" y="800" on="0"/>
        <pt x="350" y="800" on="1"/>
        <pt x="379" y="800" on="0"/>
        <pt x="421" y="757" on="0"/>
        <pt x="421" y="727" on="1"/>
        <pt x="421" y="696" on="0"/>
        <pt x="379" y="653" on="0"/>
      </contour>
      <contour>
        <pt x="157" y="-244" on="1"/>
        <pt x="111" y="-244" on="0"/>
        <pt x="94" y="-241" on="1"/>
        <pt x="57" y="-235" on="0"/>
        <pt x="57" y="-197" on="1"/>
        <pt x="57" y="-178" on="0"/>
        <pt x="81" y="-153" on="0"/>
        <pt x="95" y="-153" on="1"/>
        <pt x="160" y="-154" on="1"/>
        <pt x="315" y="-154" on="0"/>
        <pt x="315" y="-24" on="1"/>
        <pt x="315" y="411" on="1"/>
        <pt x="315" y="430" on="0"/>
        <pt x="291" y="457" on="0"/>
        <pt x="270" y="457" on="1"/>
        <pt x="154" y="457" on="1"/>
        <pt x="136" y="457" on="0"/>
        <pt x="110" y="484" on="0"/>
        <pt x="110" y="503" on="1"/>
        <pt x="110" y="522" on="0"/>
        <pt x="136" y="550" on="0"/>
        <pt x="154" y="550" on="1"/>
        <pt x="314" y="550" on="1"/>
        <pt x="351" y="550" on="0"/>
        <pt x="405" y="493" on="0"/>
        <pt x="405" y="454" on="1"/>
        <pt x="405" y="-34" on="1"/>
        <pt x="405" y="-136" on="0"/>
        <pt x="297" y="-244" on="0"/>
      </contour>
    </TTGlyph>
    <TTGlyph name="k" xMin="96" yMin="0" xMax="547" yMax="749">
      <contour>
        <pt x="499" y="0" on="1"/>
        <pt x="471" y="0" on="0"/>
        <pt x="456" y="23" on="1"/>
        <pt x="310" y="232" on="1"/>
        <pt x="302" y="243" on="0"/>
        <pt x="293" y="243" on="1"/>
        <pt x="281" y="243" on="0"/>
        <pt x="275" y="237" on="1"/>
        <pt x="208" y="166" on="1"/>
        <pt x="186" y="144" on="0"/>
        <pt x="186" y="116" on="1"/>
        <pt x="186" y="50" on="1"/>
        <pt x="186" y="29" on="0"/>
        <pt x="162" y="0" on="0"/>
        <pt x="142" y="0" on="1"/>
        <pt x="121" y="0" on="0"/>
        <pt x="96" y="28" on="0"/>
        <pt x="96" y="50" on="1"/>
        <pt x="96" y="702" on="1"/>
        <pt x="96" y="725" on="0"/>
        <pt x="122" y="749" on="0"/>
        <pt x="140" y="749" on="1"/>
        <pt x="160" y="749" on="0"/>
        <pt x="186" y="724" on="0"/>
        <pt x="186" y="701" on="1"/>
        <pt x="186" y="339" on="1"/>
        <pt x="186" y="316" on="0"/>
        <pt x="207" y="316" on="1"/>
        <pt x="218" y="316" on="0"/>
        <pt x="225" y="323" on="1"/>
        <pt x="427" y="535" on="1"/>
        <pt x="441" y="550" on="0"/>
        <pt x="464" y="550" on="1"/>
        <pt x="485" y="550" on="0"/>
        <pt x="512" y="524" on="0"/>
        <pt x="512" y="509" on="1"/>
        <pt x="512" y="490" on="0"/>
        <pt x="499" y="476" on="1"/>
        <pt x="381" y="350" on="1"/>
        <pt x="368" y="336" on="0"/>
        <pt x="368" y="321" on="1"/>
        <pt x="368" y="310" on="0"/>
        <pt x="376" y="299" on="1"/>
        <pt x="540" y="72" on="1"/>
        <pt x="547" y="61" on="0"/>
        <pt x="547" y="45" on="1"/>
        <pt x="547" y="1" on="0"/>
      </contour>
    </TTGlyph>
    <TTGlyph name="l" xMin="54" yMin="0" xMax="552" yMax="800">
      <contour>
        <pt x="431" y="0" on="1"/>
        <pt x="231" y="0" on="0"/>
        <pt x="230" y="221" on="1"/>
        <pt x="230" y="650" on="1"/>
        <pt x="230" y="672" on="0"/>
        <pt x="196" y="708" on="0"/>
        <pt x="173" y="708" on="1"/>
        <pt x="99" y="708" on="1"/>
        <pt x="81" y="708" on="0"/>
        <pt x="54" y="733" on="0"/>
        <pt x="54" y="753" on="1"/>
        <pt x="54" y="775" on="0"/>
        <pt x="81" y="800" on="0"/>
        <pt x="99" y="800" on="1"/>
        <pt x="216" y="800" on="1"/>
        <pt x="255" y="800" on="0"/>
        <pt x="320" y="734" on="0"/>
        <pt x="320" y="695" on="1"/>
        <pt x="320" y="240" on="1"/>
        <pt x="320" y="90" on="0"/>
        <pt x="441" y="90" on="1"/>
        <pt x="469" y="90" on="0"/>
        <pt x="495" y="105" on="1"/>
        <pt x="504" y="110" on="0"/>
        <pt x="510" y="110" on="1"/>
        <pt x="519" y="110" on="0"/>
        <pt x="538" y="102" on="0"/>
        <pt x="552" y="82" on="0"/>
        <pt x="552" y="67" on="1"/>
        <pt x="552" y="50" on="0"/>
        <pt x="542" y="37" on="1"/>
        <pt x="513" y="1" on="0"/>
      </contour>
    </TTGlyph>
    <TTGlyph name="left_arrow_single" xMin="-482" yMin="4" xMax="540" yMax="609">
      <contour>
        <pt x="-178" y="4" on="1"/>
        <pt x="-193" y="4" on="0"/>
        <pt x="-205" y="16" on="1"/>
        <pt x="-471" y="281" on="1"/>
        <pt x="-482" y="293" on="0"/>
        <pt x="-482" y="310" on="1"/>
        <pt x="-482" y="325" on="0"/>
        <pt x="-471" y="338" on="1"/>
        <pt x="-211" y="598" on="1"/>
        <pt x="-199" y="609" on="0"/>
        <pt x="-184" y="609" on="1"/>
        <pt x="-166" y="609" on="0"/>
        <pt x="-137" y="580" on="0"/>
        <pt x="-137" y="562" on="1"/>
        <pt x="-137" y="546" on="0"/>
        <pt x="-148" y="534" on="1"/>
        <pt x="-228" y="453" on="1"/>
        <pt x="-128" y="355" on="1"/>
        <pt x="495" y="355" on="1"/>
        <pt x="515" y="355" on="0"/>
        <pt x="540" y="328" on="0"/>
        <pt x="540" y="310" on="1"/>
        <pt x="540" y="290" on="0"/>
        <pt x="514" y="265" on="0"/>
        <pt x="495" y="265" on="1"/>
        <pt x="-128" y="265" on="1"/>
        <pt x="-229" y="166" on="1"/>
        <pt x="-142" y="79" on="1"/>
        <pt x="-131" y="67" on="0"/>
        <pt x="-131" y="51" on="1"/>
        <pt x="-131" y="33" on="0"/>
        <pt x="-160" y="4" on="0"/>
      </contour>
      <contour>
        <pt x="-292" y="239" on="1"/>
        <pt x="-283" y="239" on="0"/>
        <pt x="-276" y="246" on="1"/>
        <pt x="-228" y="293" on="1"/>
        <pt x="-221" y="300" on="0"/>
        <pt x="-221" y="310" on="1"/>
        <pt x="-221" y="320" on="0"/>
        <pt x="-228" y="327" on="1"/>
        <pt x="-276" y="373" on="1"/>
        <pt x="-283" y="380" on="0"/>
        <pt x="-292" y="380" on="1"/>
        <pt x="-301" y="380" on="0"/>
        <pt x="-309" y="373" on="1"/>
        <pt x="-356" y="326" on="1"/>
        <pt x="-363" y="318" on="0"/>
        <pt x="-363" y="309" on="1"/>
        <pt x="-363" y="300" on="0"/>
        <pt x="-356" y="293" on="1"/>
        <pt x="-309" y="246" on="1"/>
        <pt x="-301" y="239" on="0"/>
      </contour>
    </TTGlyph>
    <TTGlyph name="left_right_arrow_double" xMin="-1082" yMin="4" xMax="482" yMax="609">
      <contour>
        <pt x="166" y="250" on="1"/>
        <pt x="185" y="250" on="0"/>
        <pt x="199" y="236" on="1"/>
        <pt x="250" y="187" on="1"/>
        <pt x="356" y="293" on="1"/>
        <pt x="363" y="300" on="0"/>
        <pt x="363" y="310" on="1"/>
        <pt x="363" y="319" on="0"/>
        <pt x="356" y="326" on="1"/>
        <pt x="250" y="432" on="1"/>
        <pt x="199" y="383" on="1"/>
        <pt x="186" y="370" on="0"/>
        <pt x="166" y="370" on="1"/>
        <pt x="-766" y="370" on="1"/>
        <pt x="-786" y="370" on="0"/>
        <pt x="-799" y="383" on="1"/>
        <pt x="-850" y="432" on="1"/>
        <pt x="-956" y="326" on="1"/>
        <pt x="-963" y="319" on="0"/>
        <pt x="-963" y="310" on="1"/>
        <pt x="-963" y="300" on="0"/>
        <pt x="-956" y="293" on="1"/>
        <pt x="-850" y="187" on="1"/>
        <pt x="-799" y="236" on="1"/>
        <pt x="-785" y="250" on="0"/>
        <pt x="-766" y="250" on="1"/>
      </contour>
      <contour>
        <pt x="128" y="460" on="1"/>
        <pt x="147" y="460" on="0"/>
        <pt x="161" y="473" on="1"/>
        <pt x="186" y="496" on="1"/>
        <pt x="148" y="534" on="1"/>
        <pt x="137" y="545" on="0"/>
        <pt x="137" y="562" on="1"/>
        <pt x="137" y="580" on="0"/>
        <pt x="166" y="609" on="0"/>
        <pt x="185" y="609" on="1"/>
        <pt x="200" y="609" on="0"/>
        <pt x="211" y="598" on="1"/>
        <pt x="471" y="338" on="1"/>
        <pt x="482" y="327" on="0"/>
        <pt x="482" y="310" on="1"/>
        <pt x="482" y="292" on="0"/>
        <pt x="471" y="281" on="1"/>
        <pt x="205" y="15" on="1"/>
        <pt x="194" y="4" on="0"/>
        <pt x="178" y="4" on="1"/>
        <pt x="160" y="4" on="0"/>
        <pt x="131" y="32" on="0"/>
        <pt x="131" y="51" on="1"/>
        <pt x="131" y="67" on="0"/>
        <pt x="142" y="78" on="1"/>
        <pt x="186" y="123" on="1"/>
        <pt x="161" y="146" on="1"/>
        <pt x="146" y="160" on="0"/>
        <pt x="128" y="160" on="1"/>
        <pt x="-728" y="160" on="1"/>
        <pt x="-746" y="160" on="0"/>
        <pt x="-761" y="146" on="1"/>
        <pt x="-786" y="123" on="1"/>
        <pt x="-742" y="78" on="1"/>
        <pt x="-731" y="67" on="0"/>
        <pt x="-731" y="51" on="1"/>
        <pt x="-731" y="32" on="0"/>
        <pt x="-760" y="4" on="0"/>
        <pt x="-778" y="4" on="1"/>
        <pt x="-794" y="4" on="0"/>
        <pt x="-805" y="15" on="1"/>
        <pt x="-1071" y="281" on="1"/>
        <pt x="-1082" y="292" on="0"/>
        <pt x="-1082" y="310" on="1"/>
        <pt x="-1082" y="327" on="0"/>
        <pt x="-1071" y="338" on="1"/>
        <pt x="-811" y="598" on="1"/>
        <pt x="-800" y="609" on="0"/>
        <pt x="-785" y="609" on="1"/>
        <pt x="-766" y="609" on="0"/>
        <pt x="-737" y="580" on="0"/>
        <pt x="-737" y="562" on="1"/>
        <pt x="-737" y="545" on="0"/>
        <pt x="-748" y="534" on="1"/>
        <pt x="-786" y="496" on="1"/>
        <pt x="-761" y="473" on="1"/>
        <pt x="-747" y="460" on="0"/>
        <pt x="-728" y="460" on="1"/>
      </contour>
    </TTGlyph>
    <TTGlyph name="left_right_arrow_double_long" xMin="-1682" yMin="4" xMax="482" yMax="609">
      <contour>
        <pt x="166" y="250" on="1"/>
        <pt x="185" y="250" on="0"/>
        <pt x="199" y="236" on="1"/>
        <pt x="250" y="187" on="1"/>
        <pt x="356" y="293" on="1"/>
        <pt x="363" y="300" on="0"/>
        <pt x="363" y="310" on="1"/>
        <pt x="363" y="319" on="0"/>
        <pt x="356" y="326" on="1"/>
        <pt x="250" y="432" on="1"/>
        <pt x="199" y="383" on="1"/>
        <pt x="186" y="370" on="0"/>
        <pt x="166" y="370" on="1"/>
        <pt x="-1366" y="370" on="1"/>
        <pt x="-1386" y="370" on="0"/>
        <pt x="-1399" y="383" on="1"/>
        <pt x="-1450" y="432" on="1"/>
        <pt x="-1556" y="326" on="1"/>
        <pt x="-1563" y="319" on="0"/>
        <pt x="-1563" y="310" on="1"/>
        <pt x="-1563" y="300" on="0"/>
        <pt x="-1556" y="293" on="1"/>
        <pt x="-1450" y="187" on="1"/>
        <pt x="-1399" y="236" on="1"/>
        <pt x="-1385" y="250" on="0"/>
        <pt x="-1366" y="250" on="1"/>
      </contour>
      <contour>
        <pt x="128" y="460" on="1"/>
        <pt x="147" y="460" on="0"/>
        <pt x="161" y="473" on="1"/>
        <pt x="186" y="496" on="1"/>
        <pt x="148" y="534" on="1"/>
        <pt x="137" y="545" on="0"/>
        <pt x="137" y="562" on="1"/>
        <pt x="137" y="580" on="0"/>
        <pt x="166" y="609" on="0"/>
        <pt x="185" y="609" on="1"/>
        <pt x="200" y="609" on="0"/>
        <pt x="211" y="598" on="1"/>
        <pt x="471" y="338" on="1"/>
        <pt x="482" y="327" on="0"/>
        <pt x="482" y="310" on="1"/>
        <pt x="482" y="292" on="0"/>
        <pt x="471" y="281" on="1"/>
        <pt x="205" y="15" on="1"/>
        <pt x="194" y="4" on="0"/>
        <pt x="178" y="4" on="1"/>
        <pt x="160" y="4" on="0"/>
        <pt x="131" y="32" on="0"/>
        <pt x="131" y="51" on="1"/>
        <pt x="131" y="67" on="0"/>
        <pt x="142" y="78" on="1"/>
        <pt x="186" y="123" on="1"/>
        <pt x="161" y="146" on="1"/>
        <pt x="146" y="160" on="0"/>
        <pt x="128" y="160" on="1"/>
        <pt x="-1328" y="160" on="1"/>
        <pt x="-1346" y="160" on="0"/>
        <pt x="-1361" y="146" on="1"/>
        <pt x="-1386" y="123" on="1"/>
        <pt x="-1342" y="78" on="1"/>
        <pt x="-1331" y="67" on="0"/>
        <pt x="-1331" y="51" on="1"/>
        <pt x="-1331" y="32" on="0"/>
        <pt x="-1360" y="4" on="0"/>
        <pt x="-1378" y="4" on="1"/>
        <pt x="-1394" y="4" on="0"/>
        <pt x="-1405" y="15" on="1"/>
        <pt x="-1671" y="281" on="1"/>
        <pt x="-1682" y="292" on="0"/>
        <pt x="-1682" y="310" on="1"/>
        <pt x="-1682" y="327" on="0"/>
        <pt x="-1671" y="338" on="1"/>
        <pt x="-1411" y="598" on="1"/>
        <pt x="-1400" y="609" on="0"/>
        <pt x="-1385" y="609" on="1"/>
        <pt x="-1366" y="609" on="0"/>
        <pt x="-1337" y="580" on="0"/>
        <pt x="-1337" y="562" on="1"/>
        <pt x="-1337" y="545" on="0"/>
        <pt x="-1348" y="534" on="1"/>
        <pt x="-1386" y="496" on="1"/>
        <pt x="-1361" y="473" on="1"/>
        <pt x="-1347" y="460" on="0"/>
        <pt x="-1328" y="460" on="1"/>
      </contour>
    </TTGlyph>
    <TTGlyph name="left_right_arrow_single" xMin="-1082" yMin="4" xMax="482" yMax="609">
      <contour>
        <pt x="293" y="239" on="1"/>
        <pt x="302" y="239" on="0"/>
        <pt x="309" y="246" on="1"/>
        <pt x="356" y="293" on="1"/>
        <pt x="363" y="300" on="0"/>
        <pt x="363" y="309" on="1"/>
        <pt x="363" y="318" on="0"/>
        <pt x="356" y="326" on="1"/>
        <pt x="309" y="373" on="1"/>
        <pt x="302" y="380" on="0"/>
        <pt x="293" y="380" on="1"/>
        <pt x="284" y="380" on="0"/>
        <pt x="276" y="373" on="1"/>
        <pt x="228" y="327" on="1"/>
        <pt x="225" y="324" on="0"/>
        <pt x="221" y="315" on="0"/>
        <pt x="221" y="310" on="1"/>
        <pt x="221" y="306" on="0"/>
        <pt x="225" y="296" on="0"/>
        <pt x="228" y="293" on="1"/>
        <pt x="276" y="246" on="1"/>
        <pt x="284" y="239" on="0"/>
      </contour>
      <contour>
        <pt x="-892" y="239" on="1"/>
        <pt x="-883" y="239" on="0"/>
        <pt x="-876" y="246" on="1"/>
        <pt x="-828" y="293" on="1"/>
        <pt x="-825" y="296" on="0"/>
        <pt x="-821" y="306" on="0"/>
        <pt x="-821" y="310" on="1"/>
        <pt x="-821" y="315" on="0"/>
        <pt x="-825" y="324" on="0"/>
        <pt x="-828" y="327" on="1"/>
        <pt x="-876" y="373" on="1"/>
        <pt x="-883" y="380" on="0"/>
        <pt x="-892" y="380" on="1"/>
        <pt x="-901" y="380" on="0"/>
        <pt x="-909" y="373" on="1"/>
        <pt x="-956" y="326" on="1"/>
        <pt x="-963" y="318" on="0"/>
        <pt x="-963" y="309" on="1"/>
        <pt x="-963" y="300" on="0"/>
        <pt x="-956" y="293" on="1"/>
        <pt x="-909" y="246" on="1"/>
        <pt x="-901" y="239" on="0"/>
      </contour>
      <contour>
        <pt x="128" y="355" on="1"/>
        <pt x="229" y="453" on="1"/>
        <pt x="148" y="534" on="1"/>
        <pt x="137" y="546" on="0"/>
        <pt x="137" y="562" on="1"/>
        <pt x="137" y="580" on="0"/>
        <pt x="166" y="609" on="0"/>
        <pt x="185" y="609" on="1"/>
        <pt x="200" y="609" on="0"/>
        <pt x="211" y="598" on="1"/>
        <pt x="471" y="338" on="1"/>
        <pt x="482" y="325" on="0"/>
        <pt x="482" y="310" on="1"/>
        <pt x="482" y="293" on="0"/>
        <pt x="471" y="281" on="1"/>
        <pt x="205" y="16" on="1"/>
        <pt x="193" y="4" on="0"/>
        <pt x="178" y="4" on="1"/>
        <pt x="160" y="4" on="0"/>
        <pt x="131" y="33" on="0"/>
        <pt x="131" y="51" on="1"/>
        <pt x="131" y="67" on="0"/>
        <pt x="142" y="79" on="1"/>
        <pt x="229" y="166" on="1"/>
        <pt x="128" y="265" on="1"/>
        <pt x="-728" y="265" on="1"/>
        <pt x="-829" y="166" on="1"/>
        <pt x="-742" y="79" on="1"/>
        <pt x="-731" y="67" on="0"/>
        <pt x="-731" y="51" on="1"/>
        <pt x="-731" y="33" on="0"/>
        <pt x="-760" y="4" on="0"/>
        <pt x="-778" y="4" on="1"/>
        <pt x="-793" y="4" on="0"/>
        <pt x="-805" y="16" on="1"/>
        <pt x="-1071" y="281" on="1"/>
        <pt x="-1082" y="293" on="0"/>
        <pt x="-1082" y="310" on="1"/>
        <pt x="-1082" y="325" on="0"/>
        <pt x="-1071" y="338" on="1"/>
        <pt x="-811" y="598" on="1"/>
        <pt x="-799" y="609" on="0"/>
        <pt x="-784" y="609" on="1"/>
        <pt x="-766" y="609" on="0"/>
        <pt x="-737" y="580" on="0"/>
        <pt x="-737" y="562" on="1"/>
        <pt x="-737" y="546" on="0"/>
        <pt x="-748" y="534" on="1"/>
        <pt x="-828" y="453" on="1"/>
        <pt x="-728" y="355" on="1"/>
      </contour>
    </TTGlyph>
    <TTGlyph name="left_right_arrow_single_long" xMin="-1682" yMin="4" xMax="482" yMax="609">
      <contour>
        <pt x="293" y="239" on="1"/>
        <pt x="302" y="239" on="0"/>
        <pt x="309" y="246" on="1"/>
        <pt x="356" y="293" on="1"/>
        <pt x="363" y="300" on="0"/>
        <pt x="363" y="309" on="1"/>
        <pt x="363" y="318" on="0"/>
        <pt x="356" y="326" on="1"/>
        <pt x="309" y="373" on="1"/>
        <pt x="302" y="380" on="0"/>
        <pt x="293" y="380" on="1"/>
        <pt x="284" y="380" on="0"/>
        <pt x="276" y="373" on="1"/>
        <pt x="228" y="327" on="1"/>
        <pt x="225" y="324" on="0"/>
        <pt x="221" y="315" on="0"/>
        <pt x="221" y="310" on="1"/>
        <pt x="221" y="306" on="0"/>
        <pt x="225" y="296" on="0"/>
        <pt x="228" y="293" on="1"/>
        <pt x="276" y="246" on="1"/>
        <pt x="284" y="239" on="0"/>
      </contour>
      <contour>
        <pt x="-1492" y="239" on="1"/>
        <pt x="-1483" y="239" on="0"/>
        <pt x="-1476" y="246" on="1"/>
        <pt x="-1428" y="293" on="1"/>
        <pt x="-1425" y="296" on="0"/>
        <pt x="-1421" y="306" on="0"/>
        <pt x="-1421" y="310" on="1"/>
        <pt x="-1421" y="315" on="0"/>
        <pt x="-1425" y="324" on="0"/>
        <pt x="-1428" y="327" on="1"/>
        <pt x="-1476" y="373" on="1"/>
        <pt x="-1483" y="380" on="0"/>
        <pt x="-1492" y="380" on="1"/>
        <pt x="-1501" y="380" on="0"/>
        <pt x="-1509" y="373" on="1"/>
        <pt x="-1556" y="326" on="1"/>
        <pt x="-1563" y="318" on="0"/>
        <pt x="-1563" y="309" on="1"/>
        <pt x="-1563" y="300" on="0"/>
        <pt x="-1556" y="293" on="1"/>
        <pt x="-1509" y="246" on="1"/>
        <pt x="-1501" y="239" on="0"/>
      </contour>
      <contour>
        <pt x="128" y="355" on="1"/>
        <pt x="229" y="453" on="1"/>
        <pt x="148" y="534" on="1"/>
        <pt x="137" y="546" on="0"/>
        <pt x="137" y="562" on="1"/>
        <pt x="137" y="580" on="0"/>
        <pt x="166" y="609" on="0"/>
        <pt x="185" y="609" on="1"/>
        <pt x="200" y="609" on="0"/>
        <pt x="211" y="598" on="1"/>
        <pt x="471" y="338" on="1"/>
        <pt x="482" y="325" on="0"/>
        <pt x="482" y="310" on="1"/>
        <pt x="482" y="293" on="0"/>
        <pt x="471" y="281" on="1"/>
        <pt x="205" y="16" on="1"/>
        <pt x="193" y="4" on="0"/>
        <pt x="178" y="4" on="1"/>
        <pt x="160" y="4" on="0"/>
        <pt x="131" y="33" on="0"/>
        <pt x="131" y="51" on="1"/>
        <pt x="131" y="67" on="0"/>
        <pt x="142" y="79" on="1"/>
        <pt x="229" y="166" on="1"/>
        <pt x="128" y="265" on="1"/>
        <pt x="-1328" y="265" on="1"/>
        <pt x="-1429" y="166" on="1"/>
        <pt x="-1342" y="79" on="1"/>
        <pt x="-1331" y="67" on="0"/>
        <pt x="-1331" y="51" on="1"/>
        <pt x="-1331" y="33" on="0"/>
        <pt x="-1360" y="4" on="0"/>
        <pt x="-1378" y="4" on="1"/>
        <pt x="-1393" y="4" on="0"/>
        <pt x="-1405" y="16" on="1"/>
        <pt x="-1671" y="281" on="1"/>
        <pt x="-1682" y="293" on="0"/>
        <pt x="-1682" y="310" on="1"/>
        <pt x="-1682" y="325" on="0"/>
        <pt x="-1671" y="338" on="1"/>
        <pt x="-1411" y="598" on="1"/>
        <pt x="-1399" y="609" on="0"/>
        <pt x="-1384" y="609" on="1"/>
        <pt x="-1366" y="609" on="0"/>
        <pt x="-1337" y="580" on="0"/>
        <pt x="-1337" y="562" on="1"/>
        <pt x="-1337" y="546" on="0"/>
        <pt x="-1348" y="534" on="1"/>
        <pt x="-1428" y="453" on="1"/>
        <pt x="-1328" y="355" on="1"/>
      </contour>
    </TTGlyph>
    <TTGlyph name="less" xMin="78" yMin="79" xMax="525" yMax="539">
      <contour>
        <pt x="480" y="79" on="1"/>
        <pt x="470" y="79" on="0"/>
        <pt x="460" y="83" on="1"/>
        <pt x="103" y="270" on="1"/>
        <pt x="78" y="285" on="0"/>
        <pt x="78" y="311" on="1"/>
        <pt x="78" y="335" on="0"/>
        <pt x="103" y="351" on="1"/>
        <pt x="459" y="534" on="1"/>
        <pt x="469" y="539" on="0"/>
        <pt x="480" y="539" on="1"/>
        <pt x="505" y="539" on="0"/>
        <pt x="520" y="512" on="1"/>
        <pt x="524" y="503" on="0"/>
        <pt x="524" y="495" on="1"/>
        <pt x="524" y="469" on="0"/>
        <pt x="498" y="453" on="1"/>
        <pt x="254" y="324" on="1"/>
        <pt x="245" y="319" on="0"/>
        <pt x="245" y="310" on="1"/>
        <pt x="245" y="302" on="0"/>
        <pt x="254" y="296" on="1"/>
        <pt x="499" y="165" on="1"/>
        <pt x="525" y="149" on="0"/>
        <pt x="525" y="123" on="1"/>
        <pt x="525" y="115" on="0"/>
        <pt x="521" y="106" on="1"/>
        <pt x="506" y="79" on="0"/>
      </contour>
    </TTGlyph>
    <TTGlyph name="less_less" xMin="-462" yMin="79" xMax="465" yMax="539">
      <contour>
        <pt x="420" y="79" on="1"/>
        <pt x="410" y="79" on="0"/>
        <pt x="400" y="83" on="1"/>
        <pt x="43" y="270" on="1"/>
        <pt x="18" y="285" on="0"/>
        <pt x="18" y="311" on="1"/>
        <pt x="18" y="335" on="0"/>
        <pt x="43" y="351" on="1"/>
        <pt x="399" y="534" on="1"/>
        <pt x="409" y="539" on="0"/>
        <pt x="420" y="539" on="1"/>
        <pt x="445" y="539" on="0"/>
        <pt x="460" y="512" on="1"/>
        <pt x="464" y="503" on="0"/>
        <pt x="464" y="495" on="1"/>
        <pt x="464" y="469" on="0"/>
        <pt x="438" y="453" on="1"/>
        <pt x="194" y="324" on="1"/>
        <pt x="185" y="319" on="0"/>
        <pt x="185" y="310" on="1"/>
        <pt x="185" y="302" on="0"/>
        <pt x="194" y="296" on="1"/>
        <pt x="439" y="165" on="1"/>
        <pt x="465" y="149" on="0"/>
        <pt x="465" y="123" on="1"/>
        <pt x="465" y="115" on="0"/>
        <pt x="461" y="106" on="1"/>
        <pt x="446" y="79" on="0"/>
      </contour>
      <contour>
        <pt x="-60" y="79" on="1"/>
        <pt x="-70" y="79" on="0"/>
        <pt x="-80" y="83" on="1"/>
        <pt x="-437" y="270" on="1"/>
        <pt x="-462" y="285" on="0"/>
        <pt x="-462" y="311" on="1"/>
        <pt x="-462" y="335" on="0"/>
        <pt x="-437" y="351" on="1"/>
        <pt x="-81" y="534" on="1"/>
        <pt x="-71" y="539" on="0"/>
        <pt x="-60" y="539" on="1"/>
        <pt x="-35" y="539" on="0"/>
        <pt x="-20" y="512" on="1"/>
        <pt x="-16" y="503" on="0"/>
        <pt x="-16" y="495" on="1"/>
        <pt x="-16" y="469" on="0"/>
        <pt x="-42" y="453" on="1"/>
        <pt x="-286" y="324" on="1"/>
        <pt x="-295" y="319" on="0"/>
        <pt x="-295" y="310" on="1"/>
        <pt x="-295" y="302" on="0"/>
        <pt x="-286" y="296" on="1"/>
        <pt x="-41" y="165" on="1"/>
        <pt x="-15" y="149" on="0"/>
        <pt x="-15" y="123" on="1"/>
        <pt x="-15" y="115" on="0"/>
        <pt x="-19" y="106" on="1"/>
        <pt x="-34" y="79" on="0"/>
      </contour>
    </TTGlyph>
    <TTGlyph name="less_less_less" xMin="-1002" yMin="79" xMax="405" yMax="539">
      <contour>
        <pt x="360" y="79" on="1"/>
        <pt x="350" y="79" on="0"/>
        <pt x="340" y="83" on="1"/>
        <pt x="-17" y="270" on="1"/>
        <pt x="-42" y="285" on="0"/>
        <pt x="-42" y="311" on="1"/>
        <pt x="-42" y="335" on="0"/>
        <pt x="-17" y="351" on="1"/>
        <pt x="339" y="534" on="1"/>
        <pt x="349" y="539" on="0"/>
        <pt x="360" y="539" on="1"/>
        <pt x="385" y="539" on="0"/>
        <pt x="400" y="512" on="1"/>
        <pt x="404" y="503" on="0"/>
        <pt x="404" y="495" on="1"/>
        <pt x="404" y="469" on="0"/>
        <pt x="378" y="453" on="1"/>
        <pt x="134" y="324" on="1"/>
        <pt x="125" y="319" on="0"/>
        <pt x="125" y="310" on="1"/>
        <pt x="125" y="302" on="0"/>
        <pt x="134" y="296" on="1"/>
        <pt x="379" y="165" on="1"/>
        <pt x="405" y="149" on="0"/>
        <pt x="405" y="123" on="1"/>
        <pt x="405" y="115" on="0"/>
        <pt x="401" y="106" on="1"/>
        <pt x="386" y="79" on="0"/>
      </contour>
      <contour>
        <pt x="-120" y="79" on="1"/>
        <pt x="-130" y="79" on="0"/>
        <pt x="-140" y="83" on="1"/>
        <pt x="-497" y="270" on="1"/>
        <pt x="-522" y="285" on="0"/>
        <pt x="-522" y="311" on="1"/>
        <pt x="-522" y="335" on="0"/>
        <pt x="-497" y="351" on="1"/>
        <pt x="-141" y="534" on="1"/>
        <pt x="-131" y="539" on="0"/>
        <pt x="-120" y="539" on="1"/>
        <pt x="-95" y="539" on="0"/>
        <pt x="-80" y="512" on="1"/>
        <pt x="-76" y="503" on="0"/>
        <pt x="-76" y="495" on="1"/>
        <pt x="-76" y="469" on="0"/>
        <pt x="-102" y="453" on="1"/>
        <pt x="-346" y="324" on="1"/>
        <pt x="-355" y="319" on="0"/>
        <pt x="-355" y="310" on="1"/>
        <pt x="-355" y="302" on="0"/>
        <pt x="-346" y="296" on="1"/>
        <pt x="-101" y="165" on="1"/>
        <pt x="-75" y="149" on="0"/>
        <pt x="-75" y="123" on="1"/>
        <pt x="-75" y="115" on="0"/>
        <pt x="-79" y="106" on="1"/>
        <pt x="-94" y="79" on="0"/>
      </contour>
      <contour>
        <pt x="-600" y="79" on="1"/>
        <pt x="-610" y="79" on="0"/>
        <pt x="-620" y="83" on="1"/>
        <pt x="-977" y="270" on="1"/>
        <pt x="-1002" y="285" on="0"/>
        <pt x="-1002" y="311" on="1"/>
        <pt x="-1002" y="335" on="0"/>
        <pt x="-977" y="351" on="1"/>
        <pt x="-621" y="534" on="1"/>
        <pt x="-611" y="539" on="0"/>
        <pt x="-600" y="539" on="1"/>
        <pt x="-575" y="539" on="0"/>
        <pt x="-560" y="512" on="1"/>
        <pt x="-556" y="503" on="0"/>
        <pt x="-556" y="495" on="1"/>
        <pt x="-556" y="469" on="0"/>
        <pt x="-582" y="453" on="1"/>
        <pt x="-826" y="324" on="1"/>
        <pt x="-835" y="319" on="0"/>
        <pt x="-835" y="310" on="1"/>
        <pt x="-835" y="302" on="0"/>
        <pt x="-826" y="296" on="1"/>
        <pt x="-581" y="165" on="1"/>
        <pt x="-555" y="149" on="0"/>
        <pt x="-555" y="123" on="1"/>
        <pt x="-555" y="115" on="0"/>
        <pt x="-559" y="106" on="1"/>
        <pt x="-574" y="79" on="0"/>
      </contour>
    </TTGlyph>
    <TTGlyph name="less_slash" xMin="-472" yMin="-150" xMax="512" yMax="850">
      <contour>
        <pt x="104" y="82" on="1"/>
        <pt x="425" y="823" on="1"/>
        <pt x="440" y="850" on="0"/>
        <pt x="466" y="850" on="1"/>
        <pt x="476" y="850" on="0"/>
        <pt x="485" y="846" on="1"/>
        <pt x="512" y="831" on="0"/>
        <pt x="512" y="805" on="1"/>
        <pt x="512" y="796" on="0"/>
        <pt x="508" y="787" on="1"/>
        <pt x="114" y="-123" on="1"/>
        <pt x="99" y="-150" on="0"/>
        <pt x="73" y="-150" on="1"/>
        <pt x="64" y="-150" on="0"/>
        <pt x="55" y="-146" on="1"/>
        <pt x="27" y="-131" on="0"/>
        <pt x="27" y="-105" on="1"/>
        <pt x="27" y="-96" on="0"/>
        <pt x="31" y="-87" on="1"/>
        <pt x="69" y="0" on="1"/>
        <pt x="-447" y="270" on="1"/>
        <pt x="-472" y="285" on="0"/>
        <pt x="-472" y="310" on="1"/>
        <pt x="-472" y="311" on="1"/>
        <pt x="-472" y="335" on="0"/>
        <pt x="-447" y="351" on="1"/>
        <pt x="-91" y="534" on="1"/>
        <pt x="-81" y="539" on="0"/>
        <pt x="-70" y="539" on="1"/>
        <pt x="-45" y="539" on="0"/>
        <pt x="-30" y="512" on="1"/>
        <pt x="-26" y="503" on="0"/>
        <pt x="-26" y="495" on="1"/>
        <pt x="-26" y="469" on="0"/>
        <pt x="-52" y="453" on="1"/>
        <pt x="-296" y="324" on="1"/>
        <pt x="-305" y="319" on="0"/>
        <pt x="-305" y="310" on="1"/>
        <pt x="-305" y="302" on="0"/>
        <pt x="-296" y="296" on="1"/>
      </contour>
    </TTGlyph>
    <TTGlyph name="less_slash_uni003E" xMin="-1052" yMin="-150" xMax="452" yMax="850">
      <contour>
        <pt x="-127" y="637" on="1"/>
        <pt x="427" y="351" on="1"/>
        <pt x="452" y="336" on="0"/>
        <pt x="452" y="311" on="1"/>
        <pt x="452" y="310" on="1"/>
        <pt x="452" y="286" on="0"/>
        <pt x="427" y="270" on="1"/>
        <pt x="71" y="87" on="1"/>
        <pt x="61" y="82" on="0"/>
        <pt x="50" y="82" on="1"/>
        <pt x="25" y="82" on="0"/>
        <pt x="10" y="109" on="1"/>
        <pt x="6" y="117" on="0"/>
        <pt x="6" y="126" on="1"/>
        <pt x="6" y="151" on="0"/>
        <pt x="32" y="168" on="1"/>
        <pt x="276" y="297" on="1"/>
        <pt x="285" y="302" on="0"/>
        <pt x="285" y="310" on="1"/>
        <pt x="285" y="319" on="0"/>
        <pt x="276" y="325" on="1"/>
        <pt x="-162" y="555" on="1"/>
        <pt x="-456" y="-123" on="1"/>
        <pt x="-471" y="-150" on="0"/>
        <pt x="-497" y="-150" on="1"/>
        <pt x="-506" y="-150" on="0"/>
        <pt x="-515" y="-146" on="1"/>
        <pt x="-543" y="-131" on="0"/>
        <pt x="-543" y="-105" on="1"/>
        <pt x="-543" y="-96" on="0"/>
        <pt x="-539" y="-87" on="1"/>
        <pt x="-504" y="-6" on="1"/>
        <pt x="-1027" y="270" on="1"/>
        <pt x="-1052" y="285" on="0"/>
        <pt x="-1052" y="310" on="1"/>
        <pt x="-1052" y="311" on="1"/>
        <pt x="-1052" y="335" on="0"/>
        <pt x="-1027" y="351" on="1"/>
        <pt x="-671" y="534" on="1"/>
        <pt x="-661" y="539" on="0"/>
        <pt x="-650" y="539" on="1"/>
        <pt x="-625" y="539" on="0"/>
        <pt x="-610" y="512" on="1"/>
        <pt x="-606" y="503" on="0"/>
        <pt x="-606" y="495" on="1"/>
        <pt x="-606" y="469" on="0"/>
        <pt x="-632" y="453" on="1"/>
        <pt x="-876" y="324" on="1"/>
        <pt x="-885" y="319" on="0"/>
        <pt x="-885" y="310" on="1"/>
        <pt x="-885" y="302" on="0"/>
        <pt x="-876" y="296" on="1"/>
        <pt x="-468" y="77" on="1"/>
        <pt x="-145" y="823" on="1"/>
        <pt x="-130" y="850" on="0"/>
        <pt x="-104" y="850" on="1"/>
        <pt x="-94" y="850" on="0"/>
        <pt x="-85" y="846" on="1"/>
        <pt x="-58" y="831" on="0"/>
        <pt x="-58" y="805" on="1"/>
        <pt x="-58" y="796" on="0"/>
        <pt x="-62" y="787" on="1"/>
      </contour>
    </TTGlyph>
    <TTGlyph name="less_uni003E" xMin="-482" yMin="35" xMax="485" yMax="582">
      <contour>
        <pt x="0" y="35" on="1"/>
        <pt x="-15" y="35" on="0"/>
        <pt x="-26" y="44" on="1"/>
        <pt x="-457" y="270" on="1"/>
        <pt x="-482" y="285" on="0"/>
        <pt x="-482" y="311" on="1"/>
        <pt x="-482" y="335" on="0"/>
        <pt x="-457" y="351" on="1"/>
        <pt x="-25" y="573" on="1"/>
        <pt x="-14" y="582" on="0"/>
        <pt x="0" y="582" on="1"/>
        <pt x="3" y="582" on="1"/>
        <pt x="17" y="582" on="0"/>
        <pt x="28" y="573" on="1"/>
        <pt x="460" y="351" on="1"/>
        <pt x="485" y="335" on="0"/>
        <pt x="485" y="311" on="1"/>
        <pt x="485" y="285" on="0"/>
        <pt x="460" y="270" on="1"/>
        <pt x="29" y="44" on="1"/>
        <pt x="18" y="35" on="0"/>
        <pt x="3" y="35" on="1"/>
      </contour>
      <contour>
        <pt x="2" y="132" on="1"/>
        <pt x="309" y="296" on="1"/>
        <pt x="318" y="302" on="0"/>
        <pt x="318" y="310" on="1"/>
        <pt x="318" y="319" on="0"/>
        <pt x="309" y="324" on="1"/>
        <pt x="2" y="486" on="1"/>
        <pt x="-306" y="324" on="1"/>
        <pt x="-315" y="319" on="0"/>
        <pt x="-315" y="310" on="1"/>
        <pt x="-315" y="302" on="0"/>
        <pt x="-306" y="296" on="1"/>
      </contour>
    </TTGlyph>
    <TTGlyph name="m" xMin="70" yMin="-5" xMax="519" yMax="555">
      <contour>
        <pt x="474" y="-5" on="1"/>
        <pt x="455" y="-5" on="0"/>
        <pt x="429" y="22" on="0"/>
        <pt x="429" y="40" on="1"/>
        <pt x="429" y="411" on="1"/>
        <pt x="429" y="437" on="0"/>
        <pt x="402" y="466" on="0"/>
        <pt x="383" y="466" on="1"/>
        <pt x="364" y="466" on="0"/>
        <pt x="339" y="432" on="0"/>
        <pt x="339" y="412" on="1"/>
        <pt x="339" y="40" on="1"/>
        <pt x="339" y="21" on="0"/>
        <pt x="313" y="-5" on="0"/>
        <pt x="294" y="-5" on="1"/>
        <pt x="276" y="-5" on="0"/>
        <pt x="250" y="21" on="0"/>
        <pt x="250" y="40" on="1"/>
        <pt x="250" y="414" on="1"/>
        <pt x="250" y="442" on="0"/>
        <pt x="225" y="467" on="0"/>
        <pt x="205" y="467" on="1"/>
        <pt x="186" y="467" on="0"/>
        <pt x="160" y="432" on="0"/>
        <pt x="160" y="405" on="1"/>
        <pt x="160" y="40" on="1"/>
        <pt x="160" y="21" on="0"/>
        <pt x="134" y="-5" on="0"/>
        <pt x="115" y="-5" on="1"/>
        <pt x="96" y="-5" on="0"/>
        <pt x="70" y="21" on="0"/>
        <pt x="70" y="40" on="1"/>
        <pt x="70" y="513" on="1"/>
        <pt x="70" y="530" on="0"/>
        <pt x="95" y="555" on="0"/>
        <pt x="112" y="555" on="1"/>
        <pt x="130" y="555" on="0"/>
        <pt x="150" y="531" on="0"/>
        <pt x="152" y="513" on="1"/>
        <pt x="153" y="495" on="1"/>
        <pt x="154" y="492" on="0"/>
        <pt x="158" y="492" on="1"/>
        <pt x="161" y="492" on="0"/>
        <pt x="163" y="496" on="1"/>
        <pt x="175" y="529" on="0"/>
        <pt x="215" y="555" on="0"/>
        <pt x="243" y="555" on="1"/>
        <pt x="270" y="555" on="0"/>
        <pt x="291" y="539" on="1"/>
        <pt x="313" y="526" on="0"/>
        <pt x="319" y="492" on="1"/>
        <pt x="321" y="488" on="0"/>
        <pt x="324" y="488" on="1"/>
        <pt x="327" y="488" on="0"/>
        <pt x="328" y="492" on="1"/>
        <pt x="335" y="525" on="0"/>
        <pt x="359" y="539" on="1"/>
        <pt x="381" y="555" on="0"/>
        <pt x="417" y="555" on="1"/>
        <pt x="462" y="555" on="0"/>
        <pt x="519" y="487" on="0"/>
        <pt x="519" y="424" on="1"/>
        <pt x="519" y="40" on="1"/>
        <pt x="519" y="21" on="0"/>
        <pt x="493" y="-5" on="0"/>
      </contour>
    </TTGlyph>
    <TTGlyph name="n" xMin="85" yMin="-5" xMax="520" yMax="555">
      <contour>
        <pt x="520" y="41" on="1"/>
        <pt x="520" y="20" on="0"/>
        <pt x="498" y="-5" on="0"/>
        <pt x="477" y="-5" on="1"/>
        <pt x="457" y="-5" on="0"/>
        <pt x="432" y="20" on="0"/>
        <pt x="432" y="41" on="1"/>
        <pt x="432" y="336" on="1"/>
        <pt x="430" y="458" on="0"/>
        <pt x="325" y="458" on="1"/>
        <pt x="277" y="457" on="0"/>
        <pt x="230" y="416" on="1"/>
        <pt x="173" y="366" on="0"/>
        <pt x="173" y="315" on="1"/>
        <pt x="173" y="41" on="1"/>
        <pt x="173" y="20" on="0"/>
        <pt x="151" y="-5" on="0"/>
        <pt x="130" y="-5" on="1"/>
        <pt x="110" y="-5" on="0"/>
        <pt x="85" y="20" on="0"/>
        <pt x="85" y="41" on="1"/>
        <pt x="85" y="508" on="1"/>
        <pt x="85" y="528" on="0"/>
        <pt x="112" y="555" on="0"/>
        <pt x="130" y="555" on="1"/>
        <pt x="148" y="555" on="0"/>
        <pt x="175" y="528" on="0"/>
        <pt x="175" y="508" on="1"/>
        <pt x="175" y="492" on="1"/>
        <pt x="175" y="477" on="0"/>
        <pt x="185" y="477" on="1"/>
        <pt x="190" y="477" on="0"/>
        <pt x="197" y="484" on="1"/>
        <pt x="264" y="554" on="0"/>
        <pt x="338" y="555" on="1"/>
        <pt x="426" y="555" on="0"/>
        <pt x="471" y="505" on="1"/>
        <pt x="520" y="453" on="0"/>
        <pt x="520" y="342" on="1"/>
      </contour>
    </TTGlyph>
    <TTGlyph name="nine" xMin="75" yMin="-5" xMax="525" yMax="755">
      <contour>
        <pt x="178" y="-5" on="1"/>
        <pt x="158" y="-5" on="1"/>
        <pt x="140" y="-5" on="0"/>
        <pt x="115" y="21" on="0"/>
        <pt x="115" y="38" on="1"/>
        <pt x="115" y="56" on="0"/>
        <pt x="140" y="80" on="0"/>
        <pt x="175" y="82" on="0"/>
        <pt x="188" y="83" on="1"/>
        <pt x="226" y="84" on="0"/>
        <pt x="275" y="90" on="0"/>
        <pt x="300" y="101" on="1"/>
        <pt x="378" y="135" on="0"/>
        <pt x="413" y="215" on="1"/>
        <pt x="430" y="249" on="0"/>
        <pt x="434" y="300" on="1"/>
        <pt x="434" y="308" on="0"/>
        <pt x="425" y="317" on="0"/>
        <pt x="418" y="317" on="1"/>
        <pt x="415" y="317" on="0"/>
        <pt x="411" y="315" on="1"/>
        <pt x="353" y="284" on="0"/>
        <pt x="279" y="284" on="1"/>
        <pt x="182" y="284" on="0"/>
        <pt x="75" y="401" on="0"/>
        <pt x="75" y="511" on="1"/>
        <pt x="75" y="578" on="0"/>
        <pt x="130" y="689" on="0"/>
        <pt x="234" y="755" on="0"/>
        <pt x="308" y="755" on="1"/>
        <pt x="524" y="755" on="0"/>
        <pt x="525" y="422" on="1"/>
        <pt x="525" y="206" on="0"/>
        <pt x="354" y="-5" on="0"/>
      </contour>
      <contour>
        <pt x="297" y="369" on="1"/>
        <pt x="326" y="369" on="0"/>
        <pt x="396" y="397" on="0"/>
        <pt x="423" y="423" on="1"/>
        <pt x="436" y="436" on="0"/>
        <pt x="436" y="455" on="1"/>
        <pt x="432" y="556" on="0"/>
        <pt x="366" y="665" on="0"/>
        <pt x="301" y="665" on="1"/>
        <pt x="233" y="665" on="0"/>
        <pt x="163" y="578" on="0"/>
        <pt x="163" y="517" on="1"/>
        <pt x="163" y="444" on="0"/>
        <pt x="226" y="369" on="0"/>
      </contour>
    </TTGlyph>
    <TTGlyph name="numbersign" xMin="0" yMin="-5" xMax="600" yMax="755">
      <contour>
        <pt x="230" y="360" on="1"/>
        <pt x="140" y="360" on="1"/>
        <pt x="140" y="710" on="1"/>
        <pt x="140" y="728" on="0"/>
        <pt x="166" y="755" on="0"/>
        <pt x="185" y="755" on="1"/>
        <pt x="204" y="755" on="0"/>
        <pt x="230" y="728" on="0"/>
        <pt x="230" y="710" on="1"/>
      </contour>
      <contour>
        <pt x="185" y="-5" on="1"/>
        <pt x="166" y="-5" on="0"/>
        <pt x="140" y="21" on="0"/>
        <pt x="140" y="40" on="1"/>
        <pt x="140" y="150" on="1"/>
        <pt x="230" y="150" on="1"/>
        <pt x="230" y="40" on="1"/>
        <pt x="230" y="21" on="0"/>
        <pt x="204" y="-5" on="0"/>
      </contour>
      <contour>
        <pt x="460" y="610" on="1"/>
        <pt x="370" y="610" on="1"/>
        <pt x="370" y="710" on="1"/>
        <pt x="370" y="728" on="0"/>
        <pt x="396" y="755" on="0"/>
        <pt x="415" y="755" on="1"/>
        <pt x="434" y="755" on="0"/>
        <pt x="460" y="728" on="0"/>
        <pt x="460" y="710" on="1"/>
      </contour>
      <contour>
        <pt x="415" y="-5" on="1"/>
        <pt x="396" y="-5" on="0"/>
        <pt x="370" y="21" on="0"/>
        <pt x="370" y="40" on="1"/>
        <pt x="370" y="400" on="1"/>
        <pt x="460" y="400" on="1"/>
        <pt x="460" y="40" on="1"/>
        <pt x="460" y="21" on="0"/>
        <pt x="434" y="-5" on="0"/>
      </contour>
      <contour>
        <pt x="90" y="460" on="1"/>
        <pt x="45" y="460" on="1"/>
        <pt x="26" y="460" on="0"/>
        <pt x="0" y="486" on="0"/>
        <pt x="0" y="505" on="1"/>
        <pt x="0" y="523" on="0"/>
        <pt x="26" y="550" on="0"/>
        <pt x="45" y="550" on="1"/>
        <pt x="90" y="550" on="1"/>
      </contour>
      <contour>
        <pt x="555" y="460" on="1"/>
        <pt x="280" y="460" on="1"/>
        <pt x="280" y="550" on="1"/>
        <pt x="555" y="550" on="1"/>
        <pt x="574" y="550" on="0"/>
        <pt x="600" y="523" on="0"/>
        <pt x="600" y="505" on="1"/>
        <pt x="600" y="486" on="0"/>
        <pt x="574" y="460" on="0"/>
      </contour>
      <contour>
        <pt x="320" y="210" on="1"/>
        <pt x="45" y="210" on="1"/>
        <pt x="26" y="210" on="0"/>
        <pt x="0" y="236" on="0"/>
        <pt x="0" y="255" on="1"/>
        <pt x="0" y="273" on="0"/>
        <pt x="26" y="300" on="0"/>
        <pt x="45" y="300" on="1"/>
        <pt x="320" y="300" on="1"/>
      </contour>
      <contour>
        <pt x="555" y="210" on="1"/>
        <pt x="510" y="210" on="1"/>
        <pt x="510" y="300" on="1"/>
        <pt x="555" y="300" on="1"/>
        <pt x="574" y="300" on="0"/>
        <pt x="600" y="273" on="0"/>
        <pt x="600" y="255" on="1"/>
        <pt x="600" y="236" on="0"/>
        <pt x="574" y="210" on="0"/>
      </contour>
    </TTGlyph>
    <TTGlyph name="numbersign_expand" xMin="0" yMin="-5" xMax="920" yMax="755">
      <contour>
        <pt x="690" y="460" on="1"/>
        <pt x="280" y="460" on="1"/>
        <pt x="280" y="550" on="1"/>
        <pt x="690" y="550" on="1"/>
      </contour>
      <contour>
        <pt x="920" y="210" on="1"/>
        <pt x="510" y="210" on="1"/>
        <pt x="510" y="300" on="1"/>
        <pt x="920" y="300" on="1"/>
      </contour>
      <contour>
        <pt x="230" y="360" on="1"/>
        <pt x="140" y="360" on="1"/>
        <pt x="140" y="710" on="1"/>
        <pt x="140" y="728" on="0"/>
        <pt x="166" y="755" on="0"/>
        <pt x="185" y="755" on="1"/>
        <pt x="204" y="755" on="0"/>
        <pt x="230" y="728" on="0"/>
        <pt x="230" y="710" on="1"/>
      </contour>
      <contour>
        <pt x="185" y="-5" on="1"/>
        <pt x="166" y="-5" on="0"/>
        <pt x="140" y="21" on="0"/>
        <pt x="140" y="40" on="1"/>
        <pt x="140" y="150" on="1"/>
        <pt x="230" y="150" on="1"/>
        <pt x="230" y="40" on="1"/>
        <pt x="230" y="21" on="0"/>
        <pt x="204" y="-5" on="0"/>
      </contour>
      <contour>
        <pt x="460" y="610" on="1"/>
        <pt x="370" y="610" on="1"/>
        <pt x="370" y="710" on="1"/>
        <pt x="370" y="728" on="0"/>
        <pt x="396" y="755" on="0"/>
        <pt x="415" y="755" on="1"/>
        <pt x="434" y="755" on="0"/>
        <pt x="460" y="728" on="0"/>
        <pt x="460" y="710" on="1"/>
      </contour>
      <contour>
        <pt x="415" y="-5" on="1"/>
        <pt x="396" y="-5" on="0"/>
        <pt x="370" y="21" on="0"/>
        <pt x="370" y="40" on="1"/>
        <pt x="370" y="400" on="1"/>
        <pt x="460" y="400" on="1"/>
        <pt x="460" y="40" on="1"/>
        <pt x="460" y="21" on="0"/>
        <pt x="434" y="-5" on="0"/>
      </contour>
      <contour>
        <pt x="90" y="460" on="1"/>
        <pt x="45" y="460" on="1"/>
        <pt x="26" y="460" on="0"/>
        <pt x="0" y="486" on="0"/>
        <pt x="0" y="505" on="1"/>
        <pt x="0" y="523" on="0"/>
        <pt x="26" y="550" on="0"/>
        <pt x="45" y="550" on="1"/>
        <pt x="90" y="550" on="1"/>
      </contour>
      <contour>
        <pt x="320" y="210" on="1"/>
        <pt x="45" y="210" on="1"/>
        <pt x="26" y="210" on="0"/>
        <pt x="0" y="236" on="0"/>
        <pt x="0" y="255" on="1"/>
        <pt x="0" y="273" on="0"/>
        <pt x="26" y="300" on="0"/>
        <pt x="45" y="300" on="1"/>
        <pt x="320" y="300" on="1"/>
      </contour>
    </TTGlyph>
    <TTGlyph name="o" xMin="72" yMin="-5" xMax="528" yMax="555">
      <contour>
        <pt x="300" y="-5" on="1"/>
        <pt x="239" y="-5" on="0"/>
        <pt x="133" y="61" on="0"/>
        <pt x="72" y="186" on="0"/>
        <pt x="72" y="276" on="1"/>
        <pt x="72" y="364" on="0"/>
        <pt x="133" y="489" on="0"/>
        <pt x="239" y="555" on="0"/>
        <pt x="300" y="555" on="1"/>
        <pt x="362" y="555" on="0"/>
        <pt x="467" y="489" on="0"/>
        <pt x="528" y="364" on="0"/>
        <pt x="528" y="276" on="1"/>
        <pt x="528" y="186" on="0"/>
        <pt x="467" y="61" on="0"/>
        <pt x="362" y="-5" on="0"/>
      </contour>
      <contour>
        <pt x="300" y="83" on="1"/>
        <pt x="362" y="83" on="0"/>
        <pt x="435" y="184" on="0"/>
        <pt x="435" y="274" on="1"/>
        <pt x="435" y="363" on="0"/>
        <pt x="361" y="467" on="0"/>
        <pt x="300" y="467" on="1"/>
        <pt x="239" y="467" on="0"/>
        <pt x="165" y="363" on="0"/>
        <pt x="165" y="274" on="1"/>
        <pt x="165" y="185" on="0"/>
        <pt x="239" y="83" on="0"/>
      </contour>
    </TTGlyph>
    <TTGlyph name="one" xMin="78" yMin="0" xMax="520" yMax="755">
      <contour>
        <pt x="475" y="0" on="1"/>
        <pt x="125" y="0" on="1"/>
        <pt x="106" y="0" on="0"/>
        <pt x="80" y="27" on="0"/>
        <pt x="80" y="45" on="1"/>
        <pt x="80" y="64" on="0"/>
        <pt x="106" y="90" on="0"/>
        <pt x="125" y="90" on="1"/>
        <pt x="231" y="90" on="1"/>
        <pt x="241" y="90" on="0"/>
        <pt x="255" y="104" on="0"/>
        <pt x="255" y="114" on="1"/>
        <pt x="255" y="601" on="1"/>
        <pt x="255" y="608" on="0"/>
        <pt x="245" y="617" on="0"/>
        <pt x="239" y="617" on="1"/>
        <pt x="234" y="617" on="0"/>
        <pt x="229" y="613" on="1"/>
        <pt x="153" y="534" on="1"/>
        <pt x="139" y="523" on="0"/>
        <pt x="123" y="523" on="1"/>
        <pt x="104" y="523" on="0"/>
        <pt x="89" y="539" on="1"/>
        <pt x="78" y="552" on="0"/>
        <pt x="78" y="568" on="1"/>
        <pt x="78" y="587" on="0"/>
        <pt x="93" y="602" on="1"/>
        <pt x="236" y="739" on="1"/>
        <pt x="256" y="755" on="0"/>
        <pt x="280" y="755" on="1"/>
        <pt x="307" y="755" on="0"/>
        <pt x="345" y="717" on="0"/>
        <pt x="345" y="690" on="1"/>
        <pt x="345" y="114" on="1"/>
        <pt x="345" y="104" on="0"/>
        <pt x="358" y="90" on="0"/>
        <pt x="368" y="90" on="1"/>
        <pt x="475" y="90" on="1"/>
        <pt x="494" y="90" on="0"/>
        <pt x="520" y="64" on="0"/>
        <pt x="520" y="45" on="1"/>
        <pt x="520" y="27" on="0"/>
        <pt x="494" y="0" on="0"/>
      </contour>
    </TTGlyph>
    <TTGlyph name="p" xMin="90" yMin="-250" xMax="524" yMax="555">
      <contour>
        <pt x="310" y="465" on="1"/>
        <pt x="304" y="465" on="1"/>
        <pt x="261" y="465" on="0"/>
        <pt x="180" y="393" on="0"/>
        <pt x="180" y="332" on="1"/>
        <pt x="180" y="232" on="1"/>
        <pt x="180" y="184" on="0"/>
        <pt x="220" y="140" on="1"/>
        <pt x="257" y="101" on="0"/>
        <pt x="312" y="101" on="1"/>
        <pt x="365" y="101" on="0"/>
        <pt x="434" y="193" on="0"/>
        <pt x="434" y="284" on="1"/>
        <pt x="430" y="462" on="0"/>
      </contour>
      <contour>
        <pt x="327" y="555" on="1"/>
        <pt x="426" y="555" on="0"/>
        <pt x="523" y="408" on="0"/>
        <pt x="524" y="268" on="1"/>
        <pt x="524" y="145" on="0"/>
        <pt x="412" y="-5" on="0"/>
        <pt x="326" y="-5" on="1"/>
        <pt x="261" y="-5" on="0"/>
        <pt x="217" y="30" on="1"/>
        <pt x="207" y="39" on="0"/>
        <pt x="197" y="39" on="1"/>
        <pt x="188" y="39" on="0"/>
        <pt x="180" y="28" on="0"/>
        <pt x="180" y="18" on="1"/>
        <pt x="180" y="-203" on="1"/>
        <pt x="180" y="-224" on="0"/>
        <pt x="153" y="-250" on="0"/>
        <pt x="136" y="-250" on="1"/>
        <pt x="118" y="-250" on="0"/>
        <pt x="90" y="-224" on="0"/>
        <pt x="90" y="-203" on="1"/>
        <pt x="90" y="509" on="1"/>
        <pt x="90" y="530" on="0"/>
        <pt x="115" y="555" on="0"/>
        <pt x="134" y="555" on="1"/>
        <pt x="171" y="555" on="0"/>
        <pt x="177" y="519" on="1"/>
        <pt x="180" y="500" on="0"/>
        <pt x="190" y="500" on="1"/>
        <pt x="197" y="500" on="0"/>
        <pt x="202" y="506" on="1"/>
        <pt x="250" y="555" on="0"/>
      </contour>
    </TTGlyph>
    <TTGlyph name="parenleft" xMin="122" yMin="-187" xMax="477" yMax="887">
      <contour>
        <pt x="208" y="318" on="1"/>
        <pt x="210" y="157" on="0"/>
        <pt x="303" y="35" on="1"/>
        <pt x="368" y="-52" on="0"/>
        <pt x="460" y="-115" on="1"/>
        <pt x="477" y="-126" on="0"/>
        <pt x="477" y="-148" on="1"/>
        <pt x="477" y="-161" on="0"/>
        <pt x="472" y="-169" on="1"/>
        <pt x="459" y="-187" on="0"/>
        <pt x="437" y="-187" on="1"/>
        <pt x="427" y="-187" on="0"/>
        <pt x="419" y="-183" on="1"/>
        <pt x="301" y="-112" on="0"/>
        <pt x="224" y="-4" on="1"/>
        <pt x="122" y="142" on="0"/>
        <pt x="122" y="329" on="1"/>
        <pt x="122" y="353" on="1"/>
        <pt x="122" y="558" on="0"/>
        <pt x="224" y="704" on="1"/>
        <pt x="301" y="812" on="0"/>
        <pt x="419" y="883" on="1"/>
        <pt x="427" y="887" on="0"/>
        <pt x="437" y="887" on="1"/>
        <pt x="460" y="887" on="0"/>
        <pt x="472" y="869" on="1"/>
        <pt x="477" y="860" on="0"/>
        <pt x="477" y="848" on="1"/>
        <pt x="477" y="827" on="0"/>
        <pt x="460" y="815" on="1"/>
        <pt x="368" y="752" on="0"/>
        <pt x="305" y="665" on="1"/>
        <pt x="210" y="533" on="0"/>
        <pt x="208" y="364" on="1"/>
      </contour>
    </TTGlyph>
    <TTGlyph name="parenright" xMin="122" yMin="-187" xMax="477" yMax="887">
      <contour>
        <pt x="391" y="318" on="1"/>
        <pt x="391" y="364" on="1"/>
        <pt x="389" y="533" on="0"/>
        <pt x="294" y="665" on="1"/>
        <pt x="231" y="752" on="0"/>
        <pt x="139" y="815" on="1"/>
        <pt x="122" y="827" on="0"/>
        <pt x="122" y="848" on="1"/>
        <pt x="122" y="860" on="0"/>
        <pt x="127" y="869" on="1"/>
        <pt x="139" y="887" on="0"/>
        <pt x="162" y="887" on="1"/>
        <pt x="172" y="887" on="0"/>
        <pt x="180" y="883" on="1"/>
        <pt x="298" y="812" on="0"/>
        <pt x="375" y="704" on="1"/>
        <pt x="477" y="558" on="0"/>
        <pt x="477" y="353" on="1"/>
        <pt x="477" y="329" on="1"/>
        <pt x="477" y="142" on="0"/>
        <pt x="375" y="-4" on="1"/>
        <pt x="298" y="-112" on="0"/>
        <pt x="180" y="-183" on="1"/>
        <pt x="172" y="-187" on="0"/>
        <pt x="162" y="-187" on="1"/>
        <pt x="140" y="-187" on="0"/>
        <pt x="127" y="-169" on="1"/>
        <pt x="122" y="-161" on="0"/>
        <pt x="122" y="-148" on="1"/>
        <pt x="122" y="-126" on="0"/>
        <pt x="139" y="-115" on="1"/>
        <pt x="231" y="-52" on="0"/>
        <pt x="296" y="35" on="1"/>
        <pt x="389" y="157" on="0"/>
      </contour>
    </TTGlyph>
    <TTGlyph name="percent" xMin="9" yMin="-5" xMax="591" yMax="755">
      <contour>
        <pt x="445" y="-5" on="1"/>
        <pt x="386" y="-5" on="0"/>
        <pt x="298" y="89" on="0"/>
        <pt x="298" y="169" on="1"/>
        <pt x="299" y="255" on="0"/>
        <pt x="376" y="347" on="0"/>
        <pt x="445" y="347" on="1"/>
        <pt x="511" y="347" on="0"/>
        <pt x="591" y="254" on="0"/>
        <pt x="591" y="174" on="1"/>
        <pt x="591" y="93" on="0"/>
        <pt x="511" y="-5" on="0"/>
      </contour>
      <contour>
        <pt x="445" y="68" on="1"/>
        <pt x="508" y="68" on="0"/>
        <pt x="508" y="165" on="1"/>
        <pt x="507" y="268" on="0"/>
        <pt x="445" y="268" on="1"/>
        <pt x="383" y="268" on="0"/>
        <pt x="383" y="170" on="1"/>
        <pt x="383" y="68" on="0"/>
      </contour>
      <contour>
        <pt x="155" y="403" on="1"/>
        <pt x="124" y="403" on="0"/>
        <pt x="78" y="425" on="0"/>
        <pt x="52" y="448" on="0"/>
        <pt x="52" y="450" on="1"/>
        <pt x="9" y="500" on="0"/>
        <pt x="9" y="581" on="1"/>
        <pt x="9" y="664" on="0"/>
        <pt x="92" y="755" on="0"/>
        <pt x="155" y="755" on="1"/>
        <pt x="219" y="755" on="0"/>
        <pt x="303" y="664" on="0"/>
        <pt x="303" y="581" on="1"/>
        <pt x="303" y="500" on="0"/>
        <pt x="262" y="451" on="1"/>
        <pt x="244" y="427" on="0"/>
        <pt x="201" y="404" on="0"/>
      </contour>
      <contour>
        <pt x="155" y="479" on="1"/>
        <pt x="219" y="479" on="0"/>
        <pt x="219" y="575" on="1"/>
        <pt x="218" y="680" on="0"/>
        <pt x="155" y="680" on="1"/>
        <pt x="94" y="680" on="0"/>
        <pt x="94" y="581" on="1"/>
        <pt x="94" y="479" on="0"/>
      </contour>
      <contour>
        <pt x="61" y="79" on="1"/>
        <pt x="32" y="79" on="0"/>
        <pt x="20" y="98" on="1"/>
        <pt x="9" y="115" on="0"/>
        <pt x="9" y="128" on="1"/>
        <pt x="9" y="150" on="0"/>
        <pt x="22" y="162" on="1"/>
        <pt x="197" y="324" on="1"/>
        <pt x="207" y="333" on="0"/>
        <pt x="223" y="333" on="1"/>
        <pt x="239" y="332" on="0"/>
        <pt x="263" y="308" on="0"/>
        <pt x="263" y="294" on="1"/>
        <pt x="263" y="279" on="0"/>
        <pt x="254" y="270" on="1"/>
        <pt x="98" y="94" on="1"/>
        <pt x="84" y="79" on="0"/>
      </contour>
      <contour>
        <pt x="536" y="670" on="1"/>
        <pt x="560" y="670" on="0"/>
        <pt x="578" y="652" on="1"/>
        <pt x="588" y="641" on="0"/>
        <pt x="588" y="621" on="1"/>
        <pt x="588" y="601" on="0"/>
        <pt x="575" y="588" on="1"/>
        <pt x="401" y="425" on="1"/>
        <pt x="392" y="417" on="0"/>
        <pt x="374" y="417" on="1"/>
        <pt x="357" y="418" on="0"/>
        <pt x="334" y="441" on="0"/>
        <pt x="334" y="456" on="1"/>
        <pt x="334" y="468" on="0"/>
        <pt x="343" y="478" on="1"/>
        <pt x="500" y="655" on="1"/>
        <pt x="514" y="670" on="0"/>
      </contour>
    </TTGlyph>
    <TTGlyph name="period" xMin="219" yMin="0" xMax="382" yMax="167">
      <contour>
        <pt x="302" y="0" on="1"/>
        <pt x="267" y="0" on="0"/>
        <pt x="219" y="49" on="0"/>
        <pt x="219" y="83" on="1"/>
        <pt x="219" y="118" on="0"/>
        <pt x="267" y="167" on="0"/>
        <pt x="302" y="167" on="1"/>
        <pt x="335" y="167" on="0"/>
        <pt x="382" y="118" on="0"/>
        <pt x="382" y="83" on="1"/>
        <pt x="382" y="49" on="0"/>
        <pt x="335" y="0" on="0"/>
      </contour>
    </TTGlyph>
    <TTGlyph name="plus" xMin="60" yMin="70" xMax="540" yMax="550">
      <contour>
        <pt x="255" y="355" on="1"/>
        <pt x="255" y="505" on="1"/>
        <pt x="255" y="523" on="0"/>
        <pt x="281" y="550" on="0"/>
        <pt x="300" y="550" on="1"/>
        <pt x="318" y="550" on="0"/>
        <pt x="345" y="523" on="0"/>
        <pt x="345" y="505" on="1"/>
        <pt x="345" y="355" on="1"/>
        <pt x="495" y="355" on="1"/>
        <pt x="513" y="355" on="0"/>
        <pt x="540" y="329" on="0"/>
        <pt x="540" y="310" on="1"/>
        <pt x="540" y="291" on="0"/>
        <pt x="513" y="265" on="0"/>
        <pt x="495" y="265" on="1"/>
        <pt x="345" y="265" on="1"/>
        <pt x="345" y="115" on="1"/>
        <pt x="345" y="96" on="0"/>
        <pt x="318" y="70" on="0"/>
        <pt x="300" y="70" on="1"/>
        <pt x="281" y="70" on="0"/>
        <pt x="255" y="96" on="0"/>
        <pt x="255" y="115" on="1"/>
        <pt x="255" y="265" on="1"/>
        <pt x="105" y="265" on="1"/>
        <pt x="86" y="265" on="0"/>
        <pt x="60" y="291" on="0"/>
        <pt x="60" y="310" on="1"/>
        <pt x="60" y="329" on="0"/>
        <pt x="86" y="355" on="0"/>
        <pt x="105" y="355" on="1"/>
      </contour>
    </TTGlyph>
    <TTGlyph name="plus_plus" xMin="-490" yMin="70" xMax="490" yMax="550">
      <contour>
        <pt x="205" y="355" on="1"/>
        <pt x="205" y="505" on="1"/>
        <pt x="205" y="523" on="0"/>
        <pt x="231" y="550" on="0"/>
        <pt x="250" y="550" on="1"/>
        <pt x="268" y="550" on="0"/>
        <pt x="295" y="523" on="0"/>
        <pt x="295" y="505" on="1"/>
        <pt x="295" y="355" on="1"/>
        <pt x="445" y="355" on="1"/>
        <pt x="463" y="355" on="0"/>
        <pt x="490" y="329" on="0"/>
        <pt x="490" y="310" on="1"/>
        <pt x="490" y="291" on="0"/>
        <pt x="463" y="265" on="0"/>
        <pt x="445" y="265" on="1"/>
        <pt x="295" y="265" on="1"/>
        <pt x="295" y="115" on="1"/>
        <pt x="295" y="96" on="0"/>
        <pt x="268" y="70" on="0"/>
        <pt x="250" y="70" on="1"/>
        <pt x="231" y="70" on="0"/>
        <pt x="205" y="96" on="0"/>
        <pt x="205" y="115" on="1"/>
        <pt x="205" y="265" on="1"/>
        <pt x="-205" y="265" on="1"/>
        <pt x="-205" y="115" on="1"/>
        <pt x="-205" y="96" on="0"/>
        <pt x="-232" y="70" on="0"/>
        <pt x="-250" y="70" on="1"/>
        <pt x="-269" y="70" on="0"/>
        <pt x="-295" y="96" on="0"/>
        <pt x="-295" y="115" on="1"/>
        <pt x="-295" y="265" on="1"/>
        <pt x="-445" y="265" on="1"/>
        <pt x="-464" y="265" on="0"/>
        <pt x="-490" y="291" on="0"/>
        <pt x="-490" y="310" on="1"/>
        <pt x="-490" y="329" on="0"/>
        <pt x="-464" y="355" on="0"/>
        <pt x="-445" y="355" on="1"/>
        <pt x="-295" y="355" on="1"/>
        <pt x="-295" y="505" on="1"/>
        <pt x="-295" y="523" on="0"/>
        <pt x="-269" y="550" on="0"/>
        <pt x="-250" y="550" on="1"/>
        <pt x="-232" y="550" on="0"/>
        <pt x="-205" y="523" on="0"/>
        <pt x="-205" y="505" on="1"/>
        <pt x="-205" y="355" on="1"/>
      </contour>
    </TTGlyph>
    <TTGlyph name="plus_plus_plus" xMin="-1080" yMin="70" xMax="480" yMax="550">
      <contour>
        <pt x="-795" y="265" on="1"/>
        <pt x="-795" y="115" on="1"/>
        <pt x="-795" y="96" on="0"/>
        <pt x="-822" y="70" on="0"/>
        <pt x="-840" y="70" on="1"/>
        <pt x="-859" y="70" on="0"/>
        <pt x="-885" y="96" on="0"/>
        <pt x="-885" y="115" on="1"/>
        <pt x="-885" y="265" on="1"/>
        <pt x="-1035" y="265" on="1"/>
        <pt x="-1054" y="265" on="0"/>
        <pt x="-1080" y="291" on="0"/>
        <pt x="-1080" y="310" on="1"/>
        <pt x="-1080" y="329" on="0"/>
        <pt x="-1054" y="355" on="0"/>
        <pt x="-1035" y="355" on="1"/>
        <pt x="-885" y="355" on="1"/>
        <pt x="-885" y="505" on="1"/>
        <pt x="-885" y="523" on="0"/>
        <pt x="-859" y="550" on="0"/>
        <pt x="-840" y="550" on="1"/>
        <pt x="-822" y="550" on="0"/>
        <pt x="-795" y="523" on="0"/>
        <pt x="-795" y="505" on="1"/>
        <pt x="-795" y="355" on="1"/>
        <pt x="-345" y="355" on="1"/>
        <pt x="-345" y="505" on="1"/>
        <pt x="-345" y="523" on="0"/>
        <pt x="-319" y="550" on="0"/>
        <pt x="-300" y="550" on="1"/>
        <pt x="-282" y="550" on="0"/>
        <pt x="-255" y="523" on="0"/>
        <pt x="-255" y="505" on="1"/>
        <pt x="-255" y="355" on="1"/>
        <pt x="195" y="355" on="1"/>
        <pt x="195" y="505" on="1"/>
        <pt x="195" y="523" on="0"/>
        <pt x="221" y="550" on="0"/>
        <pt x="240" y="550" on="1"/>
        <pt x="258" y="550" on="0"/>
        <pt x="285" y="523" on="0"/>
        <pt x="285" y="505" on="1"/>
        <pt x="285" y="355" on="1"/>
        <pt x="435" y="355" on="1"/>
        <pt x="453" y="355" on="0"/>
        <pt x="480" y="329" on="0"/>
        <pt x="480" y="310" on="1"/>
        <pt x="480" y="291" on="0"/>
        <pt x="453" y="265" on="0"/>
        <pt x="435" y="265" on="1"/>
        <pt x="285" y="265" on="1"/>
        <pt x="285" y="115" on="1"/>
        <pt x="285" y="96" on="0"/>
        <pt x="258" y="70" on="0"/>
        <pt x="240" y="70" on="1"/>
        <pt x="221" y="70" on="0"/>
        <pt x="195" y="96" on="0"/>
        <pt x="195" y="115" on="1"/>
        <pt x="195" y="265" on="1"/>
        <pt x="-255" y="265" on="1"/>
        <pt x="-255" y="115" on="1"/>
        <pt x="-255" y="96" on="0"/>
        <pt x="-282" y="70" on="0"/>
        <pt x="-300" y="70" on="1"/>
        <pt x="-319" y="70" on="0"/>
        <pt x="-345" y="96" on="0"/>
        <pt x="-345" y="115" on="1"/>
        <pt x="-345" y="265" on="1"/>
      </contour>
    </TTGlyph>
    <TTGlyph name="q" xMin="76" yMin="-250" xMax="510" yMax="555">
      <contour>
        <pt x="291" y="465" on="1"/>
        <pt x="170" y="462" on="0"/>
        <pt x="166" y="284" on="1"/>
        <pt x="166" y="193" on="0"/>
        <pt x="235" y="101" on="0"/>
        <pt x="289" y="101" on="1"/>
        <pt x="343" y="101" on="0"/>
        <pt x="380" y="140" on="1"/>
        <pt x="420" y="184" on="0"/>
        <pt x="420" y="232" on="1"/>
        <pt x="420" y="332" on="1"/>
        <pt x="420" y="393" on="0"/>
        <pt x="340" y="465" on="0"/>
        <pt x="296" y="465" on="1"/>
      </contour>
      <contour>
        <pt x="273" y="555" on="1"/>
        <pt x="351" y="555" on="0"/>
        <pt x="398" y="506" on="1"/>
        <pt x="404" y="500" on="0"/>
        <pt x="410" y="500" on="1"/>
        <pt x="421" y="500" on="0"/>
        <pt x="423" y="519" on="1"/>
        <pt x="429" y="555" on="0"/>
        <pt x="467" y="555" on="1"/>
        <pt x="486" y="555" on="0"/>
        <pt x="510" y="530" on="0"/>
        <pt x="510" y="509" on="1"/>
        <pt x="510" y="-203" on="1"/>
        <pt x="510" y="-224" on="0"/>
        <pt x="482" y="-250" on="0"/>
        <pt x="465" y="-250" on="1"/>
        <pt x="448" y="-250" on="0"/>
        <pt x="420" y="-224" on="0"/>
        <pt x="420" y="-203" on="1"/>
        <pt x="420" y="18" on="1"/>
        <pt x="420" y="28" on="0"/>
        <pt x="413" y="39" on="0"/>
        <pt x="403" y="39" on="1"/>
        <pt x="394" y="39" on="0"/>
        <pt x="383" y="30" on="1"/>
        <pt x="340" y="-5" on="0"/>
        <pt x="274" y="-5" on="1"/>
        <pt x="188" y="-5" on="0"/>
        <pt x="76" y="145" on="0"/>
        <pt x="76" y="268" on="1"/>
        <pt x="77" y="408" on="0"/>
        <pt x="175" y="555" on="0"/>
      </contour>
    </TTGlyph>
    <TTGlyph name="question" xMin="107" yMin="-5" xMax="494" yMax="755">
      <contour>
        <pt x="300" y="260" on="1"/>
        <pt x="277" y="260" on="0"/>
        <pt x="252" y="288" on="0"/>
        <pt x="252" y="317" on="1"/>
        <pt x="252" y="357" on="0"/>
        <pt x="299" y="421" on="0"/>
        <pt x="346" y="460" on="1"/>
        <pt x="403" y="509" on="0"/>
        <pt x="403" y="562" on="1"/>
        <pt x="403" y="669" on="0"/>
        <pt x="301" y="669" on="1"/>
        <pt x="227" y="669" on="0"/>
        <pt x="197" y="599" on="1"/>
        <pt x="185" y="566" on="0"/>
        <pt x="174" y="562" on="1"/>
        <pt x="163" y="558" on="0"/>
        <pt x="151" y="558" on="1"/>
        <pt x="107" y="559" on="0"/>
        <pt x="107" y="605" on="1"/>
        <pt x="107" y="621" on="0"/>
        <pt x="115" y="642" on="1"/>
        <pt x="165" y="755" on="0"/>
        <pt x="298" y="755" on="1"/>
        <pt x="391" y="755" on="0"/>
        <pt x="494" y="651" on="0"/>
        <pt x="494" y="561" on="1"/>
        <pt x="494" y="472" on="0"/>
        <pt x="414" y="399" on="1"/>
        <pt x="350" y="344" on="0"/>
        <pt x="346" y="303" on="1"/>
        <pt x="344" y="285" on="0"/>
        <pt x="322" y="260" on="0"/>
      </contour>
      <contour>
        <pt x="302" y="-5" on="1"/>
        <pt x="267" y="-5" on="0"/>
        <pt x="219" y="44" on="0"/>
        <pt x="219" y="78" on="1"/>
        <pt x="219" y="113" on="0"/>
        <pt x="267" y="162" on="0"/>
        <pt x="302" y="162" on="1"/>
        <pt x="335" y="162" on="0"/>
        <pt x="382" y="113" on="0"/>
        <pt x="382" y="78" on="1"/>
        <pt x="382" y="44" on="0"/>
        <pt x="335" y="-5" on="0"/>
      </contour>
    </TTGlyph>
    <TTGlyph name="quotedbl" xMin="165" yMin="550" xMax="434" yMax="800">
      <contour>
        <pt x="210" y="550" on="1"/>
        <pt x="191" y="550" on="0"/>
        <pt x="165" y="576" on="0"/>
        <pt x="165" y="595" on="1"/>
        <pt x="165" y="755" on="1"/>
        <pt x="165" y="773" on="0"/>
        <pt x="191" y="800" on="0"/>
        <pt x="210" y="800" on="1"/>
        <pt x="229" y="800" on="0"/>
        <pt x="255" y="773" on="0"/>
        <pt x="255" y="755" on="1"/>
        <pt x="255" y="595" on="1"/>
        <pt x="255" y="576" on="0"/>
        <pt x="229" y="550" on="0"/>
      </contour>
      <contour>
        <pt x="389" y="550" on="1"/>
        <pt x="370" y="550" on="0"/>
        <pt x="344" y="576" on="0"/>
        <pt x="344" y="595" on="1"/>
        <pt x="344" y="755" on="1"/>
        <pt x="344" y="773" on="0"/>
        <pt x="370" y="800" on="0"/>
        <pt x="389" y="800" on="1"/>
        <pt x="408" y="800" on="0"/>
        <pt x="434" y="773" on="0"/>
        <pt x="434" y="755" on="1"/>
        <pt x="434" y="595" on="1"/>
        <pt x="434" y="576" on="0"/>
        <pt x="408" y="550" on="0"/>
      </contour>
    </TTGlyph>
    <TTGlyph name="quotesingle" xMin="255" yMin="550" xMax="345" yMax="800">
      <contour>
        <pt x="300" y="550" on="1"/>
        <pt x="281" y="550" on="0"/>
        <pt x="255" y="576" on="0"/>
        <pt x="255" y="595" on="1"/>
        <pt x="255" y="755" on="1"/>
        <pt x="255" y="773" on="0"/>
        <pt x="281" y="800" on="0"/>
        <pt x="300" y="800" on="1"/>
        <pt x="319" y="800" on="0"/>
        <pt x="345" y="773" on="0"/>
        <pt x="345" y="755" on="1"/>
        <pt x="345" y="595" on="1"/>
        <pt x="345" y="576" on="0"/>
        <pt x="319" y="550" on="0"/>
      </contour>
    </TTGlyph>
    <TTGlyph name="r" xMin="100" yMin="-5" xMax="535" yMax="555">
      <contour>
        <pt x="146" y="-5" on="1"/>
        <pt x="125" y="-5" on="0"/>
        <pt x="100" y="20" on="0"/>
        <pt x="100" y="40" on="1"/>
        <pt x="100" y="510" on="1"/>
        <pt x="100" y="529" on="0"/>
        <pt x="125" y="555" on="0"/>
        <pt x="143" y="555" on="1"/>
        <pt x="163" y="555" on="0"/>
        <pt x="190" y="529" on="0"/>
        <pt x="190" y="510" on="1"/>
        <pt x="190" y="485" on="1"/>
        <pt x="190" y="468" on="0"/>
        <pt x="201" y="468" on="1"/>
        <pt x="211" y="468" on="0"/>
        <pt x="218" y="476" on="1"/>
        <pt x="278" y="555" on="0"/>
        <pt x="373" y="555" on="1"/>
        <pt x="446" y="555" on="0"/>
        <pt x="535" y="475" on="0"/>
        <pt x="535" y="385" on="1"/>
        <pt x="535" y="366" on="0"/>
        <pt x="512" y="340" on="0"/>
        <pt x="495" y="340" on="1"/>
        <pt x="477" y="340" on="0"/>
        <pt x="451" y="359" on="0"/>
        <pt x="448" y="379" on="1"/>
        <pt x="437" y="462" on="0"/>
        <pt x="364" y="462" on="1"/>
        <pt x="312" y="462" on="0"/>
        <pt x="190" y="367" on="0"/>
        <pt x="190" y="304" on="1"/>
        <pt x="190" y="40" on="1"/>
        <pt x="190" y="20" on="0"/>
        <pt x="164" y="-5" on="0"/>
      </contour>
    </TTGlyph>
    <TTGlyph name="right_arrow_double" xMin="-540" yMin="4" xMax="482" yMax="609">
      <contour>
        <pt x="250" y="432" on="1"/>
        <pt x="199" y="383" on="1"/>
        <pt x="186" y="370" on="0"/>
        <pt x="166" y="370" on="1"/>
        <pt x="-494" y="370" on="1"/>
        <pt x="-512" y="370" on="0"/>
        <pt x="-539" y="394" on="0"/>
        <pt x="-540" y="413" on="1"/>
        <pt x="-540" y="434" on="0"/>
        <pt x="-514" y="460" on="0"/>
        <pt x="-495" y="460" on="1"/>
        <pt x="128" y="460" on="1"/>
        <pt x="147" y="460" on="0"/>
        <pt x="161" y="473" on="1"/>
        <pt x="186" y="496" on="1"/>
        <pt x="148" y="534" on="1"/>
        <pt x="137" y="545" on="0"/>
        <pt x="137" y="562" on="1"/>
        <pt x="137" y="580" on="0"/>
        <pt x="166" y="609" on="0"/>
        <pt x="185" y="609" on="1"/>
        <pt x="200" y="609" on="0"/>
        <pt x="211" y="598" on="1"/>
        <pt x="471" y="338" on="1"/>
        <pt x="482" y="327" on="0"/>
        <pt x="482" y="310" on="1"/>
        <pt x="482" y="292" on="0"/>
        <pt x="471" y="281" on="1"/>
        <pt x="205" y="15" on="1"/>
        <pt x="194" y="4" on="0"/>
        <pt x="178" y="4" on="1"/>
        <pt x="160" y="4" on="0"/>
        <pt x="131" y="32" on="0"/>
        <pt x="131" y="51" on="1"/>
        <pt x="131" y="67" on="0"/>
        <pt x="142" y="78" on="1"/>
        <pt x="186" y="123" on="1"/>
        <pt x="161" y="146" on="1"/>
        <pt x="146" y="160" on="0"/>
        <pt x="128" y="160" on="1"/>
        <pt x="-495" y="160" on="1"/>
        <pt x="-513" y="160" on="0"/>
        <pt x="-540" y="186" on="0"/>
        <pt x="-540" y="204" on="1"/>
        <pt x="-540" y="206" on="1"/>
        <pt x="-539" y="225" on="0"/>
        <pt x="-512" y="250" on="0"/>
        <pt x="-494" y="250" on="1"/>
        <pt x="166" y="250" on="1"/>
        <pt x="185" y="250" on="0"/>
        <pt x="199" y="236" on="1"/>
        <pt x="250" y="187" on="1"/>
        <pt x="356" y="293" on="1"/>
        <pt x="363" y="300" on="0"/>
        <pt x="363" y="310" on="1"/>
        <pt x="363" y="319" on="0"/>
        <pt x="356" y="326" on="1"/>
      </contour>
    </TTGlyph>
    <TTGlyph name="right_arrow_double_long" xMin="-1140" yMin="4" xMax="482" yMax="609">
      <contour>
        <pt x="250" y="432" on="1"/>
        <pt x="199" y="383" on="1"/>
        <pt x="186" y="370" on="0"/>
        <pt x="166" y="370" on="1"/>
        <pt x="-1094" y="370" on="1"/>
        <pt x="-1112" y="370" on="0"/>
        <pt x="-1139" y="394" on="0"/>
        <pt x="-1140" y="413" on="1"/>
        <pt x="-1140" y="434" on="0"/>
        <pt x="-1114" y="460" on="0"/>
        <pt x="-1095" y="460" on="1"/>
        <pt x="128" y="460" on="1"/>
        <pt x="147" y="460" on="0"/>
        <pt x="161" y="473" on="1"/>
        <pt x="186" y="496" on="1"/>
        <pt x="148" y="534" on="1"/>
        <pt x="137" y="545" on="0"/>
        <pt x="137" y="562" on="1"/>
        <pt x="137" y="580" on="0"/>
        <pt x="166" y="609" on="0"/>
        <pt x="185" y="609" on="1"/>
        <pt x="200" y="609" on="0"/>
        <pt x="211" y="598" on="1"/>
        <pt x="471" y="338" on="1"/>
        <pt x="482" y="327" on="0"/>
        <pt x="482" y="310" on="1"/>
        <pt x="482" y="292" on="0"/>
        <pt x="471" y="281" on="1"/>
        <pt x="205" y="15" on="1"/>
        <pt x="194" y="4" on="0"/>
        <pt x="178" y="4" on="1"/>
        <pt x="160" y="4" on="0"/>
        <pt x="131" y="32" on="0"/>
        <pt x="131" y="51" on="1"/>
        <pt x="131" y="67" on="0"/>
        <pt x="142" y="78" on="1"/>
        <pt x="186" y="123" on="1"/>
        <pt x="161" y="146" on="1"/>
        <pt x="146" y="160" on="0"/>
        <pt x="128" y="160" on="1"/>
        <pt x="-1095" y="160" on="1"/>
        <pt x="-1113" y="160" on="0"/>
        <pt x="-1140" y="186" on="0"/>
        <pt x="-1140" y="204" on="1"/>
        <pt x="-1140" y="206" on="1"/>
        <pt x="-1139" y="225" on="0"/>
        <pt x="-1112" y="250" on="0"/>
        <pt x="-1094" y="250" on="1"/>
        <pt x="166" y="250" on="1"/>
        <pt x="185" y="250" on="0"/>
        <pt x="199" y="236" on="1"/>
        <pt x="250" y="187" on="1"/>
        <pt x="356" y="293" on="1"/>
        <pt x="363" y="300" on="0"/>
        <pt x="363" y="310" on="1"/>
        <pt x="363" y="319" on="0"/>
        <pt x="356" y="326" on="1"/>
      </contour>
    </TTGlyph>
</ttFont>
